{"glyphs":{"0":{"ha":925,"x_min":74,"x_max":851,"o":"m 446 -14 q 171 99 268 -14 q 74 422 74 213 q 129 674 74 572 q 278 826 185 776 q 483 875 371 875 q 756 765 661 875 q 851 443 851 654 q 797 190 851 293 q 650 37 742 88 q 446 -14 558 -14 m 464 76 q 574 163 538 76 q 610 425 610 249 q 595 635 610 557 q 549 748 581 713 q 463 783 517 783 q 315 440 315 783 q 350 162 315 247 q 464 76 385 76 z "},"1":{"ha":651,"x_min":50,"x_max":628,"o":"m 240 658 q 156 640 217 651 q 65 625 96 628 l 50 735 q 214 792 128 750 q 351 876 300 833 l 353 876 l 478 860 l 478 107 l 628 90 l 628 0 l 79 0 l 79 90 l 240 106 l 240 658 z "},"2":{"ha":846,"x_min":46,"x_max":806,"o":"m 46 85 q 352 328 236 200 q 468 583 468 457 q 427 683 468 646 q 317 721 386 721 q 231 707 269 721 q 170 677 193 693 q 113 632 147 661 l 56 717 q 136 788 82 751 q 260 850 190 825 q 403 875 331 875 q 578 841 507 875 q 683 750 649 807 q 717 624 717 693 q 592 365 717 493 q 268 125 468 238 l 654 165 l 710 281 l 806 260 l 764 0 l 79 0 l 46 85 z "},"3":{"ha":792,"x_min":54,"x_max":742,"o":"m 246 -222 q 145 -215 200 -222 q 58 -197 90 -207 l 58 -81 q 193 -100 119 -100 q 349 -71 283 -100 q 450 10 415 -42 q 485 124 485 61 q 290 306 485 294 l 210 285 l 179 378 q 292 413 229 385 q 408 500 368 449 q 447 610 447 551 q 407 702 447 672 q 307 732 367 732 q 195 712 246 732 q 110 663 144 692 l 54 760 q 131 810 79 783 q 249 856 183 838 q 382 875 315 875 q 604 818 519 875 q 689 647 689 761 q 612 472 689 546 q 418 357 535 399 q 461 358 433 358 q 664 297 586 358 q 742 128 742 235 q 682 -51 742 29 q 510 -176 622 -131 q 246 -222 397 -222 z "},"4":{"ha":932,"x_min":35,"x_max":901,"o":"m 543 0 l 86 0 l 35 79 q 417 946 142 278 l 463 946 l 647 853 l 306 207 l 243 114 l 544 133 l 564 386 l 735 399 l 735 147 l 901 157 l 901 0 l 735 0 l 735 -222 l 543 -222 l 543 0 z "},"5":{"ha":865,"x_min":113,"x_max":788,"o":"m 121 -112 q 201 -117 161 -117 q 372 -78 294 -117 q 493 26 449 -40 q 538 168 538 92 q 490 305 538 264 q 351 346 442 346 q 253 334 306 346 q 164 307 200 322 l 113 343 l 179 863 l 629 863 l 643 889 l 744 889 l 713 696 l 325 696 l 271 429 q 490 483 379 483 q 712 410 636 483 q 788 208 788 338 q 714 -17 788 82 q 510 -169 640 -115 q 218 -224 381 -224 q 121 -214 165 -224 l 121 -112 z "},"6":{"ha":939,"x_min":89,"x_max":860,"o":"m 474 -17 q 267 41 354 -17 q 135 199 181 99 q 89 424 89 299 q 178 752 89 604 q 406 989 268 900 q 681 1092 543 1078 l 728 1008 q 492 865 586 967 q 358 625 399 764 q 564 693 438 693 q 779 608 699 693 q 860 375 860 524 q 815 181 860 271 q 682 38 769 92 q 474 -17 594 -17 m 481 576 q 397 558 435 576 q 336 515 358 540 q 331 396 331 476 q 481 76 331 76 q 588 148 550 76 q 625 332 625 219 q 481 576 625 576 z "},"7":{"ha":831,"x_min":47,"x_max":806,"o":"m 193 -193 q 370 184 283 -17 q 564 643 457 385 l 600 729 l 260 722 l 179 507 l 47 533 l 83 863 l 764 863 l 806 810 l 435 -257 l 193 -193 z "},"8":{"ha":899,"x_min":65,"x_max":836,"o":"m 65 253 q 118 398 65 332 q 271 504 171 464 q 152 619 194 556 q 110 774 110 682 q 156 919 110 858 q 281 1013 201 981 q 457 1046 360 1046 q 631 1016 558 1046 q 742 933 704 986 q 781 814 781 881 q 734 677 781 739 q 599 575 688 615 q 773 443 710 513 q 836 269 836 374 q 786 119 836 183 q 647 19 736 54 q 440 -15 557 -15 q 174 51 282 -15 q 65 253 65 117 m 313 825 q 339 746 313 781 q 407 684 365 711 q 518 619 449 657 q 587 694 563 651 q 611 783 611 736 q 572 913 611 867 q 457 958 532 958 q 355 923 397 958 q 313 825 313 888 m 607 229 q 581 307 607 272 q 513 367 554 342 q 404 429 472 393 l 344 461 q 276 385 301 429 q 251 286 251 340 q 302 135 251 193 q 444 78 353 78 q 558 119 508 78 q 607 229 607 161 z "},"9":{"ha":919,"x_min":68,"x_max":840,"o":"m 458 875 q 667 820 582 875 q 797 668 753 765 q 840 444 840 571 q 756 109 840 260 q 539 -133 672 -42 q 265 -237 406 -224 l 219 -154 q 448 -11 360 -112 q 572 235 536 90 q 489 185 539 204 q 376 165 439 165 q 217 206 288 165 q 108 323 147 247 q 68 499 68 399 q 115 686 68 600 q 249 824 161 772 q 458 875 338 875 m 453 283 q 535 301 497 283 q 593 343 572 319 q 600 447 599 413 q 564 697 600 611 q 446 783 528 783 q 340 713 378 783 q 303 538 303 643 q 343 345 303 407 q 453 283 383 283 z "},"\u0000":{"ha":0,"x_min":0,"x_max":0,"o":""},"\r":{"ha":329,"x_min":0,"x_max":0,"o":""}," ":{"ha":329,"x_min":0,"x_max":0,"o":""},"A":{"ha":982,"x_min":-26,"x_max":1001,"o":"m 364 1036 l 614 1036 l 925 106 l 1001 92 l 1001 0 l 564 0 l 564 92 l 663 106 l 615 272 l 283 272 l 236 104 l 344 92 l 344 0 l -25 0 l -26 92 l 54 107 l 364 1036 m 467 794 l 446 892 l 424 793 l 311 379 l 586 379 l 467 794 z "},"Á":{"ha":982,"x_min":-26,"x_max":1001,"o":"m 364 1036 l 614 1036 l 925 106 l 1001 92 l 1001 0 l 564 0 l 564 92 l 663 106 l 615 272 l 283 272 l 236 104 l 344 92 l 344 0 l -25 0 l -26 92 l 54 107 l 364 1036 m 467 794 l 446 892 l 424 793 l 311 379 l 586 379 l 467 794 m 369 1161 l 549 1364 l 704 1268 q 583 1164 653 1211 q 468 1100 514 1117 l 369 1161 z "},"Ă":{"ha":982,"x_min":-26,"x_max":1001,"o":"m 364 1036 l 614 1036 l 925 106 l 1001 92 l 1001 0 l 564 0 l 564 92 l 663 106 l 615 272 l 283 272 l 236 104 l 344 92 l 344 0 l -25 0 l -26 92 l 54 107 l 364 1036 m 467 794 l 446 892 l 424 793 l 311 379 l 586 379 l 467 794 m 486 1103 q 342 1133 401 1103 q 254 1216 283 1164 q 225 1329 225 1268 q 226 1360 225 1350 l 336 1360 q 338 1344 336 1351 q 488 1243 363 1243 q 636 1344 611 1243 q 638 1360 638 1351 l 749 1360 q 750 1331 750 1350 q 719 1217 750 1269 q 628 1134 688 1165 q 486 1103 568 1103 z "},"Ắ":{"ha":982,"x_min":-26,"x_max":1001,"o":"m 364 1036 l 614 1036 l 925 106 l 1001 92 l 1001 0 l 564 0 l 564 92 l 663 106 l 615 272 l 283 272 l 236 104 l 344 92 l 344 0 l -25 0 l -26 92 l 54 107 l 364 1036 m 467 794 l 446 892 l 424 793 l 311 379 l 586 379 l 467 794 m 418 1224 l 546 1365 l 640 1286 q 577 1220 618 1254 q 483 1158 536 1186 l 418 1224 m 488 1007 q 337 1042 390 1007 q 283 1140 283 1078 q 286 1183 283 1174 l 367 1183 l 367 1168 q 397 1129 367 1146 q 488 1113 428 1113 q 580 1129 547 1113 q 613 1167 613 1146 q 611 1183 613 1179 l 689 1183 q 692 1142 692 1164 q 640 1042 692 1078 q 488 1007 588 1007 z "},"Ặ":{"ha":982,"x_min":-26,"x_max":1001,"o":"m 364 1036 l 614 1036 l 925 106 l 1001 92 l 1001 0 l 564 0 l 564 92 l 663 106 l 615 272 l 283 272 l 236 104 l 344 92 l 344 0 l -25 0 l -26 92 l 54 107 l 364 1036 m 467 794 l 446 892 l 424 793 l 311 379 l 586 379 l 467 794 m 486 1103 q 342 1133 401 1103 q 254 1216 283 1164 q 225 1329 225 1268 q 226 1360 225 1350 l 336 1360 q 338 1344 336 1351 q 488 1243 363 1243 q 636 1344 611 1243 q 638 1360 638 1351 l 749 1360 q 750 1331 750 1350 q 719 1217 750 1269 q 628 1134 688 1165 q 486 1103 568 1103 m 465 -311 q 385 -281 417 -311 q 353 -204 353 -250 q 387 -114 353 -150 q 479 -78 421 -78 q 566 -108 535 -78 q 597 -185 597 -139 q 563 -276 597 -240 q 467 -311 529 -311 l 465 -311 z "},"Ằ":{"ha":982,"x_min":-26,"x_max":1001,"o":"m 364 1036 l 614 1036 l 925 106 l 1001 92 l 1001 0 l 564 0 l 564 92 l 663 106 l 615 272 l 283 272 l 236 104 l 344 92 l 344 0 l -25 0 l -26 92 l 54 107 l 364 1036 m 467 794 l 446 892 l 424 793 l 311 379 l 586 379 l 467 794 m 504 1153 q 410 1217 450 1183 q 349 1282 369 1251 l 442 1360 l 569 1218 l 504 1153 m 488 1007 q 337 1042 390 1007 q 283 1140 283 1078 q 286 1183 283 1174 l 367 1183 l 367 1168 q 397 1129 367 1146 q 488 1113 428 1113 q 580 1129 547 1113 q 613 1167 613 1146 q 611 1183 613 1179 l 689 1183 q 692 1142 692 1164 q 640 1042 692 1078 q 488 1007 588 1007 z "},"Ẳ":{"ha":982,"x_min":-26,"x_max":1001,"o":"m 364 1036 l 614 1036 l 925 106 l 1001 92 l 1001 0 l 564 0 l 564 92 l 663 106 l 615 272 l 283 272 l 236 104 l 344 92 l 344 0 l -25 0 l -26 92 l 54 107 l 364 1036 m 467 794 l 446 892 l 424 793 l 311 379 l 586 379 l 467 794 m 449 1144 q 435 1172 435 1156 q 442 1189 435 1181 q 457 1204 449 1197 q 476 1224 469 1215 q 482 1242 482 1232 q 431 1278 482 1278 q 365 1264 394 1278 l 361 1356 q 395 1363 364 1360 q 446 1365 426 1365 q 596 1265 596 1365 q 585 1228 596 1243 q 550 1197 574 1213 q 528 1157 528 1178 q 529 1146 528 1150 l 449 1144 m 488 1007 q 340 1042 392 1007 q 288 1140 288 1078 q 290 1183 288 1174 l 371 1183 l 371 1168 q 400 1129 371 1146 q 488 1113 429 1113 q 577 1129 546 1113 q 608 1167 608 1146 q 607 1183 608 1179 l 685 1183 q 688 1142 688 1164 q 638 1042 688 1076 q 488 1007 588 1007 z "},"Ẵ":{"ha":982,"x_min":-26,"x_max":1001,"o":"m 364 1036 l 614 1036 l 925 106 l 1001 92 l 1001 0 l 564 0 l 564 92 l 663 106 l 615 272 l 283 272 l 236 104 l 344 92 l 344 0 l -25 0 l -26 92 l 54 107 l 364 1036 m 467 794 l 446 892 l 424 793 l 311 379 l 586 379 l 467 794 m 286 1244 q 303 1297 288 1269 q 348 1344 319 1325 q 414 1364 376 1364 q 462 1355 443 1364 q 501 1329 481 1346 q 531 1308 518 1315 q 561 1301 543 1301 q 603 1310 590 1301 q 626 1333 617 1319 q 639 1351 636 1347 l 686 1318 q 643 1235 678 1268 q 553 1201 608 1201 q 508 1210 525 1201 q 465 1238 490 1218 q 435 1259 449 1251 q 403 1267 421 1267 q 367 1254 382 1267 q 332 1213 353 1242 l 286 1244 m 488 1007 q 340 1042 392 1007 q 288 1140 288 1078 q 290 1183 288 1174 l 371 1183 l 371 1168 q 401 1129 371 1146 q 488 1113 431 1113 q 577 1129 546 1113 q 608 1167 608 1146 q 607 1183 608 1179 l 685 1183 q 688 1142 688 1164 q 638 1042 688 1076 q 488 1007 588 1007 z "},"Ǎ":{"ha":982,"x_min":-26,"x_max":1001,"o":"m 364 1036 l 614 1036 l 925 106 l 1001 92 l 1001 0 l 564 0 l 564 92 l 663 106 l 615 272 l 283 272 l 236 104 l 344 92 l 344 0 l -25 0 l -26 92 l 54 107 l 364 1036 m 467 794 l 446 892 l 424 793 l 311 379 l 586 379 l 467 794 m 489 1242 l 675 1365 l 749 1303 l 556 1110 l 422 1110 l 226 1304 l 303 1365 l 489 1242 z "},"Â":{"ha":982,"x_min":-26,"x_max":1001,"o":"m 364 1036 l 614 1036 l 925 106 l 1001 92 l 1001 0 l 564 0 l 564 92 l 663 106 l 615 272 l 283 272 l 236 104 l 344 92 l 344 0 l -25 0 l -26 92 l 54 107 l 364 1036 m 467 794 l 446 892 l 424 793 l 311 379 l 586 379 l 467 794 m 556 1361 l 764 1160 l 688 1096 l 489 1228 l 289 1096 l 214 1158 l 424 1361 l 556 1361 z "},"Ấ":{"ha":982,"x_min":-26,"x_max":1001,"o":"m 364 1036 l 614 1036 l 925 106 l 1001 92 l 1001 0 l 564 0 l 564 92 l 663 106 l 615 272 l 283 272 l 236 104 l 344 92 l 344 0 l -25 0 l -26 92 l 54 107 l 364 1036 m 467 794 l 446 892 l 424 793 l 311 379 l 586 379 l 467 794 m 717 1224 l 844 1365 l 939 1286 q 876 1220 917 1254 q 782 1158 835 1186 l 717 1224 m 553 1336 l 736 1129 l 675 1071 l 488 1211 l 297 1069 l 238 1129 l 422 1336 l 553 1336 z "},"Ậ":{"ha":982,"x_min":-26,"x_max":1001,"o":"m 465 -311 q 385 -281 417 -311 q 353 -204 353 -250 q 387 -114 353 -150 q 479 -78 421 -78 q 566 -108 535 -78 q 597 -185 597 -139 q 563 -276 597 -240 q 467 -311 529 -311 l 465 -311 m 364 1036 l 614 1036 l 925 106 l 1001 92 l 1001 0 l 564 0 l 564 92 l 663 106 l 615 272 l 283 272 l 236 104 l 344 92 l 344 0 l -25 0 l -26 92 l 54 107 l 364 1036 m 467 794 l 446 892 l 424 793 l 311 379 l 586 379 l 467 794 m 556 1361 l 764 1160 l 688 1096 l 489 1228 l 289 1096 l 214 1158 l 424 1361 l 556 1361 z "},"Ầ":{"ha":982,"x_min":-26,"x_max":1001,"o":"m 364 1036 l 614 1036 l 925 106 l 1001 92 l 1001 0 l 564 0 l 564 92 l 663 106 l 615 272 l 283 272 l 236 104 l 344 92 l 344 0 l -25 0 l -26 92 l 54 107 l 364 1036 m 467 794 l 446 892 l 424 793 l 311 379 l 586 379 l 467 794 m 850 1158 q 756 1223 796 1189 q 694 1288 715 1257 l 789 1365 l 921 1224 l 850 1158 m 553 1307 l 736 1122 l 675 1064 l 488 1186 l 297 1063 l 238 1122 l 422 1307 l 553 1307 z "},"Ẩ":{"ha":982,"x_min":-26,"x_max":1001,"o":"m 364 1036 l 614 1036 l 925 106 l 1001 92 l 1001 0 l 564 0 l 564 92 l 663 106 l 615 272 l 283 272 l 236 104 l 344 92 l 344 0 l -25 0 l -26 92 l 54 107 l 364 1036 m 467 794 l 446 892 l 424 793 l 311 379 l 586 379 l 467 794 m 797 1082 q 775 1133 775 1113 q 783 1161 775 1151 q 807 1185 790 1171 q 831 1208 822 1196 q 839 1236 839 1219 q 826 1266 839 1254 q 786 1279 814 1278 q 724 1265 751 1279 l 719 1356 q 751 1363 722 1360 q 797 1365 779 1365 q 908 1340 868 1365 q 947 1258 947 1315 q 934 1202 947 1222 q 902 1165 921 1182 q 874 1139 883 1149 q 861 1111 861 1126 q 864 1096 861 1107 l 797 1082 m 553 1307 l 736 1122 l 675 1064 l 488 1186 l 297 1063 l 238 1122 l 422 1307 l 553 1307 z "},"Ẫ":{"ha":982,"x_min":-26,"x_max":1001,"o":"m 364 1036 l 614 1036 l 925 106 l 1001 92 l 1001 0 l 564 0 l 564 92 l 663 106 l 615 272 l 283 272 l 236 104 l 344 92 l 344 0 l -25 0 l -26 92 l 54 107 l 364 1036 m 467 794 l 446 892 l 424 793 l 311 379 l 586 379 l 467 794 m 285 1342 q 302 1395 286 1367 q 347 1443 318 1424 q 415 1463 376 1463 q 469 1451 444 1463 q 526 1418 493 1440 q 570 1392 554 1400 q 604 1385 586 1385 q 650 1395 636 1385 q 685 1435 664 1406 l 732 1401 q 686 1319 724 1353 q 590 1286 649 1286 q 538 1297 561 1286 q 483 1329 514 1308 q 441 1356 458 1347 q 406 1364 424 1364 q 367 1350 383 1364 q 331 1310 350 1336 l 285 1342 m 553 1251 l 738 1124 l 689 1064 l 488 1149 l 282 1063 l 238 1124 l 422 1251 l 553 1251 z "},"Ä":{"ha":982,"x_min":-26,"x_max":1001,"o":"m 364 1036 l 614 1036 l 925 106 l 1001 92 l 1001 0 l 564 0 l 564 92 l 663 106 l 615 272 l 283 272 l 236 104 l 344 92 l 344 0 l -25 0 l -26 92 l 54 107 l 364 1036 m 467 794 l 446 892 l 424 793 l 311 379 l 586 379 l 467 794 m 290 1114 q 221 1145 247 1114 q 194 1221 194 1176 q 224 1313 194 1278 q 311 1347 253 1347 l 313 1347 q 392 1317 365 1347 q 419 1240 419 1286 q 388 1149 419 1185 q 292 1114 356 1114 l 290 1114 m 653 1114 q 583 1147 610 1114 q 557 1221 557 1179 q 585 1313 557 1278 q 672 1347 614 1347 l 674 1347 q 754 1317 728 1347 q 781 1240 781 1286 q 749 1149 781 1185 q 653 1114 718 1114 z "},"Ạ":{"ha":982,"x_min":-26,"x_max":1001,"o":"m 364 1036 l 614 1036 l 925 106 l 1001 92 l 1001 0 l 564 0 l 564 92 l 663 106 l 615 272 l 283 272 l 236 104 l 344 92 l 344 0 l -25 0 l -26 92 l 54 107 l 364 1036 m 467 794 l 446 892 l 424 793 l 311 379 l 586 379 l 467 794 m 465 -311 q 385 -281 417 -311 q 353 -204 353 -250 q 387 -114 353 -150 q 479 -78 421 -78 q 566 -108 535 -78 q 597 -185 597 -139 q 563 -276 597 -240 q 467 -311 529 -311 l 465 -311 z "},"À":{"ha":982,"x_min":-26,"x_max":1001,"o":"m 364 1036 l 614 1036 l 925 106 l 1001 92 l 1001 0 l 564 0 l 564 92 l 663 106 l 615 272 l 283 272 l 236 104 l 344 92 l 344 0 l -25 0 l -26 92 l 54 107 l 364 1036 m 467 794 l 446 892 l 424 793 l 311 379 l 586 379 l 467 794 m 508 1100 q 381 1168 457 1118 q 264 1268 306 1218 l 411 1364 l 597 1161 l 508 1100 z "},"Ả":{"ha":982,"x_min":-26,"x_max":1001,"o":"m 364 1036 l 614 1036 l 925 106 l 1001 92 l 1001 0 l 564 0 l 564 92 l 663 106 l 615 272 l 283 272 l 236 104 l 344 92 l 344 0 l -25 0 l -26 92 l 54 107 l 364 1036 m 467 794 l 446 892 l 424 793 l 311 379 l 586 379 l 467 794 m 449 1078 q 426 1135 426 1103 q 434 1157 426 1149 q 458 1178 442 1165 q 483 1198 475 1189 q 492 1222 492 1207 q 475 1256 492 1246 q 418 1267 458 1267 q 382 1263 401 1267 q 351 1250 363 1258 l 347 1344 q 397 1360 368 1354 q 451 1365 426 1365 q 640 1253 640 1365 q 563 1151 640 1194 q 532 1103 532 1138 q 535 1078 532 1086 l 449 1078 z "},"Ā":{"ha":982,"x_min":-26,"x_max":1001,"o":"m 364 1036 l 614 1036 l 925 106 l 1001 92 l 1001 0 l 564 0 l 564 92 l 663 106 l 615 272 l 283 272 l 236 104 l 344 92 l 344 0 l -25 0 l -26 92 l 54 107 l 364 1036 m 467 794 l 446 892 l 424 793 l 311 379 l 586 379 l 467 794 m 714 1163 l 261 1163 l 261 1296 l 714 1296 l 714 1163 z "},"Ą":{"ha":979,"x_min":-26,"x_max":1001,"o":"m 364 1036 l 614 1036 l 925 106 l 1001 92 l 1001 0 l 949 0 q 842 -68 882 -25 q 801 -154 801 -111 q 828 -206 801 -187 q 901 -224 856 -224 q 988 -206 947 -224 l 988 -303 q 910 -335 960 -324 q 814 -347 860 -347 q 665 -310 726 -347 q 603 -210 603 -272 q 667 -88 603 -149 q 821 0 732 -28 l 564 0 l 564 92 l 663 106 l 615 272 l 283 272 l 236 104 l 344 92 l 344 0 l -25 0 l -26 92 l 54 107 l 364 1036 m 467 794 l 446 892 l 425 793 l 311 379 l 586 379 l 467 794 z "},"Å":{"ha":982,"x_min":-26,"x_max":1001,"o":"m -26 92 l 54 107 l 360 1024 q 269 1086 297 1043 q 243 1188 240 1129 q 312 1318 244 1271 q 489 1365 379 1365 q 672 1316 613 1365 q 732 1186 732 1267 q 701 1090 732 1131 q 617 1029 671 1049 l 925 106 l 1001 92 l 1001 0 l 564 0 l 564 92 l 663 106 l 615 272 l 283 272 l 236 104 l 344 92 l 344 0 l -25 0 l -26 92 m 378 1186 q 404 1113 378 1143 q 488 1083 431 1083 q 572 1108 547 1083 q 597 1178 597 1132 q 572 1256 597 1226 q 489 1285 546 1285 q 403 1260 429 1285 q 378 1186 378 1235 m 586 379 l 467 794 l 446 892 l 424 793 l 311 379 l 586 379 z "},"Ǻ":{"ha":982,"x_min":-26,"x_max":1001,"o":"m -26 92 l 54 107 l 343 963 q 271 1017 296 978 q 246 1110 246 1057 q 294 1215 246 1175 q 421 1261 342 1254 l 506 1364 l 664 1325 q 618 1280 635 1294 q 582 1257 601 1265 q 686 1209 643 1247 q 729 1110 729 1171 q 706 1015 729 1056 q 638 963 683 975 l 925 106 l 1001 92 l 1001 0 l 564 0 l 564 92 l 663 106 l 615 272 l 283 272 l 236 104 l 344 92 l 344 0 l -25 0 l -26 92 m 375 1108 q 405 1056 375 1079 q 488 1032 435 1032 q 572 1055 543 1032 q 600 1110 600 1078 q 571 1165 600 1142 q 486 1188 542 1188 q 403 1165 432 1188 q 375 1108 375 1142 m 586 379 l 467 794 l 446 892 l 424 793 l 311 379 l 586 379 z "},"Ã":{"ha":982,"x_min":-26,"x_max":1001,"o":"m 364 1036 l 614 1036 l 925 106 l 1001 92 l 1001 0 l 564 0 l 564 92 l 663 106 l 615 272 l 283 272 l 236 104 l 344 92 l 344 0 l -25 0 l -26 92 l 54 107 l 364 1036 m 467 794 l 446 892 l 424 793 l 311 379 l 586 379 l 467 794 m 586 1117 q 522 1130 547 1117 q 467 1169 497 1143 q 428 1199 444 1189 q 389 1208 411 1208 q 338 1187 357 1208 q 304 1125 318 1165 l 219 1178 q 285 1297 240 1254 q 393 1339 331 1339 q 460 1325 433 1339 q 517 1286 488 1311 q 558 1256 542 1265 q 594 1247 574 1247 q 642 1269 624 1247 q 675 1331 661 1290 l 761 1278 q 694 1158 739 1200 q 586 1117 650 1117 z "},"Æ":{"ha":1314,"x_min":-112,"x_max":1317,"o":"m 556 285 l 239 285 l 172 106 l 275 90 l 275 0 l -112 0 l -112 90 l -14 106 l 324 917 l 146 936 l 146 1032 l 1206 1032 l 1226 786 l 1117 786 l 1068 926 l 792 942 l 792 579 l 961 585 l 985 697 l 1081 697 l 1081 349 l 985 349 l 963 469 l 792 474 l 792 96 l 1097 115 l 1186 294 l 1317 258 l 1271 0 l 447 0 l 447 90 l 556 106 l 556 285 m 556 932 l 475 932 l 406 738 l 278 394 l 556 394 l 556 932 z "},"Ǽ":{"ha":1314,"x_min":-112,"x_max":1317,"o":"m 556 285 l 239 285 l 172 106 l 275 90 l 275 0 l -112 0 l -112 90 l -14 106 l 324 917 l 146 936 l 146 1032 l 1206 1032 l 1226 786 l 1117 786 l 1068 926 l 792 942 l 792 579 l 961 585 l 985 697 l 1081 697 l 1081 349 l 985 349 l 963 469 l 792 474 l 792 96 l 1097 115 l 1186 294 l 1317 258 l 1271 0 l 447 0 l 447 90 l 556 106 l 556 285 m 556 932 l 475 932 l 406 738 l 278 394 l 556 394 l 556 932 m 540 1161 l 719 1364 l 875 1268 q 754 1164 824 1211 q 639 1100 685 1117 l 540 1161 z "},"B":{"ha":996,"x_min":47,"x_max":956,"o":"m 154 915 l 50 935 l 50 1032 l 269 1032 q 394 1038 317 1032 q 436 1040 411 1039 q 494 1042 461 1042 q 732 1014 646 1042 q 852 935 818 986 q 886 806 886 883 q 822 633 886 701 q 657 551 757 565 q 876 489 796 551 q 956 313 956 426 q 853 78 956 164 q 507 -8 751 -8 q 432 -6 468 -8 q 381 -4 396 -4 q 272 0 331 0 l 47 0 l 47 92 l 154 107 l 154 915 m 389 586 q 501 583 414 583 q 614 635 578 583 q 650 782 650 688 q 611 910 650 869 q 485 950 572 950 q 436 948 464 950 q 389 943 408 946 l 389 586 m 389 99 q 499 88 417 88 q 648 142 601 88 q 694 299 694 196 q 651 438 694 396 q 515 479 608 479 q 389 476 439 479 l 389 99 z "},"Ḃ":{"ha":996,"x_min":47,"x_max":956,"o":"m 154 915 l 50 935 l 50 1032 l 269 1032 q 394 1038 317 1032 q 436 1040 411 1039 q 494 1042 461 1042 q 732 1014 646 1042 q 852 935 818 986 q 886 806 886 883 q 822 633 886 701 q 657 551 757 565 q 876 489 796 551 q 956 313 956 426 q 853 78 956 164 q 507 -8 751 -8 q 432 -6 468 -8 q 381 -4 396 -4 q 272 0 331 0 l 47 0 l 47 92 l 154 107 l 154 915 m 389 586 q 501 583 414 583 q 614 635 578 583 q 650 782 650 688 q 611 910 650 869 q 485 950 572 950 q 436 948 464 950 q 389 943 408 946 l 389 586 m 389 99 q 499 88 417 88 q 648 142 601 88 q 694 299 694 196 q 651 438 694 396 q 515 479 608 479 q 389 476 439 479 l 389 99 m 488 1124 q 406 1153 438 1124 q 374 1229 374 1183 q 407 1317 374 1285 q 501 1350 440 1350 q 591 1321 558 1350 q 624 1246 624 1292 q 590 1156 624 1189 q 488 1124 556 1124 z "},"Ḅ":{"ha":996,"x_min":47,"x_max":956,"o":"m 154 915 l 50 935 l 50 1032 l 269 1032 q 394 1038 317 1032 q 436 1040 411 1039 q 494 1042 461 1042 q 732 1014 646 1042 q 852 935 818 986 q 886 806 886 883 q 822 633 886 701 q 657 551 757 565 q 876 489 796 551 q 956 313 956 426 q 853 78 956 164 q 507 -8 751 -8 q 432 -6 468 -8 q 381 -4 396 -4 q 272 0 331 0 l 47 0 l 47 92 l 154 107 l 154 915 m 389 586 q 501 583 414 583 q 614 635 578 583 q 650 782 650 688 q 611 910 650 869 q 485 950 572 950 q 436 948 464 950 q 389 943 408 946 l 389 586 m 389 99 q 499 88 417 88 q 648 142 601 88 q 694 299 694 196 q 651 438 694 396 q 515 479 608 479 q 389 476 439 479 l 389 99 m 489 -311 q 408 -281 440 -311 q 376 -204 376 -250 q 410 -114 376 -150 q 503 -78 444 -78 q 590 -108 558 -78 q 621 -185 621 -139 q 587 -276 621 -240 q 490 -311 553 -311 l 489 -311 z "},"C":{"ha":919,"x_min":36,"x_max":876,"o":"m 526 -15 q 161 124 286 -15 q 36 507 36 264 q 103 792 36 671 q 286 978 169 914 q 550 1043 403 1043 q 663 1037 608 1043 q 793 1019 717 1031 q 875 1008 853 1010 l 858 699 l 710 699 l 663 911 q 535 944 632 944 q 366 838 428 944 q 304 526 304 732 q 365 206 304 326 q 540 85 425 85 q 627 96 597 85 q 678 128 657 107 l 740 276 l 876 264 l 851 38 q 753 17 811 35 q 648 -7 697 1 q 526 -15 599 -15 z "},"Ć":{"ha":919,"x_min":36,"x_max":876,"o":"m 526 -15 q 161 124 286 -15 q 36 507 36 264 q 103 792 36 671 q 286 978 169 914 q 550 1043 403 1043 q 663 1037 608 1043 q 793 1019 717 1031 q 875 1008 853 1010 l 858 699 l 710 699 l 663 911 q 535 944 632 944 q 366 838 428 944 q 304 526 304 732 q 365 206 304 326 q 540 85 425 85 q 627 96 597 85 q 678 128 657 107 l 740 276 l 876 264 l 851 38 q 753 17 811 35 q 648 -7 697 1 q 526 -15 599 -15 m 407 1161 l 586 1364 l 742 1268 q 621 1164 690 1211 q 506 1100 551 1117 l 407 1161 z "},"Č":{"ha":919,"x_min":36,"x_max":876,"o":"m 526 -15 q 161 124 286 -15 q 36 507 36 264 q 103 792 36 671 q 286 978 169 914 q 550 1043 403 1043 q 663 1037 608 1043 q 793 1019 717 1031 q 875 1008 853 1010 l 858 699 l 710 699 l 663 911 q 535 944 632 944 q 366 838 428 944 q 304 526 304 732 q 365 206 304 326 q 540 85 425 85 q 627 96 597 85 q 678 128 657 107 l 740 276 l 876 264 l 851 38 q 753 17 811 35 q 648 -7 697 1 q 526 -15 599 -15 m 526 1242 l 713 1365 l 786 1303 l 593 1110 l 460 1110 l 264 1304 l 340 1365 l 526 1242 z "},"Ç":{"ha":919,"x_min":36,"x_max":876,"o":"m 526 -15 q 161 124 286 -15 q 36 507 36 264 q 103 792 36 671 q 286 978 169 914 q 550 1043 403 1043 q 663 1037 608 1043 q 793 1019 717 1031 q 875 1008 853 1010 l 858 699 l 710 699 l 663 911 q 535 944 632 944 q 366 838 428 944 q 304 526 304 732 q 365 206 304 326 q 540 85 425 85 q 627 96 597 85 q 678 128 657 107 l 740 276 l 876 264 l 851 38 q 753 17 811 35 q 648 -7 697 1 q 526 -15 599 -15 m 446 -356 q 394 -350 422 -356 q 347 -336 365 -344 l 347 -208 q 406 -217 376 -217 q 480 -199 458 -217 q 501 -121 501 -181 q 487 -52 501 -87 q 457 4 472 -17 l 529 10 l 557 4 q 621 -77 589 -24 q 653 -189 653 -131 q 601 -319 653 -282 q 446 -356 550 -356 z "},"Ĉ":{"ha":919,"x_min":36,"x_max":876,"o":"m 526 -15 q 161 124 286 -15 q 36 507 36 264 q 103 792 36 671 q 286 978 169 914 q 550 1043 403 1043 q 663 1037 608 1043 q 793 1019 717 1031 q 875 1008 853 1010 l 858 699 l 710 699 l 663 911 q 535 944 632 944 q 366 838 428 944 q 304 526 304 732 q 365 206 304 326 q 540 85 425 85 q 627 96 597 85 q 678 128 657 107 l 740 276 l 876 264 l 851 38 q 753 17 811 35 q 648 -7 697 1 q 526 -15 599 -15 m 593 1361 l 801 1160 l 725 1096 l 526 1228 l 326 1096 l 251 1158 l 461 1361 l 593 1361 z "},"Ċ":{"ha":919,"x_min":36,"x_max":876,"o":"m 526 -15 q 161 124 286 -15 q 36 507 36 264 q 103 792 36 671 q 286 978 169 914 q 550 1043 403 1043 q 663 1037 608 1043 q 793 1019 717 1031 q 875 1008 853 1010 l 858 699 l 710 699 l 663 911 q 535 944 632 944 q 366 838 428 944 q 304 526 304 732 q 365 206 304 326 q 540 85 425 85 q 627 96 597 85 q 678 128 657 107 l 740 276 l 876 264 l 851 38 q 753 17 811 35 q 648 -7 697 1 q 526 -15 599 -15 m 514 1124 q 432 1153 464 1124 q 400 1229 400 1183 q 433 1317 400 1285 q 528 1350 467 1350 q 617 1321 585 1350 q 650 1246 650 1292 q 616 1156 650 1189 q 514 1124 582 1124 z "},"D":{"ha":1060,"x_min":47,"x_max":1022,"o":"m 154 915 l 53 935 l 53 1032 l 269 1032 q 393 1038 315 1032 q 448 1040 411 1039 q 514 1042 485 1042 q 894 915 767 1042 q 1022 553 1022 789 q 960 263 1022 390 q 781 62 897 135 q 506 -11 664 -11 q 376 -6 463 -11 q 272 0 296 0 l 47 0 l 47 92 l 154 107 l 154 915 m 389 103 q 500 90 438 88 q 694 197 625 92 q 763 518 763 301 q 695 831 763 718 q 483 944 628 944 q 424 940 450 944 q 389 935 397 936 l 389 103 z "},"Ǳ":{"ha":1969,"x_min":47,"x_max":1938,"o":"m 154 915 l 53 935 l 53 1032 l 269 1032 q 393 1038 315 1032 q 448 1040 411 1039 q 514 1042 485 1042 q 894 915 767 1042 q 1022 553 1022 789 q 960 263 1022 390 q 781 62 897 135 q 506 -11 664 -11 q 376 -6 463 -11 q 272 0 296 0 l 47 0 l 47 92 l 154 107 l 154 915 m 389 103 q 500 90 438 88 q 694 197 625 92 q 763 518 763 301 q 695 831 763 718 q 483 944 628 944 q 424 940 450 944 q 389 935 397 936 l 389 103 m 1663 947 l 1332 926 l 1254 736 l 1135 753 l 1169 1035 l 1892 1035 l 1926 953 l 1439 183 l 1342 93 l 1738 122 l 1818 336 l 1938 311 l 1907 0 l 1126 0 l 1081 81 l 1579 853 l 1663 947 z "},"Ǆ":{"ha":1969,"x_min":47,"x_max":1938,"o":"m 154 915 l 53 935 l 53 1032 l 269 1032 q 393 1038 315 1032 q 448 1040 411 1039 q 514 1042 485 1042 q 894 915 767 1042 q 1022 553 1022 789 q 960 263 1022 390 q 781 62 897 135 q 506 -11 664 -11 q 376 -6 463 -11 q 272 0 296 0 l 47 0 l 47 92 l 154 107 l 154 915 m 389 103 q 500 90 438 88 q 694 197 625 92 q 763 518 763 301 q 695 831 763 718 q 483 944 628 944 q 424 940 450 944 q 389 935 397 936 l 389 103 m 1663 947 l 1332 926 l 1254 736 l 1135 753 l 1169 1035 l 1892 1035 l 1926 953 l 1439 183 l 1342 93 l 1738 122 l 1818 336 l 1938 311 l 1907 0 l 1126 0 l 1081 81 l 1579 853 l 1663 947 m 1572 1242 l 1758 1365 l 1832 1303 l 1639 1110 l 1506 1110 l 1310 1304 l 1386 1365 l 1572 1242 z "},"Ð":{"ha":1060,"x_min":47,"x_max":1022,"o":"m 154 915 l 53 935 l 53 1032 l 269 1032 q 393 1038 315 1032 q 448 1040 411 1039 q 514 1042 485 1042 q 894 915 767 1042 q 1022 553 1022 789 q 960 263 1022 390 q 781 62 897 135 q 506 -11 664 -11 q 376 -6 463 -11 q 272 0 296 0 l 47 0 l 47 92 l 154 107 l 154 486 l 58 486 l 58 582 l 154 582 l 154 915 m 582 486 l 389 486 l 389 103 q 500 90 438 88 q 694 197 625 92 q 763 518 763 301 q 695 831 763 718 q 483 944 628 944 q 424 940 450 944 q 389 935 397 936 l 389 582 l 582 582 l 582 486 z "},"Ď":{"ha":1060,"x_min":47,"x_max":1022,"o":"m 154 915 l 53 935 l 53 1032 l 269 1032 q 393 1038 315 1032 q 448 1040 411 1039 q 514 1042 485 1042 q 894 915 767 1042 q 1022 553 1022 789 q 960 263 1022 390 q 781 62 897 135 q 506 -11 664 -11 q 376 -6 463 -11 q 272 0 296 0 l 47 0 l 47 92 l 154 107 l 154 915 m 389 103 q 500 90 438 88 q 694 197 625 92 q 763 518 763 301 q 695 831 763 718 q 483 944 628 944 q 424 940 450 944 q 389 935 397 936 l 389 103 m 532 1242 l 718 1365 l 792 1303 l 599 1110 l 465 1110 l 269 1304 l 346 1365 l 532 1242 z "},"Đ":{"ha":1060,"x_min":47,"x_max":1022,"o":"m 154 915 l 53 935 l 53 1032 l 269 1032 q 393 1038 315 1032 q 448 1040 411 1039 q 514 1042 485 1042 q 894 915 767 1042 q 1022 553 1022 789 q 960 263 1022 390 q 781 62 897 135 q 506 -11 664 -11 q 376 -6 463 -11 q 272 0 296 0 l 47 0 l 47 92 l 154 107 l 154 486 l 58 486 l 58 582 l 154 582 l 154 915 m 582 486 l 389 486 l 389 103 q 500 90 438 88 q 694 197 625 92 q 763 518 763 301 q 695 831 763 718 q 483 944 628 944 q 424 940 450 944 q 389 935 397 936 l 389 582 l 582 582 l 582 486 z "},"Ḋ":{"ha":1060,"x_min":47,"x_max":1022,"o":"m 154 915 l 53 935 l 53 1032 l 269 1032 q 393 1038 315 1032 q 448 1040 411 1039 q 514 1042 485 1042 q 894 915 767 1042 q 1022 553 1022 789 q 960 263 1022 390 q 781 62 897 135 q 506 -11 664 -11 q 376 -6 463 -11 q 272 0 296 0 l 47 0 l 47 92 l 154 107 l 154 915 m 389 103 q 500 90 438 88 q 694 197 625 92 q 763 518 763 301 q 695 831 763 718 q 483 944 628 944 q 424 940 450 944 q 389 935 397 936 l 389 103 m 519 1124 q 438 1153 469 1124 q 406 1229 406 1183 q 439 1317 406 1285 q 533 1350 472 1350 q 623 1321 590 1350 q 656 1246 656 1292 q 622 1156 656 1189 q 519 1124 588 1124 z "},"Ḍ":{"ha":1060,"x_min":47,"x_max":1022,"o":"m 154 915 l 53 935 l 53 1032 l 269 1032 q 393 1038 315 1032 q 448 1040 411 1039 q 514 1042 485 1042 q 894 915 767 1042 q 1022 553 1022 789 q 960 263 1022 390 q 781 62 897 135 q 506 -11 664 -11 q 376 -6 463 -11 q 272 0 296 0 l 47 0 l 47 92 l 154 107 l 154 915 m 389 103 q 500 90 438 88 q 694 197 625 92 q 763 518 763 301 q 695 831 763 718 q 483 944 628 944 q 424 940 450 944 q 389 935 397 936 l 389 103 m 521 -311 q 440 -281 472 -311 q 408 -204 408 -250 q 442 -114 408 -150 q 535 -78 476 -78 q 622 -108 590 -78 q 653 -185 653 -139 q 619 -276 653 -240 q 522 -311 585 -311 l 521 -311 z "},"ǲ":{"ha":1839,"x_min":47,"x_max":1803,"o":"m 154 915 l 53 935 l 53 1032 l 269 1032 q 393 1038 315 1032 q 448 1040 411 1039 q 514 1042 485 1042 q 894 915 767 1042 q 1022 553 1022 789 q 960 263 1022 390 q 781 62 897 135 q 506 -11 664 -11 q 376 -6 463 -11 q 272 0 296 0 l 47 0 l 47 92 l 154 107 l 154 915 m 389 103 q 500 90 438 88 q 694 197 625 92 q 763 518 763 301 q 695 831 763 718 q 483 944 628 944 q 424 940 450 944 q 389 935 397 936 l 389 103 m 1283 665 l 1246 528 l 1136 528 l 1136 772 l 1763 772 l 1799 692 l 1453 201 l 1353 94 l 1628 110 l 1699 272 l 1803 260 l 1781 0 l 1124 0 l 1085 85 l 1442 563 l 1547 676 l 1283 665 z "},"ǅ":{"ha":1839,"x_min":47,"x_max":1803,"o":"m 154 915 l 53 935 l 53 1032 l 269 1032 q 393 1038 315 1032 q 448 1040 411 1039 q 514 1042 485 1042 q 894 915 767 1042 q 1022 553 1022 789 q 960 263 1022 390 q 781 62 897 135 q 506 -11 664 -11 q 376 -6 463 -11 q 272 0 296 0 l 47 0 l 47 92 l 154 107 l 154 915 m 389 103 q 500 90 438 88 q 694 197 625 92 q 763 518 763 301 q 695 831 763 718 q 483 944 628 944 q 424 940 450 944 q 389 935 397 936 l 389 103 m 1283 665 l 1246 528 l 1136 528 l 1136 772 l 1763 772 l 1799 692 l 1453 201 l 1353 94 l 1628 110 l 1699 272 l 1803 260 l 1781 0 l 1124 0 l 1085 85 l 1442 563 l 1547 676 l 1283 665 m 1471 1036 l 1675 1215 l 1749 1153 l 1535 881 l 1407 881 l 1196 1153 l 1269 1214 l 1471 1036 z "},"E":{"ha":913,"x_min":46,"x_max":899,"o":"m 154 915 l 46 935 l 46 1032 l 806 1032 l 824 786 l 714 786 l 665 926 l 392 940 l 392 579 l 561 583 l 586 697 l 682 697 l 682 349 l 586 349 l 563 469 l 392 474 l 392 96 l 696 115 l 781 294 l 899 261 l 865 0 l 47 0 l 47 92 l 154 106 l 154 915 z "},"É":{"ha":913,"x_min":46,"x_max":899,"o":"m 154 915 l 46 935 l 46 1032 l 806 1032 l 824 786 l 714 786 l 665 926 l 392 940 l 392 579 l 561 583 l 586 697 l 682 697 l 682 349 l 586 349 l 563 469 l 392 474 l 392 96 l 696 115 l 781 294 l 899 261 l 865 0 l 47 0 l 47 92 l 154 106 l 154 915 m 356 1161 l 535 1364 l 690 1268 q 569 1164 639 1211 q 454 1100 500 1117 l 356 1161 z "},"Ĕ":{"ha":913,"x_min":46,"x_max":899,"o":"m 154 915 l 46 935 l 46 1032 l 806 1032 l 824 786 l 714 786 l 665 926 l 392 940 l 392 579 l 561 583 l 586 697 l 682 697 l 682 349 l 586 349 l 563 469 l 392 474 l 392 96 l 696 115 l 781 294 l 899 261 l 865 0 l 47 0 l 47 92 l 154 106 l 154 915 m 472 1103 q 328 1133 388 1103 q 240 1216 269 1164 q 211 1329 211 1268 q 213 1360 211 1350 l 322 1360 q 324 1344 322 1351 q 474 1243 349 1243 q 622 1344 597 1243 q 624 1360 624 1351 l 735 1360 q 736 1331 736 1350 q 705 1217 736 1269 q 614 1134 674 1165 q 472 1103 554 1103 z "},"Ě":{"ha":913,"x_min":46,"x_max":899,"o":"m 154 915 l 46 935 l 46 1032 l 806 1032 l 824 786 l 714 786 l 665 926 l 392 940 l 392 579 l 561 583 l 586 697 l 682 697 l 682 349 l 586 349 l 563 469 l 392 474 l 392 96 l 696 115 l 781 294 l 899 261 l 865 0 l 47 0 l 47 92 l 154 106 l 154 915 m 475 1242 l 661 1365 l 735 1303 l 542 1110 l 408 1110 l 213 1304 l 289 1365 l 475 1242 z "},"Ȩ":{"ha":913,"x_min":46,"x_max":899,"o":"m 397 -356 q 345 -350 374 -356 q 299 -336 317 -344 l 299 -208 q 357 -217 328 -217 q 431 -199 410 -217 q 453 -121 453 -181 q 440 -56 453 -89 q 411 0 426 -22 l 47 0 l 47 92 l 154 106 l 154 915 l 46 935 l 46 1032 l 806 1032 l 824 786 l 714 786 l 665 926 l 392 940 l 392 579 l 561 583 l 586 697 l 682 697 l 682 349 l 586 349 l 563 469 l 392 474 l 392 96 l 696 115 l 781 294 l 899 261 l 865 0 l 513 0 q 575 -83 546 -32 q 604 -189 604 -133 q 553 -319 604 -282 q 397 -356 501 -356 z "},"Ê":{"ha":913,"x_min":46,"x_max":899,"o":"m 154 915 l 46 935 l 46 1032 l 806 1032 l 824 786 l 714 786 l 665 926 l 392 940 l 392 579 l 561 583 l 586 697 l 682 697 l 682 349 l 586 349 l 563 469 l 392 474 l 392 96 l 696 115 l 781 294 l 899 261 l 865 0 l 47 0 l 47 92 l 154 106 l 154 915 m 542 1361 l 750 1160 l 674 1096 l 475 1228 l 275 1096 l 200 1158 l 410 1361 l 542 1361 z "},"Ế":{"ha":913,"x_min":46,"x_max":925,"o":"m 154 915 l 46 935 l 46 1032 l 806 1032 l 824 786 l 714 786 l 665 926 l 392 940 l 392 579 l 561 583 l 586 697 l 682 697 l 682 349 l 586 349 l 563 469 l 392 474 l 392 96 l 696 115 l 781 294 l 899 261 l 865 0 l 47 0 l 47 92 l 154 106 l 154 915 m 703 1224 l 831 1365 l 925 1286 q 862 1220 903 1254 q 768 1158 821 1186 l 703 1224 m 539 1336 l 722 1129 l 661 1071 l 474 1211 l 283 1069 l 224 1129 l 408 1336 l 539 1336 z "},"Ệ":{"ha":913,"x_min":46,"x_max":899,"o":"m 154 915 l 46 935 l 46 1032 l 806 1032 l 824 786 l 714 786 l 665 926 l 392 940 l 392 579 l 561 583 l 586 697 l 682 697 l 682 349 l 586 349 l 563 469 l 392 474 l 392 96 l 696 115 l 781 294 l 899 261 l 865 0 l 47 0 l 47 92 l 154 106 l 154 915 m 447 -311 q 367 -281 399 -311 q 335 -204 335 -250 q 369 -114 335 -150 q 461 -78 403 -78 q 548 -108 517 -78 q 579 -185 579 -139 q 545 -276 579 -240 q 449 -311 511 -311 l 447 -311 m 542 1361 l 750 1160 l 674 1096 l 475 1228 l 275 1096 l 200 1158 l 410 1361 l 542 1361 z "},"Ề":{"ha":913,"x_min":46,"x_max":907,"o":"m 154 915 l 46 935 l 46 1032 l 806 1032 l 824 786 l 714 786 l 665 926 l 392 940 l 392 579 l 561 583 l 586 697 l 682 697 l 682 349 l 586 349 l 563 469 l 392 474 l 392 96 l 696 115 l 781 294 l 899 261 l 865 0 l 47 0 l 47 92 l 154 106 l 154 915 m 836 1158 q 742 1223 782 1189 q 681 1288 701 1257 l 775 1365 l 907 1224 l 836 1158 m 539 1307 l 722 1122 l 661 1064 l 474 1186 l 283 1063 l 224 1122 l 408 1307 l 539 1307 z "},"Ể":{"ha":913,"x_min":46,"x_max":933,"o":"m 154 915 l 46 935 l 46 1032 l 806 1032 l 824 786 l 714 786 l 665 926 l 392 940 l 392 579 l 561 583 l 586 697 l 682 697 l 682 349 l 586 349 l 563 469 l 392 474 l 392 96 l 696 115 l 781 294 l 899 261 l 865 0 l 47 0 l 47 92 l 154 106 l 154 915 m 783 1082 q 761 1133 761 1113 q 769 1161 761 1151 q 793 1185 776 1171 q 817 1208 808 1196 q 825 1236 825 1219 q 813 1266 825 1254 q 772 1279 800 1278 q 710 1265 738 1279 l 706 1356 q 737 1363 708 1360 q 783 1365 765 1365 q 894 1340 854 1365 q 933 1258 933 1315 q 920 1202 933 1222 q 888 1165 907 1182 q 860 1139 869 1149 q 847 1111 847 1126 q 850 1096 847 1107 l 783 1082 m 539 1307 l 722 1122 l 661 1064 l 474 1186 l 283 1063 l 224 1122 l 408 1307 l 539 1307 z "},"Ễ":{"ha":913,"x_min":46,"x_max":899,"o":"m 154 915 l 46 935 l 46 1032 l 806 1032 l 824 786 l 714 786 l 665 926 l 392 940 l 392 579 l 561 583 l 586 697 l 682 697 l 682 349 l 586 349 l 563 469 l 392 474 l 392 96 l 696 115 l 781 294 l 899 261 l 865 0 l 47 0 l 47 92 l 154 106 l 154 915 m 271 1342 q 288 1395 272 1367 q 333 1443 304 1424 q 401 1463 363 1463 q 455 1451 431 1463 q 513 1418 479 1440 q 556 1392 540 1400 q 590 1385 572 1385 q 636 1395 622 1385 q 671 1435 650 1406 l 718 1401 q 672 1319 710 1353 q 576 1286 635 1286 q 524 1297 547 1286 q 469 1329 500 1308 q 427 1356 444 1347 q 392 1364 410 1364 q 353 1350 369 1364 q 317 1310 336 1336 l 271 1342 m 539 1251 l 724 1124 l 675 1064 l 474 1149 l 268 1063 l 224 1124 l 408 1251 l 539 1251 z "},"Ë":{"ha":913,"x_min":46,"x_max":899,"o":"m 154 915 l 46 935 l 46 1032 l 806 1032 l 824 786 l 714 786 l 665 926 l 392 940 l 392 579 l 561 583 l 586 697 l 682 697 l 682 349 l 586 349 l 563 469 l 392 474 l 392 96 l 696 115 l 781 294 l 899 261 l 865 0 l 47 0 l 47 92 l 154 106 l 154 915 m 276 1114 q 207 1145 233 1114 q 181 1221 181 1176 q 210 1313 181 1278 q 297 1347 239 1347 l 299 1347 q 378 1317 351 1347 q 406 1240 406 1286 q 374 1149 406 1185 q 278 1114 342 1114 l 276 1114 m 639 1114 q 569 1147 596 1114 q 543 1221 543 1179 q 572 1313 543 1278 q 658 1347 600 1347 l 660 1347 q 740 1317 714 1347 q 767 1240 767 1286 q 735 1149 767 1185 q 639 1114 704 1114 z "},"Ė":{"ha":913,"x_min":46,"x_max":899,"o":"m 154 915 l 46 935 l 46 1032 l 806 1032 l 824 786 l 714 786 l 665 926 l 392 940 l 392 579 l 561 583 l 586 697 l 682 697 l 682 349 l 586 349 l 563 469 l 392 474 l 392 96 l 696 115 l 781 294 l 899 261 l 865 0 l 47 0 l 47 92 l 154 106 l 154 915 m 463 1124 q 381 1153 413 1124 q 349 1229 349 1183 q 382 1317 349 1285 q 476 1350 415 1350 q 566 1321 533 1350 q 599 1246 599 1292 q 565 1156 599 1189 q 463 1124 531 1124 z "},"Ẹ":{"ha":913,"x_min":46,"x_max":899,"o":"m 154 915 l 46 935 l 46 1032 l 806 1032 l 824 786 l 714 786 l 665 926 l 392 940 l 392 579 l 561 583 l 586 697 l 682 697 l 682 349 l 586 349 l 563 469 l 392 474 l 392 96 l 696 115 l 781 294 l 899 261 l 865 0 l 47 0 l 47 92 l 154 106 l 154 915 m 447 -311 q 367 -281 399 -311 q 335 -204 335 -250 q 369 -114 335 -150 q 461 -78 403 -78 q 548 -108 517 -78 q 579 -185 579 -139 q 545 -276 579 -240 q 449 -311 511 -311 l 447 -311 z "},"È":{"ha":913,"x_min":46,"x_max":899,"o":"m 154 915 l 46 935 l 46 1032 l 806 1032 l 824 786 l 714 786 l 665 926 l 392 940 l 392 579 l 561 583 l 586 697 l 682 697 l 682 349 l 586 349 l 563 469 l 392 474 l 392 96 l 696 115 l 781 294 l 899 261 l 865 0 l 47 0 l 47 92 l 154 106 l 154 915 m 494 1100 q 367 1168 443 1118 q 250 1268 292 1218 l 397 1364 l 583 1161 l 494 1100 z "},"Ẻ":{"ha":913,"x_min":46,"x_max":899,"o":"m 154 915 l 46 935 l 46 1032 l 806 1032 l 824 786 l 714 786 l 665 926 l 392 940 l 392 579 l 561 583 l 586 697 l 682 697 l 682 349 l 586 349 l 563 469 l 392 474 l 392 96 l 696 115 l 781 294 l 899 261 l 865 0 l 47 0 l 47 92 l 154 106 l 154 915 m 435 1078 q 413 1135 413 1103 q 420 1157 413 1149 q 444 1178 428 1165 q 469 1198 461 1189 q 478 1222 478 1207 q 461 1256 478 1246 q 404 1267 444 1267 q 368 1263 388 1267 q 338 1250 349 1258 l 333 1344 q 383 1360 354 1354 q 438 1365 413 1365 q 626 1253 626 1365 q 549 1151 626 1194 q 518 1103 518 1138 q 521 1078 518 1086 l 435 1078 z "},"Ē":{"ha":913,"x_min":46,"x_max":899,"o":"m 154 915 l 46 935 l 46 1032 l 806 1032 l 824 786 l 714 786 l 665 926 l 392 940 l 392 579 l 561 583 l 586 697 l 682 697 l 682 349 l 586 349 l 563 469 l 392 474 l 392 96 l 696 115 l 781 294 l 899 261 l 865 0 l 47 0 l 47 92 l 154 106 l 154 915 m 700 1163 l 247 1163 l 247 1296 l 700 1296 l 700 1163 z "},"Ę":{"ha":913,"x_min":46,"x_max":899,"o":"m 154 915 l 46 935 l 46 1032 l 806 1032 l 824 786 l 714 786 l 665 926 l 392 940 l 392 579 l 561 583 l 586 697 l 682 697 l 682 349 l 586 349 l 563 469 l 392 474 l 392 96 l 696 115 l 781 294 l 899 261 l 865 0 l 853 0 q 769 -37 808 -11 q 707 -94 731 -62 q 683 -150 683 -125 q 707 -204 683 -185 q 772 -224 731 -224 q 815 -219 797 -224 q 856 -206 833 -215 l 856 -303 q 780 -335 828 -324 q 686 -347 732 -347 q 550 -310 600 -347 q 500 -210 500 -274 q 554 -90 500 -147 q 703 0 608 -33 l 47 0 l 47 92 l 154 106 l 154 915 z "},"Ẽ":{"ha":913,"x_min":46,"x_max":899,"o":"m 154 915 l 46 935 l 46 1032 l 806 1032 l 824 786 l 714 786 l 665 926 l 392 940 l 392 579 l 561 583 l 586 697 l 682 697 l 682 349 l 586 349 l 563 469 l 392 474 l 392 96 l 696 115 l 781 294 l 899 261 l 865 0 l 47 0 l 47 92 l 154 106 l 154 915 m 572 1117 q 508 1130 533 1117 q 453 1169 483 1143 q 414 1199 431 1189 q 375 1208 397 1208 q 324 1187 343 1208 q 290 1125 304 1165 l 206 1178 q 272 1297 226 1254 q 379 1339 317 1339 q 447 1325 419 1339 q 503 1286 474 1311 q 544 1256 528 1265 q 581 1247 560 1247 q 628 1269 610 1247 q 661 1331 647 1290 l 747 1278 q 681 1158 725 1200 q 572 1117 636 1117 z "},"F":{"ha":867,"x_min":43,"x_max":839,"o":"m 154 915 l 43 935 l 43 1032 l 824 1032 l 839 772 l 714 772 l 658 924 l 392 940 l 392 556 l 574 560 l 601 685 l 699 685 l 699 314 l 603 314 l 574 443 l 392 449 l 392 107 l 604 92 l 604 0 l 50 0 l 50 92 l 154 107 l 154 915 z "},"Ḟ":{"ha":867,"x_min":43,"x_max":839,"o":"m 154 915 l 43 935 l 43 1032 l 824 1032 l 839 772 l 714 772 l 658 924 l 392 940 l 392 556 l 574 560 l 601 685 l 699 685 l 699 314 l 603 314 l 574 443 l 392 449 l 392 107 l 604 92 l 604 0 l 50 0 l 50 92 l 154 107 l 154 915 m 454 1124 q 372 1153 404 1124 q 340 1229 340 1183 q 374 1317 340 1285 q 468 1350 407 1350 q 558 1321 525 1350 q 590 1246 590 1292 q 556 1156 590 1189 q 454 1124 522 1124 z "},"G":{"ha":1038,"x_min":42,"x_max":1011,"o":"m 533 -15 q 267 53 378 -15 q 99 239 156 121 q 42 507 42 357 q 107 800 42 679 q 294 983 172 921 q 582 1044 415 1044 q 772 1031 678 1044 q 932 1001 867 1017 l 915 733 l 749 733 l 710 917 q 665 941 697 931 q 576 951 632 951 q 385 842 453 951 q 317 526 317 733 q 374 201 317 321 q 554 81 432 81 q 645 94 604 81 q 707 128 686 107 l 707 418 l 578 432 l 578 533 l 1011 533 l 1011 432 l 942 421 l 942 56 q 832 33 918 54 q 679 -2 747 11 q 533 -15 611 -15 z "},"Ǵ":{"ha":1038,"x_min":42,"x_max":1011,"o":"m 533 -15 q 267 53 378 -15 q 99 239 156 121 q 42 507 42 357 q 107 800 42 679 q 294 983 172 921 q 582 1044 415 1044 q 772 1031 678 1044 q 932 1001 867 1017 l 915 733 l 749 733 l 710 917 q 665 941 697 931 q 576 951 632 951 q 385 842 453 951 q 317 526 317 733 q 374 201 317 321 q 554 81 432 81 q 645 94 604 81 q 707 128 686 107 l 707 418 l 578 432 l 578 533 l 1011 533 l 1011 432 l 942 421 l 942 56 q 832 33 918 54 q 679 -2 747 11 q 533 -15 611 -15 m 442 1161 l 621 1364 l 776 1268 q 656 1164 725 1211 q 540 1100 586 1117 l 442 1161 z "},"Ğ":{"ha":1038,"x_min":42,"x_max":1011,"o":"m 533 -15 q 267 53 378 -15 q 99 239 156 121 q 42 507 42 357 q 107 800 42 679 q 294 983 172 921 q 582 1044 415 1044 q 772 1031 678 1044 q 932 1001 867 1017 l 915 733 l 749 733 l 710 917 q 665 941 697 931 q 576 951 632 951 q 385 842 453 951 q 317 526 317 733 q 374 201 317 321 q 554 81 432 81 q 645 94 604 81 q 707 128 686 107 l 707 418 l 578 432 l 578 533 l 1011 533 l 1011 432 l 942 421 l 942 56 q 832 33 918 54 q 679 -2 747 11 q 533 -15 611 -15 m 558 1103 q 415 1133 474 1103 q 326 1216 356 1164 q 297 1329 297 1268 q 299 1360 297 1350 l 408 1360 q 410 1344 408 1351 q 560 1243 435 1243 q 708 1344 683 1243 q 710 1360 710 1351 l 821 1360 q 822 1331 822 1350 q 791 1217 822 1269 q 700 1134 760 1165 q 558 1103 640 1103 z "},"Ǧ":{"ha":1038,"x_min":42,"x_max":1011,"o":"m 533 -15 q 267 53 378 -15 q 99 239 156 121 q 42 507 42 357 q 107 800 42 679 q 294 983 172 921 q 582 1044 415 1044 q 772 1031 678 1044 q 932 1001 867 1017 l 915 733 l 749 733 l 710 917 q 665 941 697 931 q 576 951 632 951 q 385 842 453 951 q 317 526 317 733 q 374 201 317 321 q 554 81 432 81 q 645 94 604 81 q 707 128 686 107 l 707 418 l 578 432 l 578 533 l 1011 533 l 1011 432 l 942 421 l 942 56 q 832 33 918 54 q 679 -2 747 11 q 533 -15 611 -15 m 561 1242 l 747 1365 l 821 1303 l 628 1110 l 494 1110 l 299 1304 l 375 1365 l 561 1242 z "},"Ĝ":{"ha":1038,"x_min":42,"x_max":1011,"o":"m 533 -15 q 267 53 378 -15 q 99 239 156 121 q 42 507 42 357 q 107 800 42 679 q 294 983 172 921 q 582 1044 415 1044 q 772 1031 678 1044 q 932 1001 867 1017 l 915 733 l 749 733 l 710 917 q 665 941 697 931 q 576 951 632 951 q 385 842 453 951 q 317 526 317 733 q 374 201 317 321 q 554 81 432 81 q 645 94 604 81 q 707 128 686 107 l 707 418 l 578 432 l 578 533 l 1011 533 l 1011 432 l 942 421 l 942 56 q 832 33 918 54 q 679 -2 747 11 q 533 -15 611 -15 m 628 1361 l 836 1160 l 760 1096 l 561 1228 l 361 1096 l 286 1158 l 496 1361 l 628 1361 z "},"Ģ":{"ha":1038,"x_min":42,"x_max":1011,"o":"m 533 -15 q 267 53 378 -15 q 99 239 156 121 q 42 507 42 357 q 107 800 42 679 q 294 983 172 921 q 582 1044 415 1044 q 772 1031 678 1044 q 932 1001 867 1017 l 915 733 l 749 733 l 710 917 q 665 941 697 931 q 576 951 632 951 q 385 842 453 951 q 317 526 317 733 q 374 201 317 321 q 554 81 432 81 q 645 94 604 81 q 707 128 686 107 l 707 418 l 578 432 l 578 533 l 1011 533 l 1011 432 l 942 421 l 942 56 q 832 33 918 54 q 679 -2 747 11 q 533 -15 611 -15 m 631 -174 q 609 -265 631 -221 q 560 -341 588 -310 q 513 -379 532 -372 l 511 -379 l 439 -358 l 436 -349 q 460 -315 451 -342 q 469 -261 469 -289 q 444 -212 469 -232 q 413 -147 413 -189 q 445 -83 413 -103 q 518 -64 478 -64 l 522 -64 q 601 -92 571 -64 q 631 -174 631 -121 z "},"Ġ":{"ha":1038,"x_min":42,"x_max":1011,"o":"m 533 -15 q 267 53 378 -15 q 99 239 156 121 q 42 507 42 357 q 107 800 42 679 q 294 983 172 921 q 582 1044 415 1044 q 772 1031 678 1044 q 932 1001 867 1017 l 915 733 l 749 733 l 710 917 q 665 941 697 931 q 576 951 632 951 q 385 842 453 951 q 317 526 317 733 q 374 201 317 321 q 554 81 432 81 q 645 94 604 81 q 707 128 686 107 l 707 418 l 578 432 l 578 533 l 1011 533 l 1011 432 l 942 421 l 942 56 q 832 33 918 54 q 679 -2 747 11 q 533 -15 611 -15 m 549 1124 q 467 1153 499 1124 q 435 1229 435 1183 q 468 1317 435 1285 q 563 1350 501 1350 q 652 1321 619 1350 q 685 1246 685 1292 q 651 1156 685 1189 q 549 1124 617 1124 z "},"Ḡ":{"ha":1038,"x_min":42,"x_max":1011,"o":"m 533 -15 q 267 53 378 -15 q 99 239 156 121 q 42 507 42 357 q 107 800 42 679 q 294 983 172 921 q 582 1044 415 1044 q 772 1031 678 1044 q 932 1001 867 1017 l 915 733 l 749 733 l 710 917 q 665 941 697 931 q 576 951 632 951 q 385 842 453 951 q 317 526 317 733 q 374 201 317 321 q 554 81 432 81 q 645 94 604 81 q 707 128 686 107 l 707 418 l 578 432 l 578 533 l 1011 533 l 1011 432 l 942 421 l 942 56 q 832 33 918 54 q 679 -2 747 11 q 533 -15 611 -15 m 786 1163 l 333 1163 l 333 1296 l 786 1296 l 786 1163 z "},"H":{"ha":1165,"x_min":53,"x_max":1113,"o":"m 156 917 l 56 935 l 56 1032 l 506 1032 l 506 935 l 392 917 l 392 585 l 772 585 l 772 915 l 668 935 l 668 1032 l 1113 1032 l 1113 935 l 1010 917 l 1010 106 l 1113 92 l 1113 0 l 668 0 l 668 92 l 772 107 l 772 467 l 392 467 l 392 106 l 506 92 l 506 0 l 53 0 l 53 92 l 156 106 l 156 917 z "},"Ħ":{"ha":1165,"x_min":36,"x_max":1144,"o":"m 156 917 l 56 935 l 56 1032 l 506 1032 l 506 935 l 392 917 l 392 769 l 774 769 l 774 915 l 668 935 l 668 1032 l 1113 1032 l 1113 935 l 1010 917 l 1010 769 l 1144 769 l 1144 681 l 1010 681 l 1010 107 l 1113 92 l 1113 0 l 667 0 l 667 92 l 772 107 l 774 399 l 392 399 l 390 107 l 506 92 l 506 0 l 53 0 l 53 92 l 156 106 l 156 681 l 36 681 l 36 769 l 156 769 l 156 917 m 392 681 l 392 515 l 774 515 l 774 681 l 392 681 z "},"Ĥ":{"ha":1165,"x_min":53,"x_max":1113,"o":"m 156 917 l 56 935 l 56 1032 l 506 1032 l 506 935 l 392 917 l 392 585 l 772 585 l 772 915 l 668 935 l 668 1032 l 1113 1032 l 1113 935 l 1010 917 l 1010 106 l 1113 92 l 1113 0 l 668 0 l 668 92 l 772 107 l 772 467 l 392 467 l 392 106 l 506 92 l 506 0 l 53 0 l 53 92 l 156 106 l 156 917 m 658 1361 l 867 1160 l 790 1096 l 592 1228 l 392 1096 l 317 1158 l 526 1361 l 658 1361 z "},"Ḥ":{"ha":1165,"x_min":53,"x_max":1113,"o":"m 156 917 l 56 935 l 56 1032 l 506 1032 l 506 935 l 392 917 l 392 585 l 772 585 l 772 915 l 668 935 l 668 1032 l 1113 1032 l 1113 935 l 1010 917 l 1010 106 l 1113 92 l 1113 0 l 668 0 l 668 92 l 772 107 l 772 467 l 392 467 l 392 106 l 506 92 l 506 0 l 53 0 l 53 92 l 156 106 l 156 917 m 578 -311 q 497 -281 529 -311 q 465 -204 465 -250 q 499 -114 465 -150 q 592 -78 533 -78 q 678 -108 647 -78 q 710 -185 710 -139 q 676 -276 710 -240 q 579 -311 642 -311 l 578 -311 z "},"I":{"ha":579,"x_min":56,"x_max":524,"o":"m 169 915 l 56 935 l 56 1032 l 524 1032 l 524 935 l 407 915 l 407 106 l 524 90 l 524 0 l 57 0 l 57 92 l 169 107 l 169 915 z "},"Ĳ":{"ha":1131,"x_min":56,"x_max":1100,"o":"m 169 915 l 56 935 l 56 1032 l 524 1032 l 524 935 l 407 915 l 407 106 l 524 90 l 524 0 l 57 0 l 57 92 l 169 107 l 169 915 m 554 -189 q 654 -124 607 -171 q 725 -8 701 -78 q 746 98 739 36 q 753 265 753 160 l 753 915 l 635 935 l 635 1032 l 1100 1032 l 1100 935 l 990 917 l 990 382 q 986 153 990 240 q 969 19 982 65 q 844 -169 938 -93 q 607 -269 751 -246 l 554 -189 z "},"Í":{"ha":579,"x_min":56,"x_max":524,"o":"m 169 915 l 56 935 l 56 1032 l 524 1032 l 524 935 l 407 915 l 407 106 l 524 90 l 524 0 l 57 0 l 57 92 l 169 107 l 169 915 m 172 1161 l 351 1364 l 507 1268 q 386 1164 456 1211 q 271 1100 317 1117 l 172 1161 z "},"Ĭ":{"ha":579,"x_min":28,"x_max":553,"o":"m 169 915 l 56 935 l 56 1032 l 524 1032 l 524 935 l 407 915 l 407 106 l 524 90 l 524 0 l 57 0 l 57 92 l 169 107 l 169 915 m 289 1103 q 145 1133 204 1103 q 57 1216 86 1164 q 28 1329 28 1268 q 29 1360 28 1350 l 139 1360 q 140 1344 139 1351 q 290 1243 165 1243 q 439 1344 414 1243 q 440 1360 440 1351 l 551 1360 q 553 1331 553 1350 q 522 1217 553 1269 q 431 1134 490 1165 q 289 1103 371 1103 z "},"Ǐ":{"ha":579,"x_min":29,"x_max":551,"o":"m 169 915 l 56 935 l 56 1032 l 524 1032 l 524 935 l 407 915 l 407 106 l 524 90 l 524 0 l 57 0 l 57 92 l 169 107 l 169 915 m 292 1242 l 478 1365 l 551 1303 l 358 1110 l 225 1110 l 29 1304 l 106 1365 l 292 1242 z "},"Î":{"ha":579,"x_min":17,"x_max":567,"o":"m 169 915 l 56 935 l 56 1032 l 524 1032 l 524 935 l 407 915 l 407 106 l 524 90 l 524 0 l 57 0 l 57 92 l 169 107 l 169 915 m 358 1361 l 567 1160 l 490 1096 l 292 1228 l 92 1096 l 17 1158 l 226 1361 l 358 1361 z "},"Ï":{"ha":579,"x_min":-3,"x_max":583,"o":"m 169 915 l 56 935 l 56 1032 l 524 1032 l 524 935 l 407 915 l 407 106 l 524 90 l 524 0 l 57 0 l 57 92 l 169 107 l 169 915 m 93 1114 q 24 1145 50 1114 q -3 1221 -3 1176 q 26 1313 -3 1278 q 114 1347 56 1347 l 115 1347 q 195 1317 168 1347 q 222 1240 222 1286 q 190 1149 222 1185 q 94 1114 158 1114 l 93 1114 m 456 1114 q 386 1147 413 1114 q 360 1221 360 1179 q 388 1313 360 1278 q 475 1347 417 1347 l 476 1347 q 557 1317 531 1347 q 583 1240 583 1286 q 552 1149 583 1185 q 456 1114 521 1114 z "},"İ":{"ha":579,"x_min":56,"x_max":524,"o":"m 169 915 l 56 935 l 56 1032 l 524 1032 l 524 935 l 407 915 l 407 106 l 524 90 l 524 0 l 57 0 l 57 92 l 169 107 l 169 915 m 279 1124 q 197 1153 229 1124 q 165 1229 165 1183 q 199 1317 165 1285 q 293 1350 232 1350 q 383 1321 350 1350 q 415 1246 415 1292 q 381 1156 415 1189 q 279 1124 347 1124 z "},"Ị":{"ha":579,"x_min":56,"x_max":524,"o":"m 169 915 l 56 935 l 56 1032 l 524 1032 l 524 935 l 407 915 l 407 106 l 524 90 l 524 0 l 57 0 l 57 92 l 169 107 l 169 915 m 281 -311 q 200 -281 232 -311 q 168 -204 168 -250 q 202 -114 168 -150 q 294 -78 236 -78 q 381 -108 350 -78 q 413 -185 413 -139 q 378 -276 413 -240 q 282 -311 344 -311 l 281 -311 z "},"Ì":{"ha":579,"x_min":56,"x_max":524,"o":"m 169 915 l 56 935 l 56 1032 l 524 1032 l 524 935 l 407 915 l 407 106 l 524 90 l 524 0 l 57 0 l 57 92 l 169 107 l 169 915 m 311 1100 q 184 1168 260 1118 q 67 1268 108 1218 l 214 1364 l 400 1161 l 311 1100 z "},"Ỉ":{"ha":579,"x_min":56,"x_max":524,"o":"m 169 915 l 56 935 l 56 1032 l 524 1032 l 524 935 l 407 915 l 407 106 l 524 90 l 524 0 l 57 0 l 57 92 l 169 107 l 169 915 m 251 1078 q 229 1135 229 1103 q 237 1157 229 1149 q 261 1178 244 1165 q 286 1198 278 1189 q 294 1222 294 1207 q 278 1256 294 1246 q 221 1267 261 1267 q 185 1263 204 1267 q 154 1250 165 1258 l 150 1344 q 200 1360 171 1354 q 254 1365 229 1365 q 443 1253 443 1365 q 365 1151 443 1194 q 335 1103 335 1138 q 338 1078 335 1086 l 251 1078 z "},"Ī":{"ha":579,"x_min":56,"x_max":524,"o":"m 169 915 l 56 935 l 56 1032 l 524 1032 l 524 935 l 407 915 l 407 106 l 524 90 l 524 0 l 57 0 l 57 92 l 169 107 l 169 915 m 517 1163 l 64 1163 l 64 1296 l 517 1296 l 517 1163 z "},"Į":{"ha":581,"x_min":58,"x_max":525,"o":"m 171 915 l 58 935 l 58 1032 l 525 1032 l 525 935 l 410 915 l 410 106 l 525 90 l 525 0 l 467 0 q 363 -68 404 -24 q 322 -150 322 -112 q 348 -204 322 -185 q 422 -224 374 -224 q 465 -219 447 -224 q 506 -206 483 -215 l 506 -303 q 428 -335 478 -324 q 332 -347 378 -347 q 192 -310 246 -347 q 139 -210 139 -274 q 194 -92 139 -150 q 333 0 249 -35 l 58 0 l 58 92 l 171 107 l 171 915 z "},"Ĩ":{"ha":579,"x_min":22,"x_max":564,"o":"m 169 915 l 56 935 l 56 1032 l 524 1032 l 524 935 l 407 915 l 407 106 l 524 90 l 524 0 l 57 0 l 57 92 l 169 107 l 169 915 m 389 1117 q 325 1130 350 1117 q 269 1169 300 1143 q 231 1199 247 1189 q 192 1208 214 1208 q 140 1187 160 1208 q 107 1125 121 1165 l 22 1178 q 88 1297 43 1254 q 196 1339 133 1339 q 263 1325 236 1339 q 319 1286 290 1311 q 360 1256 344 1265 q 397 1247 376 1247 q 445 1269 426 1247 q 478 1331 464 1290 l 564 1278 q 497 1158 542 1200 q 389 1117 453 1117 z "},"J":{"ha":551,"x_min":-25,"x_max":521,"o":"m -25 -189 q 75 -124 28 -171 q 146 -8 122 -78 q 167 98 160 36 q 174 265 174 160 l 174 915 l 56 935 l 56 1032 l 521 1032 l 521 935 l 411 917 l 411 382 q 407 153 411 240 q 390 19 403 65 q 265 -169 358 -93 q 28 -269 172 -246 l -25 -189 z "},"Ĵ":{"ha":551,"x_min":-25,"x_max":564,"o":"m -25 -189 q 75 -124 28 -171 q 146 -8 122 -78 q 167 98 160 36 q 174 265 174 160 l 174 915 l 56 935 l 56 1032 l 521 1032 l 521 935 l 411 917 l 411 382 q 407 153 411 240 q 390 19 403 65 q 265 -169 358 -93 q 28 -269 172 -246 l -25 -189 m 356 1361 l 564 1160 l 488 1096 l 289 1228 l 89 1096 l 14 1158 l 224 1361 l 356 1361 z "},"K":{"ha":1053,"x_min":49,"x_max":1060,"o":"m 779 0 q 731 51 760 0 q 643 217 701 101 q 504 471 553 406 l 392 342 l 392 106 l 507 92 l 507 0 l 49 0 l 49 92 l 156 107 l 156 915 l 49 935 l 49 1032 l 494 1032 l 494 935 l 392 915 l 392 483 l 731 915 l 618 935 l 618 1032 l 1014 1032 l 1014 936 l 892 917 l 642 633 q 745 506 692 589 q 875 289 799 424 q 952 157 926 199 q 993 107 978 115 l 1060 92 l 1060 0 l 779 0 z "},"Ķ":{"ha":1053,"x_min":49,"x_max":1060,"o":"m 779 0 q 731 51 760 0 q 643 217 701 101 q 504 471 553 406 l 392 342 l 392 106 l 507 92 l 507 0 l 49 0 l 49 92 l 156 107 l 156 915 l 49 935 l 49 1032 l 494 1032 l 494 935 l 392 915 l 392 483 l 731 915 l 618 935 l 618 1032 l 1014 1032 l 1014 936 l 892 917 l 642 633 q 745 506 692 589 q 875 289 799 424 q 952 157 926 199 q 993 107 978 115 l 1060 92 l 1060 0 l 779 0 m 690 -174 q 669 -265 690 -221 q 619 -341 647 -310 q 572 -379 592 -372 l 571 -379 l 499 -358 l 496 -349 q 520 -315 511 -342 q 529 -261 529 -289 q 504 -212 529 -232 q 472 -147 472 -189 q 505 -83 472 -103 q 578 -64 538 -64 l 582 -64 q 660 -92 631 -64 q 690 -174 690 -121 z "},"L":{"ha":890,"x_min":49,"x_max":875,"o":"m 156 915 l 51 935 l 51 1032 l 525 1032 l 525 935 l 393 915 l 393 108 l 654 122 l 744 397 l 875 381 l 835 0 l 49 0 l 49 92 l 156 106 l 156 915 z "},"Ǉ":{"ha":1442,"x_min":49,"x_max":1411,"o":"m 156 915 l 51 935 l 51 1032 l 525 1032 l 525 935 l 393 915 l 393 108 l 654 122 l 744 397 l 875 381 l 835 0 l 49 0 l 49 92 l 156 106 l 156 915 m 865 -189 q 965 -124 918 -171 q 1036 -8 1013 -78 q 1057 98 1050 36 q 1064 265 1064 160 l 1064 915 l 946 935 l 946 1032 l 1411 1032 l 1411 935 l 1301 917 l 1301 382 q 1297 153 1301 240 q 1281 19 1293 65 q 1156 -169 1249 -93 q 918 -269 1063 -246 l 865 -189 z "},"Ĺ":{"ha":890,"x_min":49,"x_max":875,"o":"m 156 915 l 51 935 l 51 1032 l 525 1032 l 525 935 l 393 915 l 393 108 l 654 122 l 744 397 l 875 381 l 835 0 l 49 0 l 49 92 l 156 106 l 156 915 m 165 1161 l 344 1364 l 500 1268 q 379 1164 449 1211 q 264 1100 310 1117 l 165 1161 z "},"Ľ":{"ha":890,"x_min":49,"x_max":875,"o":"m 156 915 l 51 935 l 51 1032 l 525 1032 l 525 935 l 393 915 l 393 108 l 654 122 l 744 397 l 875 381 l 835 0 l 49 0 l 49 92 l 156 106 l 156 915 m 665 832 l 661 847 q 669 997 669 897 q 651 1122 669 1082 l 658 1153 l 824 1153 q 836 1046 836 1124 q 789 831 836 940 l 665 832 z "},"Ļ":{"ha":890,"x_min":49,"x_max":875,"o":"m 156 915 l 51 935 l 51 1032 l 525 1032 l 525 935 l 393 915 l 393 108 l 654 122 l 744 397 l 875 381 l 835 0 l 49 0 l 49 92 l 156 106 l 156 915 m 578 -174 q 556 -265 578 -221 q 507 -341 535 -310 q 460 -379 479 -372 l 458 -379 l 386 -358 l 383 -349 q 408 -315 399 -342 q 417 -261 417 -289 q 392 -212 417 -232 q 360 -147 360 -189 q 392 -83 360 -103 q 465 -64 425 -64 l 469 -64 q 548 -92 518 -64 q 578 -174 578 -121 z "},"Ŀ":{"ha":1083,"x_min":49,"x_max":1060,"o":"m 156 915 l 51 935 l 51 1032 l 525 1032 l 525 935 l 393 915 l 393 108 l 654 122 l 744 397 l 875 381 l 835 0 l 49 0 l 49 92 l 156 106 l 156 915 m 917 481 q 833 514 869 481 q 797 597 797 547 q 838 688 797 653 q 938 724 879 724 q 1026 689 993 724 q 1060 607 1060 654 q 1020 514 1060 547 q 917 481 981 481 z "},"Ḷ":{"ha":890,"x_min":49,"x_max":875,"o":"m 156 915 l 51 935 l 51 1032 l 525 1032 l 525 935 l 393 915 l 393 108 l 654 122 l 744 397 l 875 381 l 835 0 l 49 0 l 49 92 l 156 106 l 156 915 m 456 -311 q 375 -281 407 -311 q 343 -204 343 -250 q 377 -114 343 -150 q 469 -78 411 -78 q 556 -108 525 -78 q 588 -185 588 -139 q 553 -276 588 -240 q 457 -311 519 -311 l 456 -311 z "},"ǈ":{"ha":1360,"x_min":49,"x_max":1267,"o":"m 156 915 l 51 935 l 51 1032 l 525 1032 l 525 935 l 393 915 l 393 108 l 654 122 l 744 397 l 875 381 l 835 0 l 49 0 l 49 92 l 156 106 l 156 915 m 1125 892 q 1038 924 1071 892 q 1004 1006 1004 956 q 1041 1101 1004 1064 q 1140 1139 1078 1139 q 1234 1107 1201 1139 q 1267 1025 1267 1075 q 1231 928 1267 965 q 1126 892 1194 892 l 1125 892 m 940 757 l 1214 790 l 1217 790 l 1258 761 l 1258 14 q 1212 -174 1258 -94 q 1098 -294 1165 -253 q 968 -337 1031 -336 q 882 -332 899 -337 l 871 -244 q 940 -228 910 -244 q 1013 -134 990 -204 q 1035 58 1035 -64 l 1035 624 l 940 650 l 940 757 z "},"Ł":{"ha":886,"x_min":31,"x_max":875,"o":"m 156 915 l 51 935 l 51 1032 l 525 1032 l 525 935 l 393 915 l 393 675 l 629 774 l 629 665 l 393 569 l 393 108 l 654 122 l 744 397 l 875 381 l 835 0 l 49 0 l 49 92 l 156 106 l 156 479 l 31 429 l 31 531 l 156 581 l 156 915 z "},"M":{"ha":1436,"x_min":1,"x_max":1433,"o":"m 218 915 l 71 935 l 71 1032 l 543 1032 l 690 451 l 724 297 l 751 451 l 897 1032 l 1367 1032 l 1367 935 l 1215 915 l 1326 107 l 1433 92 l 1433 0 l 965 0 l 965 92 l 1083 107 l 1025 706 l 1000 950 l 951 728 l 769 40 l 588 40 l 393 708 l 329 951 l 313 706 l 261 107 l 403 92 l 403 0 l 1 0 l 1 92 l 117 106 l 218 915 z "},"Ḿ":{"ha":1436,"x_min":1,"x_max":1433,"o":"m 218 915 l 71 935 l 71 1032 l 543 1032 l 690 451 l 724 297 l 751 451 l 897 1032 l 1367 1032 l 1367 935 l 1215 915 l 1326 107 l 1433 92 l 1433 0 l 965 0 l 965 92 l 1083 107 l 1025 706 l 1000 950 l 951 728 l 769 40 l 588 40 l 393 708 l 329 951 l 313 706 l 261 107 l 403 92 l 403 0 l 1 0 l 1 92 l 117 106 l 218 915 m 603 1161 l 782 1364 l 938 1268 q 817 1164 886 1211 q 701 1100 747 1117 l 603 1161 z "},"Ṁ":{"ha":1436,"x_min":1,"x_max":1433,"o":"m 218 915 l 71 935 l 71 1032 l 543 1032 l 690 451 l 724 297 l 751 451 l 897 1032 l 1367 1032 l 1367 935 l 1215 915 l 1326 107 l 1433 92 l 1433 0 l 965 0 l 965 92 l 1083 107 l 1025 706 l 1000 950 l 951 728 l 769 40 l 588 40 l 393 708 l 329 951 l 313 706 l 261 107 l 403 92 l 403 0 l 1 0 l 1 92 l 117 106 l 218 915 m 710 1124 q 628 1153 660 1124 q 596 1229 596 1183 q 629 1317 596 1285 q 724 1350 663 1350 q 813 1321 781 1350 q 846 1246 846 1292 q 812 1156 846 1189 q 710 1124 778 1124 z "},"N":{"ha":1118,"x_min":49,"x_max":1096,"o":"m 157 917 l 49 935 l 49 1032 l 397 1032 l 781 440 l 858 274 l 858 917 l 740 935 l 740 1032 l 1096 1032 l 1096 935 l 990 917 l 990 0 l 786 0 l 379 635 l 288 818 l 288 107 l 435 92 l 435 0 l 49 0 l 49 92 l 157 107 l 157 917 z "},"Ǌ":{"ha":1669,"x_min":49,"x_max":1639,"o":"m 157 917 l 49 935 l 49 1032 l 397 1032 l 781 440 l 858 274 l 858 917 l 740 935 l 740 1032 l 1096 1032 l 1096 935 l 990 917 l 990 0 l 786 0 l 379 635 l 288 818 l 288 107 l 435 92 l 435 0 l 49 0 l 49 92 l 157 107 l 157 917 m 1093 -189 q 1193 -124 1146 -171 q 1264 -8 1240 -78 q 1285 98 1278 36 q 1292 265 1292 160 l 1292 915 l 1174 935 l 1174 1032 l 1639 1032 l 1639 935 l 1529 917 l 1529 382 q 1525 153 1529 240 q 1508 19 1521 65 q 1383 -169 1476 -93 q 1146 -269 1290 -246 l 1093 -189 z "},"Ń":{"ha":1118,"x_min":49,"x_max":1096,"o":"m 157 917 l 49 935 l 49 1032 l 397 1032 l 781 440 l 858 274 l 858 917 l 740 935 l 740 1032 l 1096 1032 l 1096 935 l 990 917 l 990 0 l 786 0 l 379 635 l 288 818 l 288 107 l 435 92 l 435 0 l 49 0 l 49 92 l 157 107 l 157 917 m 465 1161 l 644 1364 l 800 1268 q 679 1164 749 1211 q 564 1100 610 1117 l 465 1161 z "},"Ň":{"ha":1118,"x_min":49,"x_max":1096,"o":"m 157 917 l 49 935 l 49 1032 l 397 1032 l 781 440 l 858 274 l 858 917 l 740 935 l 740 1032 l 1096 1032 l 1096 935 l 990 917 l 990 0 l 786 0 l 379 635 l 288 818 l 288 107 l 435 92 l 435 0 l 49 0 l 49 92 l 157 107 l 157 917 m 585 1242 l 771 1365 l 844 1303 l 651 1110 l 518 1110 l 322 1304 l 399 1365 l 585 1242 z "},"Ņ":{"ha":1118,"x_min":49,"x_max":1096,"o":"m 157 917 l 49 935 l 49 1032 l 397 1032 l 781 440 l 858 274 l 858 917 l 740 935 l 740 1032 l 1096 1032 l 1096 935 l 990 917 l 990 0 l 786 0 l 379 635 l 288 818 l 288 107 l 435 92 l 435 0 l 49 0 l 49 92 l 157 107 l 157 917 m 672 -174 q 651 -265 672 -221 q 601 -341 629 -310 q 554 -379 574 -372 l 553 -379 l 481 -358 l 478 -349 q 502 -315 493 -342 q 511 -261 511 -289 q 486 -212 511 -232 q 454 -147 454 -189 q 487 -83 454 -103 q 560 -64 519 -64 l 564 -64 q 642 -92 613 -64 q 672 -174 672 -121 z "},"Ṅ":{"ha":1118,"x_min":49,"x_max":1096,"o":"m 157 917 l 49 935 l 49 1032 l 397 1032 l 781 440 l 858 274 l 858 917 l 740 935 l 740 1032 l 1096 1032 l 1096 935 l 990 917 l 990 0 l 786 0 l 379 635 l 288 818 l 288 107 l 435 92 l 435 0 l 49 0 l 49 92 l 157 107 l 157 917 m 572 1124 q 490 1153 522 1124 q 458 1229 458 1183 q 492 1317 458 1285 q 586 1350 525 1350 q 676 1321 643 1350 q 708 1246 708 1292 q 674 1156 708 1189 q 572 1124 640 1124 z "},"Ṇ":{"ha":1118,"x_min":49,"x_max":1096,"o":"m 157 917 l 49 935 l 49 1032 l 397 1032 l 781 440 l 858 274 l 858 917 l 740 935 l 740 1032 l 1096 1032 l 1096 935 l 990 917 l 990 0 l 786 0 l 379 635 l 288 818 l 288 107 l 435 92 l 435 0 l 49 0 l 49 92 l 157 107 l 157 917 m 550 -311 q 469 -281 501 -311 q 438 -204 438 -250 q 472 -114 438 -150 q 564 -78 506 -78 q 651 -108 619 -78 q 682 -185 682 -139 q 648 -276 682 -240 q 551 -311 614 -311 l 550 -311 z "},"Ŋ":{"ha":1108,"x_min":43,"x_max":1108,"o":"m 164 926 l 43 949 l 43 1032 l 394 1032 l 769 439 l 861 257 l 861 917 l 738 936 l 738 1032 l 1108 1032 l 1108 936 l 992 917 l 992 276 q 971 67 992 151 q 924 -65 950 -18 q 860 -156 897 -111 q 606 -292 757 -269 l 560 -218 q 749 -60 683 -164 q 779 0 765 -36 l 368 654 l 296 803 l 296 106 l 428 90 l 428 0 l 43 0 l 43 90 l 164 106 l 164 926 z "},"ǋ":{"ha":1588,"x_min":49,"x_max":1494,"o":"m 157 917 l 49 935 l 49 1032 l 397 1032 l 781 440 l 858 274 l 858 917 l 740 935 l 740 1032 l 1096 1032 l 1096 935 l 990 917 l 990 0 l 786 0 l 379 635 l 288 818 l 288 107 l 435 92 l 435 0 l 49 0 l 49 92 l 157 107 l 157 917 m 1353 892 q 1265 924 1299 892 q 1232 1006 1232 956 q 1269 1101 1232 1064 q 1368 1139 1306 1139 q 1462 1107 1429 1139 q 1494 1025 1494 1075 q 1458 928 1494 965 q 1354 892 1422 892 l 1353 892 m 1168 757 l 1442 790 l 1444 790 l 1486 761 l 1486 14 q 1440 -174 1486 -94 q 1326 -294 1393 -253 q 1196 -337 1258 -336 q 1110 -332 1126 -337 l 1099 -244 q 1168 -228 1138 -244 q 1240 -134 1218 -204 q 1263 58 1263 -64 l 1263 624 l 1168 650 l 1168 757 z "},"Ñ":{"ha":1118,"x_min":49,"x_max":1096,"o":"m 157 917 l 49 935 l 49 1032 l 397 1032 l 781 440 l 858 274 l 858 917 l 740 935 l 740 1032 l 1096 1032 l 1096 935 l 990 917 l 990 0 l 786 0 l 379 635 l 288 818 l 288 107 l 435 92 l 435 0 l 49 0 l 49 92 l 157 107 l 157 917 m 682 1117 q 618 1130 643 1117 q 563 1169 593 1143 q 524 1199 540 1189 q 485 1208 507 1208 q 433 1187 453 1208 q 400 1125 414 1165 l 315 1178 q 381 1297 336 1254 q 489 1339 426 1339 q 556 1325 529 1339 q 613 1286 583 1311 q 653 1256 638 1265 q 690 1247 669 1247 q 738 1269 719 1247 q 771 1331 757 1290 l 857 1278 q 790 1158 835 1200 q 682 1117 746 1117 z "},"O":{"ha":1015,"x_min":38,"x_max":978,"o":"m 496 -15 q 150 126 263 -15 q 38 514 38 267 q 97 794 38 674 q 263 979 156 914 q 513 1044 369 1044 q 865 912 751 1044 q 978 533 978 779 q 918 247 978 371 q 749 53 858 122 q 496 -15 640 -15 m 508 953 q 353 843 408 953 q 299 515 299 733 q 353 185 299 293 q 507 78 407 78 q 660 195 606 78 q 715 532 715 313 q 663 853 715 754 q 508 953 610 953 z "},"Ó":{"ha":1015,"x_min":38,"x_max":978,"o":"m 496 -15 q 150 126 263 -15 q 38 514 38 267 q 97 794 38 674 q 263 979 156 914 q 513 1044 369 1044 q 865 912 751 1044 q 978 533 978 779 q 918 247 978 371 q 749 53 858 122 q 496 -15 640 -15 m 508 953 q 353 843 408 953 q 299 515 299 733 q 353 185 299 293 q 507 78 407 78 q 660 195 606 78 q 715 532 715 313 q 663 853 715 754 q 508 953 610 953 m 397 1161 l 576 1364 l 732 1268 q 611 1164 681 1211 q 496 1100 542 1117 l 397 1161 z "},"Ŏ":{"ha":1015,"x_min":38,"x_max":978,"o":"m 496 -15 q 150 126 263 -15 q 38 514 38 267 q 97 794 38 674 q 263 979 156 914 q 513 1044 369 1044 q 865 912 751 1044 q 978 533 978 779 q 918 247 978 371 q 749 53 858 122 q 496 -15 640 -15 m 508 953 q 353 843 408 953 q 299 515 299 733 q 353 185 299 293 q 507 78 407 78 q 660 195 606 78 q 715 532 715 313 q 663 853 715 754 q 508 953 610 953 m 514 1103 q 370 1133 429 1103 q 282 1216 311 1164 q 253 1329 253 1268 q 254 1360 253 1350 l 364 1360 q 365 1344 364 1351 q 515 1243 390 1243 q 664 1344 639 1243 q 665 1360 665 1351 l 776 1360 q 778 1331 778 1350 q 747 1217 778 1269 q 656 1134 715 1165 q 514 1103 596 1103 z "},"Ǒ":{"ha":1015,"x_min":38,"x_max":978,"o":"m 496 -15 q 150 126 263 -15 q 38 514 38 267 q 97 794 38 674 q 263 979 156 914 q 513 1044 369 1044 q 865 912 751 1044 q 978 533 978 779 q 918 247 978 371 q 749 53 858 122 q 496 -15 640 -15 m 508 953 q 353 843 408 953 q 299 515 299 733 q 353 185 299 293 q 507 78 407 78 q 660 195 606 78 q 715 532 715 313 q 663 853 715 754 q 508 953 610 953 m 517 1242 l 703 1365 l 776 1303 l 583 1110 l 450 1110 l 254 1304 l 331 1365 l 517 1242 z "},"Ô":{"ha":1015,"x_min":38,"x_max":978,"o":"m 496 -15 q 150 126 263 -15 q 38 514 38 267 q 97 794 38 674 q 263 979 156 914 q 513 1044 369 1044 q 865 912 751 1044 q 978 533 978 779 q 918 247 978 371 q 749 53 858 122 q 496 -15 640 -15 m 508 953 q 353 843 408 953 q 299 515 299 733 q 353 185 299 293 q 507 78 407 78 q 660 195 606 78 q 715 532 715 313 q 663 853 715 754 q 508 953 610 953 m 583 1361 l 792 1160 l 715 1096 l 517 1228 l 317 1096 l 242 1158 l 451 1361 l 583 1361 z "},"Ố":{"ha":1015,"x_min":38,"x_max":978,"o":"m 496 -15 q 150 126 263 -15 q 38 514 38 267 q 97 794 38 674 q 263 979 156 914 q 513 1044 369 1044 q 865 912 751 1044 q 978 533 978 779 q 918 247 978 371 q 749 53 858 122 q 496 -15 640 -15 m 508 953 q 353 843 408 953 q 299 515 299 733 q 353 185 299 293 q 507 78 407 78 q 660 195 606 78 q 715 532 715 313 q 663 853 715 754 q 508 953 610 953 m 744 1224 l 872 1365 l 967 1286 q 903 1220 944 1254 q 810 1158 863 1186 l 744 1224 m 581 1336 l 764 1129 l 703 1071 l 515 1211 l 325 1069 l 265 1129 l 450 1336 l 581 1336 z "},"Ộ":{"ha":1015,"x_min":38,"x_max":978,"o":"m 496 -15 q 150 126 263 -15 q 38 514 38 267 q 97 794 38 674 q 263 979 156 914 q 513 1044 369 1044 q 865 912 751 1044 q 978 533 978 779 q 918 247 978 371 q 749 53 858 122 q 496 -15 640 -15 m 508 953 q 353 843 408 953 q 299 515 299 733 q 353 185 299 293 q 507 78 407 78 q 660 195 606 78 q 715 532 715 313 q 663 853 715 754 q 508 953 610 953 m 499 -311 q 418 -281 450 -311 q 386 -204 386 -250 q 420 -114 386 -150 q 513 -78 454 -78 q 599 -108 568 -78 q 631 -185 631 -139 q 597 -276 631 -240 q 500 -311 563 -311 l 499 -311 m 583 1361 l 792 1160 l 715 1096 l 517 1228 l 317 1096 l 242 1158 l 451 1361 l 583 1361 z "},"Ồ":{"ha":1015,"x_min":38,"x_max":978,"o":"m 496 -15 q 150 126 263 -15 q 38 514 38 267 q 97 794 38 674 q 263 979 156 914 q 513 1044 369 1044 q 865 912 751 1044 q 978 533 978 779 q 918 247 978 371 q 749 53 858 122 q 496 -15 640 -15 m 508 953 q 353 843 408 953 q 299 515 299 733 q 353 185 299 293 q 507 78 407 78 q 660 195 606 78 q 715 532 715 313 q 663 853 715 754 q 508 953 610 953 m 878 1158 q 783 1223 824 1189 q 722 1288 743 1257 l 817 1365 l 949 1224 l 878 1158 m 581 1307 l 764 1122 l 703 1064 l 515 1186 l 325 1063 l 265 1122 l 450 1307 l 581 1307 z "},"Ổ":{"ha":1015,"x_min":38,"x_max":978,"o":"m 496 -15 q 150 126 263 -15 q 38 514 38 267 q 97 794 38 674 q 263 979 156 914 q 513 1044 369 1044 q 865 912 751 1044 q 978 533 978 779 q 918 247 978 371 q 749 53 858 122 q 496 -15 640 -15 m 508 953 q 353 843 408 953 q 299 515 299 733 q 353 185 299 293 q 507 78 407 78 q 660 195 606 78 q 715 532 715 313 q 663 853 715 754 q 508 953 610 953 m 825 1082 q 803 1133 803 1113 q 810 1161 803 1151 q 835 1185 818 1171 q 858 1208 850 1196 q 867 1236 867 1219 q 854 1266 867 1254 q 814 1279 842 1278 q 751 1265 779 1279 l 747 1356 q 778 1363 750 1360 q 825 1365 807 1365 q 935 1340 896 1365 q 975 1258 975 1315 q 962 1202 975 1222 q 930 1165 949 1182 q 901 1139 911 1149 q 889 1111 889 1126 q 892 1096 889 1107 l 825 1082 m 581 1307 l 764 1122 l 703 1064 l 515 1186 l 325 1063 l 265 1122 l 450 1307 l 581 1307 z "},"Ỗ":{"ha":1015,"x_min":38,"x_max":978,"o":"m 496 -15 q 150 126 263 -15 q 38 514 38 267 q 97 794 38 674 q 263 979 156 914 q 513 1044 369 1044 q 865 912 751 1044 q 978 533 978 779 q 918 247 978 371 q 749 53 858 122 q 496 -15 640 -15 m 508 953 q 353 843 408 953 q 299 515 299 733 q 353 185 299 293 q 507 78 407 78 q 660 195 606 78 q 715 532 715 313 q 663 853 715 754 q 508 953 610 953 m 313 1342 q 330 1395 314 1367 q 375 1443 346 1424 q 443 1463 404 1463 q 497 1451 472 1463 q 554 1418 521 1440 q 598 1392 582 1400 q 632 1385 614 1385 q 678 1395 664 1385 q 713 1435 692 1406 l 760 1401 q 714 1319 751 1353 q 618 1286 676 1286 q 565 1297 589 1286 q 511 1329 542 1308 q 469 1356 486 1347 q 433 1364 451 1364 q 394 1350 411 1364 q 358 1310 378 1336 l 313 1342 m 581 1251 l 765 1124 l 717 1064 l 515 1149 l 310 1063 l 265 1124 l 450 1251 l 581 1251 z "},"Ö":{"ha":1015,"x_min":38,"x_max":978,"o":"m 496 -15 q 150 126 263 -15 q 38 514 38 267 q 97 794 38 674 q 263 979 156 914 q 513 1044 369 1044 q 865 912 751 1044 q 978 533 978 779 q 918 247 978 371 q 749 53 858 122 q 496 -15 640 -15 m 508 953 q 353 843 408 953 q 299 515 299 733 q 353 185 299 293 q 507 78 407 78 q 660 195 606 78 q 715 532 715 313 q 663 853 715 754 q 508 953 610 953 m 318 1114 q 249 1145 275 1114 q 222 1221 222 1176 q 251 1313 222 1278 q 339 1347 281 1347 l 340 1347 q 420 1317 393 1347 q 447 1240 447 1286 q 415 1149 447 1185 q 319 1114 383 1114 l 318 1114 m 681 1114 q 611 1147 638 1114 q 585 1221 585 1179 q 613 1313 585 1278 q 700 1347 642 1347 l 701 1347 q 782 1317 756 1347 q 808 1240 808 1286 q 777 1149 808 1185 q 681 1114 746 1114 z "},"Ọ":{"ha":1015,"x_min":38,"x_max":978,"o":"m 496 -15 q 150 126 263 -15 q 38 514 38 267 q 97 794 38 674 q 263 979 156 914 q 513 1044 369 1044 q 865 912 751 1044 q 978 533 978 779 q 918 247 978 371 q 749 53 858 122 q 496 -15 640 -15 m 508 953 q 353 843 408 953 q 299 515 299 733 q 353 185 299 293 q 507 78 407 78 q 660 195 606 78 q 715 532 715 313 q 663 853 715 754 q 508 953 610 953 m 499 -311 q 418 -281 450 -311 q 386 -204 386 -250 q 420 -114 386 -150 q 513 -78 454 -78 q 599 -108 568 -78 q 631 -185 631 -139 q 597 -276 631 -240 q 500 -311 563 -311 l 499 -311 z "},"Ò":{"ha":1015,"x_min":38,"x_max":978,"o":"m 496 -15 q 150 126 263 -15 q 38 514 38 267 q 97 794 38 674 q 263 979 156 914 q 513 1044 369 1044 q 865 912 751 1044 q 978 533 978 779 q 918 247 978 371 q 749 53 858 122 q 496 -15 640 -15 m 508 953 q 353 843 408 953 q 299 515 299 733 q 353 185 299 293 q 507 78 407 78 q 660 195 606 78 q 715 532 715 313 q 663 853 715 754 q 508 953 610 953 m 536 1100 q 409 1168 485 1118 q 292 1268 333 1218 l 439 1364 l 625 1161 l 536 1100 z "},"Ỏ":{"ha":1015,"x_min":38,"x_max":978,"o":"m 496 -15 q 150 126 263 -15 q 38 514 38 267 q 97 794 38 674 q 263 979 156 914 q 513 1044 369 1044 q 865 912 751 1044 q 978 533 978 779 q 918 247 978 371 q 749 53 858 122 q 496 -15 640 -15 m 508 953 q 353 843 408 953 q 299 515 299 733 q 353 185 299 293 q 507 78 407 78 q 660 195 606 78 q 715 532 715 313 q 663 853 715 754 q 508 953 610 953 m 476 1078 q 454 1135 454 1103 q 462 1157 454 1149 q 486 1178 469 1165 q 511 1198 503 1189 q 519 1222 519 1207 q 503 1256 519 1246 q 446 1267 486 1267 q 410 1263 429 1267 q 379 1250 390 1258 l 375 1344 q 425 1360 396 1354 q 479 1365 454 1365 q 668 1253 668 1365 q 590 1151 668 1194 q 560 1103 560 1138 q 563 1078 560 1086 l 476 1078 z "},"Ơ":{"ha":1015,"x_min":38,"x_max":1032,"o":"m 1032 1172 q 985 1009 1032 1074 q 858 918 938 944 q 978 533 978 789 q 918 247 978 371 q 749 53 858 122 q 496 -15 640 -15 q 150 126 263 -15 q 38 514 38 267 q 97 794 38 674 q 263 979 156 914 q 513 1044 369 1044 q 756 994 660 1044 q 828 1038 799 1007 q 872 1103 858 1068 q 886 1165 886 1138 q 882 1201 886 1189 l 1028 1201 q 1032 1172 1032 1188 m 507 78 q 660 195 606 78 q 715 532 715 313 q 663 853 715 754 q 508 953 610 953 q 353 843 408 953 q 299 515 299 733 q 353 185 299 293 q 507 78 407 78 z "},"Ớ":{"ha":1015,"x_min":38,"x_max":1032,"o":"m 1032 1172 q 985 1009 1032 1074 q 858 918 938 944 q 978 533 978 789 q 918 247 978 371 q 749 53 858 122 q 496 -15 640 -15 q 150 126 263 -15 q 38 514 38 267 q 97 794 38 674 q 263 979 156 914 q 513 1044 369 1044 q 756 994 660 1044 q 828 1038 799 1007 q 872 1103 858 1068 q 886 1165 886 1138 q 882 1201 886 1189 l 1028 1201 q 1032 1172 1032 1188 m 507 78 q 660 195 606 78 q 715 532 715 313 q 663 853 715 754 q 508 953 610 953 q 353 843 408 953 q 299 515 299 733 q 353 185 299 293 q 507 78 407 78 m 401 1161 l 581 1364 l 736 1268 q 615 1164 685 1211 q 500 1100 546 1117 l 401 1161 z "},"Ợ":{"ha":1015,"x_min":38,"x_max":1032,"o":"m 1032 1172 q 985 1009 1032 1074 q 858 918 938 944 q 978 533 978 789 q 918 247 978 371 q 749 53 858 122 q 496 -15 640 -15 q 150 126 263 -15 q 38 514 38 267 q 97 794 38 674 q 263 979 156 914 q 513 1044 369 1044 q 756 994 660 1044 q 828 1038 799 1007 q 872 1103 858 1068 q 886 1165 886 1138 q 882 1201 886 1189 l 1028 1201 q 1032 1172 1032 1188 m 507 78 q 660 195 606 78 q 715 532 715 313 q 663 853 715 754 q 508 953 610 953 q 353 843 408 953 q 299 515 299 733 q 353 185 299 293 q 507 78 407 78 m 499 -311 q 418 -281 450 -311 q 386 -204 386 -250 q 420 -114 386 -150 q 513 -78 454 -78 q 599 -108 568 -78 q 631 -185 631 -139 q 597 -276 631 -240 q 500 -311 563 -311 l 499 -311 z "},"Ờ":{"ha":1015,"x_min":38,"x_max":1032,"o":"m 1032 1172 q 985 1009 1032 1074 q 858 918 938 944 q 978 533 978 789 q 918 247 978 371 q 749 53 858 122 q 496 -15 640 -15 q 150 126 263 -15 q 38 514 38 267 q 97 794 38 674 q 263 979 156 914 q 513 1044 369 1044 q 756 994 660 1044 q 828 1038 799 1007 q 872 1103 858 1068 q 886 1165 886 1138 q 882 1201 886 1189 l 1028 1201 q 1032 1172 1032 1188 m 507 78 q 660 195 606 78 q 715 532 715 313 q 663 853 715 754 q 508 953 610 953 q 353 843 408 953 q 299 515 299 733 q 353 185 299 293 q 507 78 407 78 m 540 1100 q 413 1168 489 1118 q 296 1268 338 1218 l 443 1364 l 629 1161 l 540 1100 z "},"Ở":{"ha":1015,"x_min":38,"x_max":1032,"o":"m 1032 1172 q 985 1009 1032 1074 q 858 918 938 944 q 978 533 978 789 q 918 247 978 371 q 749 53 858 122 q 496 -15 640 -15 q 150 126 263 -15 q 38 514 38 267 q 97 794 38 674 q 263 979 156 914 q 513 1044 369 1044 q 756 994 660 1044 q 828 1038 799 1007 q 872 1103 858 1068 q 886 1165 886 1138 q 882 1201 886 1189 l 1028 1201 q 1032 1172 1032 1188 m 507 78 q 660 195 606 78 q 715 532 715 313 q 663 853 715 754 q 508 953 610 953 q 353 843 408 953 q 299 515 299 733 q 353 185 299 293 q 507 78 407 78 m 481 1078 q 458 1135 458 1103 q 466 1157 458 1149 q 490 1178 474 1165 q 515 1198 507 1189 q 524 1222 524 1207 q 507 1256 524 1246 q 450 1267 490 1267 q 414 1263 433 1267 q 383 1250 394 1258 l 379 1344 q 429 1360 400 1354 q 483 1365 458 1365 q 672 1253 672 1365 q 594 1151 672 1194 q 564 1103 564 1138 q 567 1078 564 1086 l 481 1078 z "},"Ỡ":{"ha":1015,"x_min":38,"x_max":1032,"o":"m 1032 1172 q 985 1009 1032 1074 q 858 918 938 944 q 978 533 978 789 q 918 247 978 371 q 749 53 858 122 q 496 -15 640 -15 q 150 126 263 -15 q 38 514 38 267 q 97 794 38 674 q 263 979 156 914 q 513 1044 369 1044 q 756 994 660 1044 q 828 1038 799 1007 q 872 1103 858 1068 q 886 1165 886 1138 q 882 1201 886 1189 l 1028 1201 q 1032 1172 1032 1188 m 507 78 q 660 195 606 78 q 715 532 715 313 q 663 853 715 754 q 508 953 610 953 q 353 843 408 953 q 299 515 299 733 q 353 185 299 293 q 507 78 407 78 m 618 1117 q 554 1130 579 1117 q 499 1169 529 1143 q 460 1199 476 1189 q 421 1208 443 1208 q 369 1187 389 1208 q 336 1125 350 1165 l 251 1178 q 317 1297 272 1254 q 425 1339 363 1339 q 492 1325 465 1339 q 549 1286 519 1311 q 590 1256 574 1265 q 626 1247 606 1247 q 674 1269 656 1247 q 707 1331 693 1290 l 793 1278 q 726 1158 771 1200 q 618 1117 682 1117 z "},"Ő":{"ha":1015,"x_min":38,"x_max":978,"o":"m 496 -15 q 150 126 263 -15 q 38 514 38 267 q 97 794 38 674 q 263 979 156 914 q 513 1044 369 1044 q 865 912 751 1044 q 978 533 978 779 q 918 247 978 371 q 749 53 858 122 q 496 -15 640 -15 m 508 953 q 353 843 408 953 q 299 515 299 733 q 353 185 299 293 q 507 78 407 78 q 660 195 606 78 q 715 532 715 313 q 663 853 715 754 q 508 953 610 953 m 549 1274 q 445 1180 513 1231 q 321 1099 378 1129 l 238 1169 l 431 1365 l 549 1274 m 903 1274 q 801 1178 869 1228 q 674 1099 733 1128 l 589 1169 l 790 1364 l 903 1274 z "},"Ō":{"ha":1015,"x_min":38,"x_max":978,"o":"m 496 -15 q 150 126 263 -15 q 38 514 38 267 q 97 794 38 674 q 263 979 156 914 q 513 1044 369 1044 q 865 912 751 1044 q 978 533 978 779 q 918 247 978 371 q 749 53 858 122 q 496 -15 640 -15 m 508 953 q 353 843 408 953 q 299 515 299 733 q 353 185 299 293 q 507 78 407 78 q 660 195 606 78 q 715 532 715 313 q 663 853 715 754 q 508 953 610 953 m 742 1163 l 289 1163 l 289 1296 l 742 1296 l 742 1163 z "},"Ø":{"ha":1015,"x_min":38,"x_max":978,"o":"m 258 38 q 92 219 146 97 q 38 514 38 342 q 97 794 38 674 q 263 979 156 914 q 513 1044 369 1044 q 658 1029 596 1044 l 718 1185 l 818 1156 l 756 996 q 978 533 978 885 q 919 248 978 372 q 752 55 860 124 q 501 -15 644 -14 q 360 0 428 -15 l 292 -161 l 186 -132 l 258 38 m 508 953 q 353 843 408 953 q 299 515 299 733 q 353 217 299 318 l 618 908 q 508 953 575 953 m 717 532 q 663 824 717 719 l 394 131 q 507 78 439 78 q 661 195 606 78 q 717 532 717 313 z "},"Ǿ":{"ha":1015,"x_min":38,"x_max":978,"o":"m 258 38 q 92 219 146 97 q 38 514 38 342 q 97 794 38 674 q 263 979 156 914 q 513 1044 369 1044 q 658 1029 596 1044 l 718 1185 l 818 1156 l 756 996 q 978 533 978 885 q 919 248 978 372 q 752 55 860 124 q 501 -15 644 -14 q 360 0 428 -15 l 292 -161 l 186 -132 l 258 38 m 508 953 q 353 843 408 953 q 299 515 299 733 q 353 217 299 318 l 618 908 q 508 953 575 953 m 717 532 q 663 824 717 719 l 394 131 q 507 78 439 78 q 661 195 606 78 q 717 532 717 313 m 396 1161 l 575 1364 l 731 1268 q 610 1164 679 1211 q 494 1100 540 1117 l 396 1161 z "},"Õ":{"ha":1015,"x_min":38,"x_max":978,"o":"m 496 -15 q 150 126 263 -15 q 38 514 38 267 q 97 794 38 674 q 263 979 156 914 q 513 1044 369 1044 q 865 912 751 1044 q 978 533 978 779 q 918 247 978 371 q 749 53 858 122 q 496 -15 640 -15 m 508 953 q 353 843 408 953 q 299 515 299 733 q 353 185 299 293 q 507 78 407 78 q 660 195 606 78 q 715 532 715 313 q 663 853 715 754 q 508 953 610 953 m 614 1117 q 550 1130 575 1117 q 494 1169 525 1143 q 456 1199 472 1189 q 417 1208 439 1208 q 365 1187 385 1208 q 332 1125 346 1165 l 247 1178 q 313 1297 268 1254 q 421 1339 358 1339 q 488 1325 461 1339 q 544 1286 515 1311 q 585 1256 569 1265 q 622 1247 601 1247 q 670 1269 651 1247 q 703 1331 689 1290 l 789 1278 q 722 1158 767 1200 q 614 1117 678 1117 z "},"Œ":{"ha":1444,"x_min":38,"x_max":1432,"o":"m 665 31 q 501 -11 590 -11 q 153 131 269 -11 q 38 515 38 274 q 97 798 38 678 q 266 983 156 918 q 528 1047 376 1047 q 665 1021 600 1047 l 665 1032 l 1324 1032 l 1343 786 l 1232 786 l 1186 925 l 908 940 l 908 579 l 1079 585 l 1103 697 l 1204 697 l 1204 349 l 1103 349 l 1079 469 l 908 474 l 908 96 l 1222 115 l 1319 290 l 1432 258 l 1385 0 l 665 0 l 665 31 m 510 79 q 603 120 564 79 q 665 238 642 161 l 665 828 q 605 927 643 899 q 507 956 567 956 q 351 844 406 956 q 297 515 297 733 q 353 189 297 299 q 510 79 408 79 z "},"P":{"ha":928,"x_min":49,"x_max":906,"o":"m 156 915 l 53 935 l 53 1032 l 279 1032 q 365 1035 301 1032 q 511 1040 446 1040 q 747 1004 661 1040 q 869 901 833 968 q 906 731 906 833 q 797 454 906 553 q 489 356 689 356 q 393 360 426 356 l 393 107 l 576 92 l 576 0 l 49 0 l 49 92 l 156 106 l 156 915 m 392 456 q 483 449 419 449 q 664 725 664 449 q 619 894 664 840 q 483 947 574 947 q 422 944 444 947 q 392 939 400 940 l 392 456 z "},"Ṗ":{"ha":928,"x_min":49,"x_max":906,"o":"m 156 915 l 53 935 l 53 1032 l 279 1032 q 365 1035 301 1032 q 511 1040 446 1040 q 747 1004 661 1040 q 869 901 833 968 q 906 731 906 833 q 797 454 906 553 q 489 356 689 356 q 393 360 426 356 l 393 107 l 576 92 l 576 0 l 49 0 l 49 92 l 156 106 l 156 915 m 392 456 q 483 449 419 449 q 664 725 664 449 q 619 894 664 840 q 483 947 574 947 q 422 944 444 947 q 392 939 400 940 l 392 456 m 506 1124 q 424 1153 456 1124 q 392 1229 392 1183 q 425 1317 392 1285 q 519 1350 458 1350 q 609 1321 576 1350 q 642 1246 642 1292 q 608 1156 642 1189 q 506 1124 574 1124 z "},"Þ":{"ha":931,"x_min":44,"x_max":901,"o":"m 154 917 l 44 936 l 44 1032 l 506 1032 l 507 936 l 392 917 l 392 799 q 446 804 428 801 q 593 813 538 813 q 901 536 901 813 q 810 297 901 376 q 553 218 719 218 q 392 226 488 218 l 392 106 l 533 90 l 533 0 l 44 0 l 44 90 l 154 106 l 154 917 m 507 310 q 611 367 571 310 q 651 526 651 425 q 613 663 651 610 q 493 715 575 715 q 392 704 436 715 l 392 315 q 463 310 426 310 q 507 310 500 310 z "},"Q":{"ha":1017,"x_min":38,"x_max":1283,"o":"m 1107 -260 q 947 -222 1019 -260 q 778 -114 874 -185 q 678 -44 717 -68 q 600 -6 640 -19 q 496 -15 542 -15 q 150 126 263 -15 q 38 514 38 267 q 97 794 38 674 q 263 979 156 914 q 514 1044 371 1044 q 866 912 753 1044 q 979 533 979 779 q 914 236 979 364 q 732 43 849 108 q 828 15 779 35 q 946 -39 876 -6 q 1086 -100 1033 -81 q 1189 -119 1139 -119 q 1263 -112 1242 -119 l 1283 -178 q 1208 -241 1247 -222 q 1107 -260 1168 -260 m 507 78 q 661 194 606 78 q 717 532 717 311 q 664 853 717 754 q 510 953 611 953 q 355 843 410 953 q 300 515 300 733 q 353 185 300 293 q 507 78 407 78 z "},"R":{"ha":1015,"x_min":47,"x_max":1024,"o":"m 47 92 l 154 106 l 154 917 l 53 936 l 53 1032 l 267 1032 q 324 1033 293 1032 q 372 1036 356 1035 q 500 1042 447 1042 q 736 1013 649 1042 q 863 924 824 985 q 903 765 903 864 q 853 589 903 671 q 706 476 803 507 q 813 388 769 453 q 904 224 857 324 q 949 137 932 165 q 983 104 965 108 l 1024 92 l 1024 0 l 760 0 q 717 44 739 0 q 660 183 694 89 q 585 362 617 299 q 517 439 554 425 l 392 439 l 392 106 l 515 92 l 515 0 l 47 0 l 47 92 m 499 529 q 611 585 571 529 q 651 756 651 642 q 612 902 651 856 q 479 949 572 949 q 392 942 429 949 l 392 533 q 451 529 410 529 q 499 529 493 529 z "},"Ŕ":{"ha":1015,"x_min":47,"x_max":1024,"o":"m 47 92 l 154 106 l 154 917 l 53 936 l 53 1032 l 267 1032 q 324 1033 293 1032 q 372 1036 356 1035 q 500 1042 447 1042 q 736 1013 649 1042 q 863 924 824 985 q 903 765 903 864 q 853 589 903 671 q 706 476 803 507 q 813 388 769 453 q 904 224 857 324 q 949 137 932 165 q 983 104 965 108 l 1024 92 l 1024 0 l 760 0 q 717 44 739 0 q 660 183 694 89 q 585 362 617 299 q 517 439 554 425 l 392 439 l 392 106 l 515 92 l 515 0 l 47 0 l 47 92 m 499 529 q 611 585 571 529 q 651 756 651 642 q 612 902 651 856 q 479 949 572 949 q 392 942 429 949 l 392 533 q 451 529 410 529 q 499 529 493 529 m 390 1161 l 569 1364 l 725 1268 q 604 1164 674 1211 q 489 1100 535 1117 l 390 1161 z "},"Ř":{"ha":1015,"x_min":47,"x_max":1024,"o":"m 47 92 l 154 106 l 154 917 l 53 936 l 53 1032 l 267 1032 q 324 1033 293 1032 q 372 1036 356 1035 q 500 1042 447 1042 q 736 1013 649 1042 q 863 924 824 985 q 903 765 903 864 q 853 589 903 671 q 706 476 803 507 q 813 388 769 453 q 904 224 857 324 q 949 137 932 165 q 983 104 965 108 l 1024 92 l 1024 0 l 760 0 q 717 44 739 0 q 660 183 694 89 q 585 362 617 299 q 517 439 554 425 l 392 439 l 392 106 l 515 92 l 515 0 l 47 0 l 47 92 m 499 529 q 611 585 571 529 q 651 756 651 642 q 612 902 651 856 q 479 949 572 949 q 392 942 429 949 l 392 533 q 451 529 410 529 q 499 529 493 529 m 510 1242 l 696 1365 l 769 1303 l 576 1110 l 443 1110 l 247 1304 l 324 1365 l 510 1242 z "},"Ŗ":{"ha":1015,"x_min":47,"x_max":1024,"o":"m 47 92 l 154 106 l 154 917 l 53 936 l 53 1032 l 267 1032 q 324 1033 293 1032 q 372 1036 356 1035 q 500 1042 447 1042 q 736 1013 649 1042 q 863 924 824 985 q 903 765 903 864 q 853 589 903 671 q 706 476 803 507 q 813 388 769 453 q 904 224 857 324 q 949 137 932 165 q 983 104 965 108 l 1024 92 l 1024 0 l 760 0 q 717 44 739 0 q 660 183 694 89 q 585 362 617 299 q 517 439 554 425 l 392 439 l 392 106 l 515 92 l 515 0 l 47 0 l 47 92 m 499 529 q 611 585 571 529 q 651 756 651 642 q 612 902 651 856 q 479 949 572 949 q 392 942 429 949 l 392 533 q 451 529 410 529 q 499 529 493 529 m 679 -174 q 658 -265 679 -221 q 608 -341 636 -310 q 561 -379 581 -372 l 560 -379 l 488 -358 l 485 -349 q 509 -315 500 -342 q 518 -261 518 -289 q 493 -212 518 -232 q 461 -147 461 -189 q 494 -83 461 -103 q 567 -64 526 -64 l 571 -64 q 649 -92 619 -64 q 679 -174 679 -121 z "},"S":{"ha":846,"x_min":75,"x_max":814,"o":"m 418 -15 q 277 -3 342 -15 q 142 31 213 10 q 75 46 96 44 l 88 306 l 217 306 l 251 128 q 308 96 267 110 q 406 82 349 82 q 533 119 490 82 q 575 222 575 157 q 548 302 575 268 q 473 365 521 336 q 342 431 425 393 q 156 558 232 481 q 81 761 81 635 q 121 903 81 839 q 243 1006 161 967 q 447 1044 325 1044 q 576 1035 521 1044 q 693 1008 631 1025 q 744 996 726 997 l 736 749 l 610 749 l 578 919 q 534 942 568 932 q 458 953 500 953 q 344 917 382 953 q 306 824 306 881 q 338 736 306 774 q 415 673 369 699 q 553 601 460 647 q 681 528 626 565 q 775 433 736 492 q 814 297 814 375 q 777 150 814 221 q 651 32 740 79 q 418 -15 563 -15 z "},"Ś":{"ha":846,"x_min":75,"x_max":814,"o":"m 418 -15 q 277 -3 342 -15 q 142 31 213 10 q 75 46 96 44 l 88 306 l 217 306 l 251 128 q 308 96 267 110 q 406 82 349 82 q 533 119 490 82 q 575 222 575 157 q 548 302 575 268 q 473 365 521 336 q 342 431 425 393 q 156 558 232 481 q 81 761 81 635 q 121 903 81 839 q 243 1006 161 967 q 447 1044 325 1044 q 576 1035 521 1044 q 693 1008 631 1025 q 744 996 726 997 l 736 749 l 610 749 l 578 919 q 534 942 568 932 q 458 953 500 953 q 344 917 382 953 q 306 824 306 881 q 338 736 306 774 q 415 673 369 699 q 553 601 460 647 q 681 528 626 565 q 775 433 736 492 q 814 297 814 375 q 777 150 814 221 q 651 32 740 79 q 418 -15 563 -15 m 346 1161 l 525 1364 l 681 1268 q 560 1164 629 1211 q 444 1100 490 1117 l 346 1161 z "},"Š":{"ha":846,"x_min":75,"x_max":814,"o":"m 418 -15 q 277 -3 342 -15 q 142 31 213 10 q 75 46 96 44 l 88 306 l 217 306 l 251 128 q 308 96 267 110 q 406 82 349 82 q 533 119 490 82 q 575 222 575 157 q 548 302 575 268 q 473 365 521 336 q 342 431 425 393 q 156 558 232 481 q 81 761 81 635 q 121 903 81 839 q 243 1006 161 967 q 447 1044 325 1044 q 576 1035 521 1044 q 693 1008 631 1025 q 744 996 726 997 l 736 749 l 610 749 l 578 919 q 534 942 568 932 q 458 953 500 953 q 344 917 382 953 q 306 824 306 881 q 338 736 306 774 q 415 673 369 699 q 553 601 460 647 q 681 528 626 565 q 775 433 736 492 q 814 297 814 375 q 777 150 814 221 q 651 32 740 79 q 418 -15 563 -15 m 465 1242 l 651 1365 l 725 1303 l 532 1110 l 399 1110 l 203 1304 l 279 1365 l 465 1242 z "},"Ş":{"ha":846,"x_min":75,"x_max":814,"o":"m 88 306 l 217 306 l 251 128 q 308 96 267 110 q 406 82 349 82 q 533 119 490 82 q 575 222 575 157 q 548 302 575 268 q 473 365 521 336 q 342 431 425 393 q 156 558 232 481 q 81 761 81 635 q 121 903 81 839 q 243 1006 161 967 q 447 1044 325 1044 q 576 1035 521 1044 q 693 1008 631 1025 q 744 996 726 997 l 736 749 l 610 749 l 578 919 q 534 942 568 932 q 458 953 500 953 q 344 917 382 953 q 306 824 306 881 q 338 736 306 774 q 415 673 369 699 q 553 601 460 647 q 681 528 626 565 q 775 433 736 492 q 814 297 814 375 q 783 163 814 228 q 681 49 753 97 q 490 -11 608 0 q 547 -93 522 -46 q 571 -190 571 -140 q 519 -319 571 -282 q 364 -356 468 -356 q 312 -350 340 -356 q 265 -336 283 -344 l 265 -208 q 322 -217 294 -217 q 378 -210 358 -217 q 409 -183 399 -204 q 419 -121 419 -162 q 410 -66 419 -94 q 386 -14 400 -37 q 260 1 318 -11 q 140 31 203 13 q 75 46 93 44 l 88 306 z "},"Ŝ":{"ha":846,"x_min":75,"x_max":814,"o":"m 418 -15 q 277 -3 342 -15 q 142 31 213 10 q 75 46 96 44 l 88 306 l 217 306 l 251 128 q 308 96 267 110 q 406 82 349 82 q 533 119 490 82 q 575 222 575 157 q 548 302 575 268 q 473 365 521 336 q 342 431 425 393 q 156 558 232 481 q 81 761 81 635 q 121 903 81 839 q 243 1006 161 967 q 447 1044 325 1044 q 576 1035 521 1044 q 693 1008 631 1025 q 744 996 726 997 l 736 749 l 610 749 l 578 919 q 534 942 568 932 q 458 953 500 953 q 344 917 382 953 q 306 824 306 881 q 338 736 306 774 q 415 673 369 699 q 553 601 460 647 q 681 528 626 565 q 775 433 736 492 q 814 297 814 375 q 777 150 814 221 q 651 32 740 79 q 418 -15 563 -15 m 532 1361 l 740 1160 l 664 1096 l 465 1228 l 265 1096 l 190 1158 l 400 1361 l 532 1361 z "},"Ș":{"ha":846,"x_min":75,"x_max":814,"o":"m 418 -15 q 277 -3 342 -15 q 142 31 213 10 q 75 46 96 44 l 88 306 l 217 306 l 251 128 q 308 96 267 110 q 406 82 349 82 q 533 119 490 82 q 575 222 575 157 q 548 302 575 268 q 473 365 521 336 q 342 431 425 393 q 156 558 232 481 q 81 761 81 635 q 121 903 81 839 q 243 1006 161 967 q 447 1044 325 1044 q 576 1035 521 1044 q 693 1008 631 1025 q 744 996 726 997 l 736 749 l 610 749 l 578 919 q 534 942 568 932 q 458 953 500 953 q 344 917 382 953 q 306 824 306 881 q 338 736 306 774 q 415 673 369 699 q 553 601 460 647 q 681 528 626 565 q 775 433 736 492 q 814 297 814 375 q 777 150 814 221 q 651 32 740 79 q 418 -15 563 -15 m 535 -174 q 513 -265 535 -221 q 464 -341 492 -310 q 417 -379 436 -372 l 415 -379 l 343 -358 l 340 -349 q 365 -315 356 -342 q 374 -261 374 -289 q 349 -212 374 -232 q 317 -147 317 -189 q 349 -83 317 -103 q 422 -64 382 -64 l 426 -64 q 505 -92 475 -64 q 535 -174 535 -121 z "},"Ṡ":{"ha":846,"x_min":75,"x_max":814,"o":"m 418 -15 q 277 -3 342 -15 q 142 31 213 10 q 75 46 96 44 l 88 306 l 217 306 l 251 128 q 308 96 267 110 q 406 82 349 82 q 533 119 490 82 q 575 222 575 157 q 548 302 575 268 q 473 365 521 336 q 342 431 425 393 q 156 558 232 481 q 81 761 81 635 q 121 903 81 839 q 243 1006 161 967 q 447 1044 325 1044 q 576 1035 521 1044 q 693 1008 631 1025 q 744 996 726 997 l 736 749 l 610 749 l 578 919 q 534 942 568 932 q 458 953 500 953 q 344 917 382 953 q 306 824 306 881 q 338 736 306 774 q 415 673 369 699 q 553 601 460 647 q 681 528 626 565 q 775 433 736 492 q 814 297 814 375 q 777 150 814 221 q 651 32 740 79 q 418 -15 563 -15 m 453 1124 q 371 1153 403 1124 q 339 1229 339 1183 q 372 1317 339 1285 q 467 1350 406 1350 q 556 1321 524 1350 q 589 1246 589 1292 q 555 1156 589 1189 q 453 1124 521 1124 z "},"Ṣ":{"ha":846,"x_min":75,"x_max":814,"o":"m 418 -15 q 277 -3 342 -15 q 142 31 213 10 q 75 46 96 44 l 88 306 l 217 306 l 251 128 q 308 96 267 110 q 406 82 349 82 q 533 119 490 82 q 575 222 575 157 q 548 302 575 268 q 473 365 521 336 q 342 431 425 393 q 156 558 232 481 q 81 761 81 635 q 121 903 81 839 q 243 1006 161 967 q 447 1044 325 1044 q 576 1035 521 1044 q 693 1008 631 1025 q 744 996 726 997 l 736 749 l 610 749 l 578 919 q 534 942 568 932 q 458 953 500 953 q 344 917 382 953 q 306 824 306 881 q 338 736 306 774 q 415 673 369 699 q 553 601 460 647 q 681 528 626 565 q 775 433 736 492 q 814 297 814 375 q 777 150 814 221 q 651 32 740 79 q 418 -15 563 -15 m 413 -311 q 332 -281 364 -311 q 300 -204 300 -250 q 334 -114 300 -150 q 426 -78 368 -78 q 513 -108 482 -78 q 544 -185 544 -139 q 510 -276 544 -240 q 414 -311 476 -311 l 413 -311 z "},"ẞ":{"ha":1038,"x_min":14,"x_max":1032,"o":"m 89 106 l 89 617 q 149 845 89 749 q 322 993 210 942 q 583 1044 433 1044 q 738 1031 676 1044 q 867 993 799 1017 l 904 981 l 903 889 l 706 653 q 860 583 792 621 q 980 476 928 544 q 1032 310 1032 408 q 942 72 1032 161 q 690 -17 853 -17 q 587 -6 631 -17 q 493 24 543 6 q 435 40 449 39 l 440 288 l 554 288 l 588 113 q 624 87 599 96 q 679 78 650 78 q 760 125 729 78 q 792 278 792 172 q 751 393 792 338 q 646 491 710 449 q 518 554 582 533 l 518 664 l 704 908 q 557 954 647 954 q 382 870 444 954 q 319 636 319 786 l 319 0 l 14 0 l 14 92 l 89 106 z "},"Ə":{"ha":958,"x_min":49,"x_max":924,"o":"m 444 -15 q 248 28 336 -15 q 106 163 160 72 q 49 389 51 253 q 52 488 49 439 q 61 563 56 538 l 679 563 q 610 844 671 740 q 446 949 550 949 q 362 935 393 949 q 314 904 331 922 q 278 853 297 886 l 253 757 l 92 763 l 93 989 q 190 1007 128 990 q 326 1033 265 1024 q 468 1043 388 1043 q 706 983 603 1043 q 866 805 808 922 q 924 525 924 688 q 863 235 924 357 q 692 49 801 113 q 444 -15 583 -15 m 475 97 q 681 451 679 97 l 289 451 q 286 379 286 426 q 331 182 286 267 q 475 97 376 97 z "},"T":{"ha":1007,"x_min":22,"x_max":978,"o":"m 385 929 l 211 922 l 153 613 l 22 613 l 44 1032 l 960 1032 l 978 613 l 854 613 l 793 922 l 625 929 l 625 107 l 818 92 l 818 0 l 208 0 l 208 92 l 385 107 l 385 929 z "},"Ŧ":{"ha":1019,"x_min":29,"x_max":985,"o":"m 390 929 l 218 922 l 160 613 l 29 613 l 51 1032 l 965 1032 l 985 613 l 860 613 l 800 922 l 632 929 l 632 496 l 778 496 l 778 390 l 632 390 l 632 107 l 825 92 l 825 0 l 215 0 l 215 92 l 390 107 l 390 390 l 242 390 l 242 496 l 390 496 l 390 929 z "},"Ť":{"ha":1007,"x_min":22,"x_max":978,"o":"m 385 929 l 211 922 l 153 613 l 22 613 l 44 1032 l 960 1032 l 978 613 l 854 613 l 793 922 l 625 929 l 625 107 l 818 92 l 818 0 l 208 0 l 208 92 l 385 107 l 385 929 m 506 1242 l 692 1365 l 765 1303 l 572 1110 l 439 1110 l 243 1304 l 319 1365 l 506 1242 z "},"Ţ":{"ha":1007,"x_min":22,"x_max":978,"o":"m 44 1032 l 960 1032 l 978 613 l 854 613 l 793 922 l 625 929 l 625 107 l 818 92 l 818 0 l 560 0 q 625 -87 594 -33 q 653 -200 656 -142 q 597 -321 647 -286 q 444 -356 546 -356 q 392 -350 421 -356 q 346 -336 364 -344 l 346 -208 q 404 -217 375 -217 q 478 -199 457 -217 q 500 -121 500 -181 q 487 -56 500 -89 q 458 0 474 -22 l 208 0 l 208 92 l 385 107 l 385 929 l 211 922 l 153 613 l 22 613 l 44 1032 z "},"Ț":{"ha":1007,"x_min":22,"x_max":978,"o":"m 385 929 l 211 922 l 153 613 l 22 613 l 44 1032 l 960 1032 l 978 613 l 854 613 l 793 922 l 625 929 l 625 107 l 818 92 l 818 0 l 208 0 l 208 92 l 385 107 l 385 929 m 617 -174 q 595 -265 617 -221 q 546 -341 574 -310 q 499 -379 518 -372 l 497 -379 l 425 -358 l 422 -349 q 447 -315 438 -342 q 456 -261 456 -289 q 431 -212 456 -232 q 399 -147 399 -189 q 431 -83 399 -103 q 504 -64 464 -64 l 508 -64 q 587 -92 557 -64 q 617 -174 617 -121 z "},"Ṫ":{"ha":1007,"x_min":22,"x_max":978,"o":"m 385 929 l 211 922 l 153 613 l 22 613 l 44 1032 l 960 1032 l 978 613 l 854 613 l 793 922 l 625 929 l 625 107 l 818 92 l 818 0 l 208 0 l 208 92 l 385 107 l 385 929 m 493 1124 q 411 1153 443 1124 q 379 1229 379 1183 q 413 1317 379 1285 q 507 1350 446 1350 q 597 1321 564 1350 q 629 1246 629 1292 q 595 1156 629 1189 q 493 1124 561 1124 z "},"Ṭ":{"ha":1007,"x_min":22,"x_max":978,"o":"m 385 929 l 211 922 l 153 613 l 22 613 l 44 1032 l 960 1032 l 978 613 l 854 613 l 793 922 l 625 929 l 625 107 l 818 92 l 818 0 l 208 0 l 208 92 l 385 107 l 385 929 m 494 -311 q 414 -281 446 -311 q 382 -204 382 -250 q 416 -114 382 -150 q 508 -78 450 -78 q 595 -108 564 -78 q 626 -185 626 -139 q 592 -276 626 -240 q 496 -311 558 -311 l 494 -311 z "},"U":{"ha":1035,"x_min":22,"x_max":1024,"o":"m 538 -11 q 215 93 322 -11 q 108 419 108 197 l 108 915 l 22 935 l 22 1032 l 471 1032 l 471 935 l 354 914 l 354 400 q 572 86 354 86 q 731 169 681 86 q 782 397 782 251 l 782 915 l 663 935 l 663 1032 l 1024 1032 l 1024 935 l 932 915 l 932 410 q 826 91 932 193 q 538 -11 719 -11 z "},"Ú":{"ha":1035,"x_min":22,"x_max":1024,"o":"m 538 -11 q 215 93 322 -11 q 108 419 108 197 l 108 915 l 22 935 l 22 1032 l 471 1032 l 471 935 l 354 914 l 354 400 q 572 86 354 86 q 731 169 681 86 q 782 397 782 251 l 782 915 l 663 935 l 663 1032 l 1024 1032 l 1024 935 l 932 915 l 932 410 q 826 91 932 193 q 538 -11 719 -11 m 446 1161 l 625 1364 l 781 1268 q 660 1164 729 1211 q 544 1100 590 1117 l 446 1161 z "},"Ŭ":{"ha":1035,"x_min":22,"x_max":1024,"o":"m 538 -11 q 215 93 322 -11 q 108 419 108 197 l 108 915 l 22 935 l 22 1032 l 471 1032 l 471 935 l 354 914 l 354 400 q 572 86 354 86 q 731 169 681 86 q 782 397 782 251 l 782 915 l 663 935 l 663 1032 l 1024 1032 l 1024 935 l 932 915 l 932 410 q 826 91 932 193 q 538 -11 719 -11 m 563 1103 q 419 1133 478 1103 q 331 1216 360 1164 q 301 1329 301 1268 q 303 1360 301 1350 l 413 1360 q 414 1344 413 1351 q 564 1243 439 1243 q 713 1344 688 1243 q 714 1360 714 1351 l 825 1360 q 826 1331 826 1350 q 795 1217 826 1269 q 704 1134 764 1165 q 563 1103 644 1103 z "},"Ǔ":{"ha":1035,"x_min":22,"x_max":1024,"o":"m 538 -11 q 215 93 322 -11 q 108 419 108 197 l 108 915 l 22 935 l 22 1032 l 471 1032 l 471 935 l 354 914 l 354 400 q 572 86 354 86 q 731 169 681 86 q 782 397 782 251 l 782 915 l 663 935 l 663 1032 l 1024 1032 l 1024 935 l 932 915 l 932 410 q 826 91 932 193 q 538 -11 719 -11 m 565 1242 l 751 1365 l 825 1303 l 632 1110 l 499 1110 l 303 1304 l 379 1365 l 565 1242 z "},"Û":{"ha":1035,"x_min":22,"x_max":1024,"o":"m 538 -11 q 215 93 322 -11 q 108 419 108 197 l 108 915 l 22 935 l 22 1032 l 471 1032 l 471 935 l 354 914 l 354 400 q 572 86 354 86 q 731 169 681 86 q 782 397 782 251 l 782 915 l 663 935 l 663 1032 l 1024 1032 l 1024 935 l 932 915 l 932 410 q 826 91 932 193 q 538 -11 719 -11 m 632 1361 l 840 1160 l 764 1096 l 565 1228 l 365 1096 l 290 1158 l 500 1361 l 632 1361 z "},"Ü":{"ha":1035,"x_min":22,"x_max":1024,"o":"m 538 -11 q 215 93 322 -11 q 108 419 108 197 l 108 915 l 22 935 l 22 1032 l 471 1032 l 471 935 l 354 914 l 354 400 q 572 86 354 86 q 731 169 681 86 q 782 397 782 251 l 782 915 l 663 935 l 663 1032 l 1024 1032 l 1024 935 l 932 915 l 932 410 q 826 91 932 193 q 538 -11 719 -11 m 367 1114 q 297 1145 324 1114 q 271 1221 271 1176 q 300 1313 271 1278 q 388 1347 329 1347 l 389 1347 q 469 1317 442 1347 q 496 1240 496 1286 q 464 1149 496 1185 q 368 1114 432 1114 l 367 1114 m 729 1114 q 660 1147 686 1114 q 633 1221 633 1179 q 662 1313 633 1278 q 749 1347 690 1347 l 750 1347 q 831 1317 804 1347 q 857 1240 857 1286 q 826 1149 857 1185 q 729 1114 794 1114 z "},"Ụ":{"ha":1035,"x_min":22,"x_max":1024,"o":"m 538 -11 q 215 93 322 -11 q 108 419 108 197 l 108 915 l 22 935 l 22 1032 l 471 1032 l 471 935 l 354 914 l 354 400 q 572 86 354 86 q 731 169 681 86 q 782 397 782 251 l 782 915 l 663 935 l 663 1032 l 1024 1032 l 1024 935 l 932 915 l 932 410 q 826 91 932 193 q 538 -11 719 -11 m 508 -311 q 428 -281 460 -311 q 396 -204 396 -250 q 430 -114 396 -150 q 522 -78 464 -78 q 609 -108 578 -78 q 640 -185 640 -139 q 606 -276 640 -240 q 510 -311 572 -311 l 508 -311 z "},"Ù":{"ha":1035,"x_min":22,"x_max":1024,"o":"m 538 -11 q 215 93 322 -11 q 108 419 108 197 l 108 915 l 22 935 l 22 1032 l 471 1032 l 471 935 l 354 914 l 354 400 q 572 86 354 86 q 731 169 681 86 q 782 397 782 251 l 782 915 l 663 935 l 663 1032 l 1024 1032 l 1024 935 l 932 915 l 932 410 q 826 91 932 193 q 538 -11 719 -11 m 585 1100 q 458 1168 533 1118 q 340 1268 382 1218 l 488 1364 l 674 1161 l 585 1100 z "},"Ủ":{"ha":1035,"x_min":22,"x_max":1024,"o":"m 538 -11 q 215 93 322 -11 q 108 419 108 197 l 108 915 l 22 935 l 22 1032 l 471 1032 l 471 935 l 354 914 l 354 400 q 572 86 354 86 q 731 169 681 86 q 782 397 782 251 l 782 915 l 663 935 l 663 1032 l 1024 1032 l 1024 935 l 932 915 l 932 410 q 826 91 932 193 q 538 -11 719 -11 m 525 1078 q 503 1135 503 1103 q 510 1157 503 1149 q 535 1178 518 1165 q 560 1198 551 1189 q 568 1222 568 1207 q 551 1256 568 1246 q 494 1267 535 1267 q 458 1263 478 1267 q 428 1250 439 1258 l 424 1344 q 474 1360 444 1354 q 528 1365 503 1365 q 717 1253 717 1365 q 639 1151 717 1194 q 608 1103 608 1138 q 611 1078 608 1086 l 525 1078 z "},"Ư":{"ha":1035,"x_min":22,"x_max":1128,"o":"m 22 1032 l 471 1032 l 471 935 l 354 914 l 354 400 q 572 86 354 86 q 731 169 681 86 q 782 397 782 251 l 782 915 l 663 935 l 663 1032 l 833 1032 q 982 1165 982 1032 q 978 1201 982 1189 l 1122 1201 q 1126 1172 1126 1188 q 1074 1006 1128 1065 q 932 929 1021 946 l 932 410 q 826 91 932 193 q 538 -11 719 -11 q 215 93 322 -11 q 108 419 108 197 l 108 915 l 22 935 l 22 1032 z "},"Ứ":{"ha":1035,"x_min":22,"x_max":1126,"o":"m 22 1032 l 471 1032 l 471 935 l 354 914 l 354 400 q 572 86 354 86 q 731 169 681 86 q 782 397 782 251 l 782 915 l 663 935 l 663 1032 l 833 1032 q 982 1165 982 1032 q 978 1201 982 1189 l 1122 1201 q 1126 1172 1126 1188 q 1074 1006 1128 1065 q 932 929 1021 946 l 932 410 q 826 91 932 193 q 538 -11 719 -11 q 215 93 322 -11 q 108 419 108 197 l 108 915 l 22 935 l 22 1032 m 431 1161 l 610 1364 l 765 1268 q 644 1164 714 1211 q 529 1100 575 1117 l 431 1161 z "},"Ự":{"ha":1035,"x_min":22,"x_max":1126,"o":"m 22 1032 l 471 1032 l 471 935 l 354 914 l 354 400 q 572 86 354 86 q 731 169 681 86 q 782 397 782 251 l 782 915 l 663 935 l 663 1032 l 833 1032 q 982 1165 982 1032 q 978 1201 982 1189 l 1122 1201 q 1126 1172 1126 1188 q 1074 1006 1128 1065 q 932 929 1021 946 l 932 410 q 826 91 932 193 q 538 -11 719 -11 q 215 93 322 -11 q 108 419 108 197 l 108 915 l 22 935 l 22 1032 m 528 -311 q 447 -281 479 -311 q 415 -204 415 -250 q 449 -114 415 -150 q 542 -78 483 -78 q 628 -108 597 -78 q 660 -185 660 -139 q 626 -276 660 -240 q 529 -311 592 -311 l 528 -311 z "},"Ừ":{"ha":1035,"x_min":22,"x_max":1126,"o":"m 22 1032 l 471 1032 l 471 935 l 354 914 l 354 400 q 572 86 354 86 q 731 169 681 86 q 782 397 782 251 l 782 915 l 663 935 l 663 1032 l 833 1032 q 982 1165 982 1032 q 978 1201 982 1189 l 1122 1201 q 1126 1172 1126 1188 q 1074 1006 1128 1065 q 932 929 1021 946 l 932 410 q 826 91 932 193 q 538 -11 719 -11 q 215 93 322 -11 q 108 419 108 197 l 108 915 l 22 935 l 22 1032 m 569 1100 q 442 1168 518 1118 q 325 1268 367 1218 l 472 1364 l 658 1161 l 569 1100 z "},"Ử":{"ha":1035,"x_min":22,"x_max":1126,"o":"m 22 1032 l 471 1032 l 471 935 l 354 914 l 354 400 q 572 86 354 86 q 731 169 681 86 q 782 397 782 251 l 782 915 l 663 935 l 663 1032 l 833 1032 q 982 1165 982 1032 q 978 1201 982 1189 l 1122 1201 q 1126 1172 1126 1188 q 1074 1006 1128 1065 q 932 929 1021 946 l 932 410 q 826 91 932 193 q 538 -11 719 -11 q 215 93 322 -11 q 108 419 108 197 l 108 915 l 22 935 l 22 1032 m 510 1078 q 488 1135 488 1103 q 495 1157 488 1149 q 519 1178 503 1165 q 544 1198 536 1189 q 553 1222 553 1207 q 536 1256 553 1246 q 479 1267 519 1267 q 443 1263 463 1267 q 413 1250 424 1258 l 408 1344 q 458 1360 429 1354 q 513 1365 488 1365 q 701 1253 701 1365 q 624 1151 701 1194 q 593 1103 593 1138 q 596 1078 593 1086 l 510 1078 z "},"Ữ":{"ha":1035,"x_min":22,"x_max":1126,"o":"m 22 1032 l 471 1032 l 471 935 l 354 914 l 354 400 q 572 86 354 86 q 731 169 681 86 q 782 397 782 251 l 782 915 l 663 935 l 663 1032 l 833 1032 q 982 1165 982 1032 q 978 1201 982 1189 l 1122 1201 q 1126 1172 1126 1188 q 1074 1006 1128 1065 q 932 929 1021 946 l 932 410 q 826 91 932 193 q 538 -11 719 -11 q 215 93 322 -11 q 108 419 108 197 l 108 915 l 22 935 l 22 1032 m 647 1117 q 583 1130 608 1117 q 528 1169 558 1143 q 489 1199 506 1189 q 450 1208 472 1208 q 399 1187 418 1208 q 365 1125 379 1165 l 281 1178 q 347 1297 301 1254 q 454 1339 392 1339 q 522 1325 494 1339 q 578 1286 549 1311 q 619 1256 603 1265 q 656 1247 635 1247 q 703 1269 685 1247 q 736 1331 722 1290 l 822 1278 q 756 1158 800 1200 q 647 1117 711 1117 z "},"Ű":{"ha":1035,"x_min":22,"x_max":1024,"o":"m 538 -11 q 215 93 322 -11 q 108 419 108 197 l 108 915 l 22 935 l 22 1032 l 471 1032 l 471 935 l 354 914 l 354 400 q 572 86 354 86 q 731 169 681 86 q 782 397 782 251 l 782 915 l 663 935 l 663 1032 l 1024 1032 l 1024 935 l 932 915 l 932 410 q 826 91 932 193 q 538 -11 719 -11 m 597 1274 q 494 1180 561 1231 q 369 1099 426 1129 l 286 1169 l 479 1365 l 597 1274 m 951 1274 q 850 1178 918 1228 q 722 1099 782 1128 l 638 1169 l 839 1364 l 951 1274 z "},"Ū":{"ha":1035,"x_min":22,"x_max":1024,"o":"m 538 -11 q 215 93 322 -11 q 108 419 108 197 l 108 915 l 22 935 l 22 1032 l 471 1032 l 471 935 l 354 914 l 354 400 q 572 86 354 86 q 731 169 681 86 q 782 397 782 251 l 782 915 l 663 935 l 663 1032 l 1024 1032 l 1024 935 l 932 915 l 932 410 q 826 91 932 193 q 538 -11 719 -11 m 790 1163 l 338 1163 l 338 1296 l 790 1296 l 790 1163 z "},"Ų":{"ha":1035,"x_min":22,"x_max":1024,"o":"m 538 -11 q 215 93 322 -11 q 108 419 108 197 l 108 915 l 22 935 l 22 1032 l 471 1032 l 471 935 l 354 914 l 354 400 q 572 86 354 86 q 731 169 681 86 q 782 397 782 251 l 782 915 l 663 935 l 663 1032 l 1024 1032 l 1024 935 l 932 915 l 932 410 q 875 158 932 254 q 714 19 818 61 q 592 -142 592 -72 q 615 -200 592 -176 q 679 -224 639 -224 q 723 -220 706 -224 q 764 -206 740 -217 l 764 -301 q 687 -335 736 -322 q 592 -347 638 -347 q 461 -313 513 -347 q 410 -210 410 -279 q 460 -98 410 -153 q 579 -8 511 -43 q 538 -11 551 -11 z "},"Ů":{"ha":1035,"x_min":22,"x_max":1024,"o":"m 538 -11 q 215 93 322 -11 q 108 419 108 197 l 108 915 l 22 935 l 22 1032 l 471 1032 l 471 935 l 354 914 l 354 400 q 572 86 354 86 q 731 169 681 86 q 782 397 782 251 l 782 915 l 663 935 l 663 1032 l 1024 1032 l 1024 935 l 932 915 l 932 410 q 826 91 932 193 q 538 -11 719 -11 m 560 1069 q 389 1106 460 1069 q 318 1213 318 1143 q 392 1327 318 1289 q 565 1365 465 1365 q 742 1328 676 1365 q 808 1219 808 1292 q 740 1106 808 1143 q 560 1069 672 1069 m 563 1153 q 646 1169 618 1153 q 674 1214 674 1186 q 648 1265 674 1250 q 564 1281 622 1281 q 479 1265 506 1281 q 453 1217 453 1250 q 563 1153 453 1153 z "},"Ũ":{"ha":1035,"x_min":22,"x_max":1024,"o":"m 538 -11 q 215 93 322 -11 q 108 419 108 197 l 108 915 l 22 935 l 22 1032 l 471 1032 l 471 935 l 354 914 l 354 400 q 572 86 354 86 q 731 169 681 86 q 782 397 782 251 l 782 915 l 663 935 l 663 1032 l 1024 1032 l 1024 935 l 932 915 l 932 410 q 826 91 932 193 q 538 -11 719 -11 m 663 1117 q 599 1130 624 1117 q 543 1169 574 1143 q 504 1199 521 1189 q 465 1208 488 1208 q 414 1187 433 1208 q 381 1125 394 1165 l 296 1178 q 362 1297 317 1254 q 469 1339 407 1339 q 537 1325 510 1339 q 593 1286 564 1311 q 634 1256 618 1265 q 671 1247 650 1247 q 719 1269 700 1247 q 751 1331 738 1290 l 838 1278 q 771 1158 815 1200 q 663 1117 726 1117 z "},"V":{"ha":968,"x_min":-26,"x_max":999,"o":"m -26 1032 l 428 1032 l 428 935 l 314 917 l 507 313 l 542 190 l 569 314 l 754 915 l 646 935 l 646 1032 l 999 1032 l 999 935 l 908 915 l 594 -10 l 401 -10 l 56 915 l -26 935 l -26 1032 z "},"W":{"ha":1426,"x_min":-25,"x_max":1451,"o":"m -25 1032 l 418 1032 l 418 935 l 303 915 l 468 303 l 494 174 l 518 303 l 660 797 l 619 915 l 532 935 l 532 1032 l 996 1032 l 996 935 l 864 915 l 1029 303 l 1060 163 l 1083 303 l 1232 915 l 1114 935 l 1114 1032 l 1451 1032 l 1451 935 l 1365 915 l 1108 -7 l 896 -7 l 717 611 l 547 -7 l 338 -7 l 56 915 l -25 935 l -25 1032 z "},"Ẃ":{"ha":1426,"x_min":-25,"x_max":1451,"o":"m -25 1032 l 418 1032 l 418 935 l 303 915 l 468 303 l 494 174 l 518 303 l 660 797 l 619 915 l 532 935 l 532 1032 l 996 1032 l 996 935 l 864 915 l 1029 303 l 1060 163 l 1083 303 l 1232 915 l 1114 935 l 1114 1032 l 1451 1032 l 1451 935 l 1365 915 l 1108 -7 l 896 -7 l 717 611 l 547 -7 l 338 -7 l 56 915 l -25 935 l -25 1032 m 596 1161 l 775 1364 l 931 1268 q 810 1164 879 1211 q 694 1100 740 1117 l 596 1161 z "},"Ŵ":{"ha":1426,"x_min":-25,"x_max":1451,"o":"m -25 1032 l 418 1032 l 418 935 l 303 915 l 468 303 l 494 174 l 518 303 l 660 797 l 619 915 l 532 935 l 532 1032 l 996 1032 l 996 935 l 864 915 l 1029 303 l 1060 163 l 1083 303 l 1232 915 l 1114 935 l 1114 1032 l 1451 1032 l 1451 935 l 1365 915 l 1108 -7 l 896 -7 l 717 611 l 547 -7 l 338 -7 l 56 915 l -25 935 l -25 1032 m 782 1361 l 990 1160 l 914 1096 l 715 1228 l 515 1096 l 440 1158 l 650 1361 l 782 1361 z "},"Ẅ":{"ha":1426,"x_min":-25,"x_max":1451,"o":"m -25 1032 l 418 1032 l 418 935 l 303 915 l 468 303 l 494 174 l 518 303 l 660 797 l 619 915 l 532 935 l 532 1032 l 996 1032 l 996 935 l 864 915 l 1029 303 l 1060 163 l 1083 303 l 1232 915 l 1114 935 l 1114 1032 l 1451 1032 l 1451 935 l 1365 915 l 1108 -7 l 896 -7 l 717 611 l 547 -7 l 338 -7 l 56 915 l -25 935 l -25 1032 m 517 1114 q 447 1145 474 1114 q 421 1221 421 1176 q 450 1313 421 1278 q 538 1347 479 1347 l 539 1347 q 619 1317 592 1347 q 646 1240 646 1286 q 614 1149 646 1185 q 518 1114 582 1114 l 517 1114 m 879 1114 q 810 1147 836 1114 q 783 1221 783 1179 q 812 1313 783 1278 q 899 1347 840 1347 l 900 1347 q 981 1317 954 1347 q 1007 1240 1007 1286 q 976 1149 1007 1185 q 879 1114 944 1114 z "},"Ẁ":{"ha":1426,"x_min":-25,"x_max":1451,"o":"m -25 1032 l 418 1032 l 418 935 l 303 915 l 468 303 l 494 174 l 518 303 l 660 797 l 619 915 l 532 935 l 532 1032 l 996 1032 l 996 935 l 864 915 l 1029 303 l 1060 163 l 1083 303 l 1232 915 l 1114 935 l 1114 1032 l 1451 1032 l 1451 935 l 1365 915 l 1108 -7 l 896 -7 l 717 611 l 547 -7 l 338 -7 l 56 915 l -25 935 l -25 1032 m 735 1100 q 608 1168 683 1118 q 490 1268 532 1218 l 638 1364 l 824 1161 l 735 1100 z "},"X":{"ha":1004,"x_min":8,"x_max":1006,"o":"m 388 497 l 108 915 l 17 935 l 17 1032 l 494 1032 l 494 935 l 386 914 l 560 624 l 742 915 l 625 935 l 625 1032 l 990 1032 l 990 935 l 878 915 l 615 554 l 914 107 l 1006 92 l 1006 0 l 529 0 l 529 92 l 638 107 l 446 424 l 263 106 l 392 92 l 392 0 l 8 0 l 8 92 l 122 106 l 388 497 z "},"Y":{"ha":911,"x_min":-26,"x_max":942,"o":"m 338 414 l 50 917 l -26 935 l -26 1032 l 411 1032 l 411 935 l 321 915 l 479 597 l 514 507 l 550 597 l 693 915 l 588 935 l 588 1032 l 942 1032 l 942 935 l 857 919 l 590 415 l 590 107 l 738 92 l 738 0 l 194 0 l 194 92 l 338 107 l 338 414 z "},"Ý":{"ha":911,"x_min":-26,"x_max":942,"o":"m 338 414 l 50 917 l -26 935 l -26 1032 l 411 1032 l 411 935 l 321 915 l 479 597 l 514 507 l 550 597 l 693 915 l 588 935 l 588 1032 l 942 1032 l 942 935 l 857 919 l 590 415 l 590 107 l 738 92 l 738 0 l 194 0 l 194 92 l 338 107 l 338 414 m 368 1161 l 547 1364 l 703 1268 q 582 1164 651 1211 q 467 1100 513 1117 l 368 1161 z "},"Ŷ":{"ha":911,"x_min":-26,"x_max":942,"o":"m 338 414 l 50 917 l -26 935 l -26 1032 l 411 1032 l 411 935 l 321 915 l 479 597 l 514 507 l 550 597 l 693 915 l 588 935 l 588 1032 l 942 1032 l 942 935 l 857 919 l 590 415 l 590 107 l 738 92 l 738 0 l 194 0 l 194 92 l 338 107 l 338 414 m 554 1361 l 763 1160 l 686 1096 l 488 1228 l 288 1096 l 213 1158 l 422 1361 l 554 1361 z "},"Ÿ":{"ha":911,"x_min":-26,"x_max":942,"o":"m 338 414 l 50 917 l -26 935 l -26 1032 l 411 1032 l 411 935 l 321 915 l 479 597 l 514 507 l 550 597 l 693 915 l 588 935 l 588 1032 l 942 1032 l 942 935 l 857 919 l 590 415 l 590 107 l 738 92 l 738 0 l 194 0 l 194 92 l 338 107 l 338 414 m 289 1114 q 219 1145 246 1114 q 193 1221 193 1176 q 222 1313 193 1278 q 310 1347 251 1347 l 311 1347 q 391 1317 364 1347 q 418 1240 418 1286 q 386 1149 418 1185 q 290 1114 354 1114 l 289 1114 m 651 1114 q 582 1147 608 1114 q 556 1221 556 1179 q 584 1313 556 1278 q 671 1347 613 1347 l 672 1347 q 753 1317 726 1347 q 779 1240 779 1286 q 748 1149 779 1185 q 651 1114 717 1114 z "},"Ẏ":{"ha":911,"x_min":-26,"x_max":942,"o":"m 338 414 l 50 917 l -26 935 l -26 1032 l 411 1032 l 411 935 l 321 915 l 479 597 l 514 507 l 550 597 l 693 915 l 588 935 l 588 1032 l 942 1032 l 942 935 l 857 919 l 590 415 l 590 107 l 738 92 l 738 0 l 194 0 l 194 92 l 338 107 l 338 414 m 475 1124 q 393 1153 425 1124 q 361 1229 361 1183 q 394 1317 361 1285 q 489 1350 428 1350 q 578 1321 546 1350 q 611 1246 611 1292 q 577 1156 611 1189 q 475 1124 543 1124 z "},"Ỵ":{"ha":911,"x_min":-26,"x_max":942,"o":"m 338 414 l 50 917 l -26 935 l -26 1032 l 411 1032 l 411 935 l 321 915 l 479 597 l 514 507 l 550 597 l 693 915 l 588 935 l 588 1032 l 942 1032 l 942 935 l 857 919 l 590 415 l 590 107 l 738 92 l 738 0 l 194 0 l 194 92 l 338 107 l 338 414 m 446 -311 q 365 -281 397 -311 q 333 -204 333 -250 q 367 -114 333 -150 q 460 -78 401 -78 q 547 -108 515 -78 q 578 -185 578 -139 q 544 -276 578 -240 q 447 -311 510 -311 l 446 -311 z "},"Ỳ":{"ha":911,"x_min":-26,"x_max":942,"o":"m 338 414 l 50 917 l -26 935 l -26 1032 l 411 1032 l 411 935 l 321 915 l 479 597 l 514 507 l 550 597 l 693 915 l 588 935 l 588 1032 l 942 1032 l 942 935 l 857 919 l 590 415 l 590 107 l 738 92 l 738 0 l 194 0 l 194 92 l 338 107 l 338 414 m 507 1100 q 380 1168 456 1118 q 263 1268 304 1218 l 410 1364 l 596 1161 l 507 1100 z "},"Ỷ":{"ha":911,"x_min":-26,"x_max":942,"o":"m 338 414 l 50 917 l -26 935 l -26 1032 l 411 1032 l 411 935 l 321 915 l 479 597 l 514 507 l 550 597 l 693 915 l 588 935 l 588 1032 l 942 1032 l 942 935 l 857 919 l 590 415 l 590 107 l 738 92 l 738 0 l 194 0 l 194 92 l 338 107 l 338 414 m 451 1111 q 433 1141 442 1122 q 424 1178 424 1160 q 431 1199 424 1190 q 450 1219 438 1208 q 476 1247 467 1233 q 485 1281 485 1260 q 467 1330 485 1311 q 411 1349 450 1349 q 375 1344 394 1349 q 344 1332 356 1340 l 340 1453 q 390 1468 361 1463 q 442 1474 418 1474 q 583 1432 532 1474 q 633 1311 633 1390 q 617 1253 633 1276 q 581 1213 600 1229 q 556 1190 563 1196 q 542 1167 547 1182 q 538 1136 538 1153 q 540 1111 538 1119 l 451 1111 z "},"Ỹ":{"ha":911,"x_min":-26,"x_max":942,"o":"m 338 414 l 50 917 l -26 935 l -26 1032 l 411 1032 l 411 935 l 321 915 l 479 597 l 514 507 l 550 597 l 693 915 l 588 935 l 588 1032 l 942 1032 l 942 935 l 857 919 l 590 415 l 590 107 l 738 92 l 738 0 l 194 0 l 194 92 l 338 107 l 338 414 m 585 1117 q 521 1130 546 1117 q 465 1169 496 1143 q 426 1199 443 1189 q 388 1208 410 1208 q 336 1187 356 1208 q 303 1125 317 1165 l 218 1178 q 284 1297 239 1254 q 392 1339 329 1339 q 459 1325 432 1339 q 515 1286 486 1311 q 556 1256 540 1265 q 593 1247 572 1247 q 641 1269 622 1247 q 674 1331 660 1290 l 760 1278 q 693 1158 738 1200 q 585 1117 649 1117 z "},"Z":{"ha":910,"x_min":21,"x_max":878,"o":"m 603 947 l 272 926 l 194 736 l 75 753 l 110 1035 l 832 1035 l 867 953 l 379 183 l 282 93 l 678 122 l 758 336 l 878 311 l 847 0 l 67 0 l 21 81 l 519 853 l 603 947 z "},"Ź":{"ha":910,"x_min":21,"x_max":878,"o":"m 603 947 l 272 926 l 194 736 l 75 753 l 110 1035 l 832 1035 l 867 953 l 379 183 l 282 93 l 678 122 l 758 336 l 878 311 l 847 0 l 67 0 l 21 81 l 519 853 l 603 947 m 393 1161 l 572 1364 l 728 1268 q 607 1164 676 1211 q 492 1100 538 1117 l 393 1161 z "},"Ž":{"ha":910,"x_min":21,"x_max":878,"o":"m 603 947 l 272 926 l 194 736 l 75 753 l 110 1035 l 832 1035 l 867 953 l 379 183 l 282 93 l 678 122 l 758 336 l 878 311 l 847 0 l 67 0 l 21 81 l 519 853 l 603 947 m 513 1242 l 699 1365 l 772 1303 l 579 1110 l 446 1110 l 250 1304 l 326 1365 l 513 1242 z "},"Ż":{"ha":910,"x_min":21,"x_max":878,"o":"m 603 947 l 272 926 l 194 736 l 75 753 l 110 1035 l 832 1035 l 867 953 l 379 183 l 282 93 l 678 122 l 758 336 l 878 311 l 847 0 l 67 0 l 21 81 l 519 853 l 603 947 m 500 1124 q 418 1153 450 1124 q 386 1229 386 1183 q 419 1317 386 1285 q 514 1350 453 1350 q 603 1321 571 1350 q 636 1246 636 1292 q 602 1156 636 1189 q 500 1124 568 1124 z "},"Ẓ":{"ha":910,"x_min":21,"x_max":878,"o":"m 603 947 l 272 926 l 194 736 l 75 753 l 110 1035 l 832 1035 l 867 953 l 379 183 l 282 93 l 678 122 l 758 336 l 878 311 l 847 0 l 67 0 l 21 81 l 519 853 l 603 947 m 446 -311 q 365 -281 397 -311 q 333 -204 333 -250 q 367 -114 333 -150 q 460 -78 401 -78 q 547 -108 515 -78 q 578 -185 578 -139 q 544 -276 578 -240 q 447 -311 510 -311 l 446 -311 z "},"a":{"ha":792,"x_min":39,"x_max":775,"o":"m 39 222 q 163 410 39 344 q 490 476 288 475 l 490 504 q 479 583 490 554 q 439 627 468 613 q 353 642 410 642 q 231 626 285 642 q 119 583 178 610 l 72 683 q 144 727 94 701 q 265 772 194 753 q 411 790 335 790 q 585 761 522 790 q 676 671 649 732 q 703 504 703 610 l 703 92 l 775 92 l 775 4 q 686 -10 743 -3 q 589 -17 629 -17 q 519 -1 536 -17 q 501 60 501 14 l 501 92 q 408 17 467 50 q 274 -15 350 -15 q 155 13 208 -15 q 70 95 101 42 q 39 222 39 149 m 382 113 q 438 127 407 113 q 490 163 468 142 l 490 383 q 330 344 382 383 q 278 244 278 306 q 306 147 278 182 q 382 113 333 113 z "},"á":{"ha":792,"x_min":39,"x_max":775,"o":"m 39 222 q 163 410 39 344 q 490 476 288 475 l 490 504 q 479 583 490 554 q 439 627 468 613 q 353 642 410 642 q 231 626 285 642 q 119 583 178 610 l 72 683 q 144 727 94 701 q 265 772 194 753 q 411 790 335 790 q 585 761 522 790 q 676 671 649 732 q 703 504 703 610 l 703 92 l 775 92 l 775 4 q 686 -10 743 -3 q 589 -17 629 -17 q 519 -1 536 -17 q 501 60 501 14 l 501 92 q 408 17 467 50 q 274 -15 350 -15 q 155 13 208 -15 q 70 95 101 42 q 39 222 39 149 m 382 113 q 438 127 407 113 q 490 163 468 142 l 490 383 q 330 344 382 383 q 278 244 278 306 q 306 147 278 182 q 382 113 333 113 m 246 953 l 488 1250 l 621 1131 q 488 990 585 1069 q 326 885 390 910 l 246 953 z "},"ă":{"ha":792,"x_min":39,"x_max":775,"o":"m 39 222 q 163 410 39 344 q 490 476 288 475 l 490 504 q 479 583 490 554 q 439 627 468 613 q 353 642 410 642 q 231 626 285 642 q 119 583 178 610 l 72 683 q 144 727 94 701 q 265 772 194 753 q 411 790 335 790 q 585 761 522 790 q 676 671 649 732 q 703 504 703 610 l 703 92 l 775 92 l 775 4 q 686 -10 743 -3 q 589 -17 629 -17 q 519 -1 536 -17 q 501 60 501 14 l 501 92 q 408 17 467 50 q 274 -15 350 -15 q 155 13 208 -15 q 70 95 101 42 q 39 222 39 149 m 382 113 q 438 127 407 113 q 490 163 468 142 l 490 383 q 330 344 382 383 q 278 244 278 306 q 306 147 278 182 q 382 113 333 113 m 393 892 q 259 921 317 892 q 169 1001 201 950 q 138 1117 138 1053 q 140 1182 138 1168 l 244 1182 q 246 1153 244 1163 q 285 1075 250 1106 q 393 1044 321 1044 q 499 1074 464 1044 q 539 1151 535 1104 q 540 1182 542 1174 l 642 1182 l 643 1118 q 612 1001 643 1053 q 524 921 581 950 q 393 892 467 892 z "},"ắ":{"ha":792,"x_min":39,"x_max":775,"o":"m 39 222 q 163 410 39 344 q 490 476 288 475 l 490 504 q 479 583 490 554 q 439 627 468 613 q 353 642 410 642 q 231 626 285 642 q 119 583 178 610 l 72 683 q 144 727 94 701 q 265 772 194 753 q 411 790 335 790 q 585 761 522 790 q 676 671 649 732 q 703 504 703 610 l 703 92 l 775 92 l 775 4 q 686 -10 743 -3 q 589 -17 629 -17 q 519 -1 536 -17 q 501 60 501 14 l 501 92 q 408 17 467 50 q 274 -15 350 -15 q 155 13 208 -15 q 70 95 101 42 q 39 222 39 149 m 382 113 q 438 127 407 113 q 490 163 468 142 l 490 383 q 330 344 382 383 q 278 244 278 306 q 306 147 278 182 q 382 113 333 113 m 326 1175 l 474 1367 l 582 1275 q 496 1185 554 1238 q 403 1114 438 1132 l 326 1175 m 390 892 q 235 938 299 892 q 171 1069 171 985 q 174 1118 171 1107 l 269 1118 q 268 1089 268 1110 q 301 1034 269 1053 q 390 1015 333 1015 q 481 1033 451 1015 q 511 1088 510 1051 l 511 1096 q 510 1118 511 1113 l 606 1117 q 610 1071 610 1083 q 544 939 610 986 q 390 892 479 892 z "},"ặ":{"ha":792,"x_min":39,"x_max":775,"o":"m 39 222 q 163 410 39 344 q 490 476 288 475 l 490 504 q 479 583 490 554 q 439 627 468 613 q 353 642 410 642 q 231 626 285 642 q 119 583 178 610 l 72 683 q 144 727 94 701 q 265 772 194 753 q 411 790 335 790 q 585 761 522 790 q 676 671 649 732 q 703 504 703 610 l 703 92 l 775 92 l 775 4 q 686 -10 743 -3 q 589 -17 629 -17 q 519 -1 536 -17 q 501 60 501 14 l 501 92 q 408 17 467 50 q 274 -15 350 -15 q 155 13 208 -15 q 70 95 101 42 q 39 222 39 149 m 382 113 q 438 127 407 113 q 490 163 468 142 l 490 383 q 330 344 382 383 q 278 244 278 306 q 306 147 278 182 q 382 113 333 113 m 390 -311 q 310 -281 342 -311 q 278 -204 278 -250 q 312 -114 278 -150 q 404 -78 346 -78 q 491 -108 460 -78 q 522 -185 522 -139 q 488 -276 522 -240 q 392 -311 454 -311 l 390 -311 m 393 892 q 259 921 317 892 q 169 1001 201 950 q 138 1117 138 1053 q 140 1182 138 1168 l 244 1182 q 246 1153 244 1163 q 285 1075 250 1106 q 393 1044 321 1044 q 499 1074 464 1044 q 539 1151 535 1104 q 540 1182 542 1174 l 642 1182 l 643 1118 q 612 1001 643 1053 q 524 921 581 950 q 393 892 467 892 z "},"ằ":{"ha":792,"x_min":39,"x_max":775,"o":"m 39 222 q 163 410 39 344 q 490 476 288 475 l 490 504 q 479 583 490 554 q 439 627 468 613 q 353 642 410 642 q 231 626 285 642 q 119 583 178 610 l 72 683 q 144 727 94 701 q 265 772 194 753 q 411 790 335 790 q 585 761 522 790 q 676 671 649 732 q 703 504 703 610 l 703 92 l 775 92 l 775 4 q 686 -10 743 -3 q 589 -17 629 -17 q 519 -1 536 -17 q 501 60 501 14 l 501 92 q 408 17 467 50 q 274 -15 350 -15 q 155 13 208 -15 q 70 95 101 42 q 39 222 39 149 m 382 113 q 438 127 407 113 q 490 163 468 142 l 490 383 q 330 344 382 383 q 278 244 278 306 q 306 147 278 182 q 382 113 333 113 m 396 1114 q 304 1185 363 1132 q 218 1275 246 1239 l 326 1367 l 472 1175 l 396 1114 m 390 892 q 235 938 299 892 q 171 1069 171 985 q 174 1118 171 1107 l 269 1118 q 268 1089 268 1110 q 301 1034 269 1053 q 390 1015 333 1015 q 481 1033 451 1015 q 511 1088 510 1051 l 511 1096 q 510 1118 511 1113 l 606 1117 q 610 1071 610 1083 q 544 939 610 986 q 390 892 479 892 z "},"ẳ":{"ha":792,"x_min":39,"x_max":775,"o":"m 39 222 q 163 410 39 344 q 490 476 288 475 l 490 504 q 479 583 490 554 q 439 627 468 613 q 353 642 410 642 q 231 626 285 642 q 119 583 178 610 l 72 683 q 144 727 94 701 q 265 772 194 753 q 411 790 335 790 q 585 761 522 790 q 676 671 649 732 q 703 504 703 610 l 703 92 l 775 92 l 775 4 q 686 -10 743 -3 q 589 -17 629 -17 q 519 -1 536 -17 q 501 60 501 14 l 501 92 q 408 17 467 50 q 274 -15 350 -15 q 155 13 208 -15 q 70 95 101 42 q 39 222 39 149 m 382 113 q 438 127 407 113 q 490 163 468 142 l 490 383 q 330 344 382 383 q 278 244 278 306 q 306 147 278 182 q 382 113 333 113 m 363 1075 q 346 1099 354 1082 q 338 1129 338 1115 q 347 1160 338 1149 q 378 1186 357 1172 q 403 1206 394 1197 q 411 1229 411 1215 q 339 1272 411 1271 q 306 1269 324 1272 q 286 1264 289 1267 l 286 1360 q 314 1364 288 1361 q 356 1367 340 1367 q 480 1337 433 1367 q 526 1242 526 1307 q 507 1190 526 1211 q 444 1136 488 1168 q 424 1096 424 1122 q 426 1075 424 1089 l 363 1075 m 390 892 q 235 938 299 892 q 171 1069 171 985 q 174 1118 171 1107 l 269 1118 q 268 1089 268 1110 q 301 1034 269 1053 q 390 1015 333 1015 q 481 1033 451 1015 q 511 1088 510 1051 l 511 1096 q 510 1118 511 1113 l 606 1117 q 610 1071 610 1083 q 544 939 610 986 q 390 892 479 892 z "},"ẵ":{"ha":792,"x_min":39,"x_max":775,"o":"m 39 222 q 163 410 39 344 q 490 476 288 475 l 490 504 q 479 583 490 554 q 439 627 468 613 q 353 642 410 642 q 231 626 285 642 q 119 583 178 610 l 72 683 q 144 727 94 701 q 265 772 194 753 q 411 790 335 790 q 585 761 522 790 q 676 671 649 732 q 703 504 703 610 l 703 92 l 775 92 l 775 4 q 686 -10 743 -3 q 589 -17 629 -17 q 519 -1 536 -17 q 501 60 501 14 l 501 92 q 408 17 467 50 q 274 -15 350 -15 q 155 13 208 -15 q 70 95 101 42 q 39 222 39 149 m 382 113 q 438 127 407 113 q 490 163 468 142 l 490 383 q 330 344 382 383 q 278 244 278 306 q 306 147 278 182 q 382 113 333 113 m 175 1236 q 228 1326 190 1290 q 321 1363 265 1363 q 372 1352 350 1363 q 418 1322 393 1342 q 453 1299 440 1307 q 485 1292 467 1292 q 519 1302 507 1292 q 544 1336 532 1313 l 606 1306 q 551 1214 588 1249 q 461 1179 515 1179 q 415 1188 433 1179 q 365 1218 396 1197 q 331 1242 346 1233 q 297 1250 315 1250 q 261 1240 274 1250 q 233 1207 249 1229 l 175 1236 m 390 890 q 235 937 299 890 q 171 1068 171 983 q 174 1117 171 1106 l 269 1117 q 268 1088 268 1108 q 301 1033 269 1051 q 390 1014 333 1014 q 481 1032 451 1014 q 511 1086 510 1050 l 511 1094 q 510 1117 511 1111 l 606 1115 q 610 1069 610 1082 q 544 938 610 985 q 390 890 479 890 z "},"ǎ":{"ha":792,"x_min":39,"x_max":775,"o":"m 39 222 q 163 410 39 344 q 490 476 288 475 l 490 504 q 479 583 490 554 q 439 627 468 613 q 353 642 410 642 q 231 626 285 642 q 119 583 178 610 l 72 683 q 144 727 94 701 q 265 772 194 753 q 411 790 335 790 q 585 761 522 790 q 676 671 649 732 q 703 504 703 610 l 703 92 l 775 92 l 775 4 q 686 -10 743 -3 q 589 -17 629 -17 q 519 -1 536 -17 q 501 60 501 14 l 501 92 q 408 17 467 50 q 274 -15 350 -15 q 155 13 208 -15 q 70 95 101 42 q 39 222 39 149 m 382 113 q 438 127 407 113 q 490 163 468 142 l 490 383 q 330 344 382 383 q 278 244 278 306 q 306 147 278 182 q 382 113 333 113 m 389 1036 l 593 1215 l 667 1153 l 453 881 l 325 881 l 114 1153 l 188 1214 l 389 1036 z "},"â":{"ha":792,"x_min":39,"x_max":775,"o":"m 39 222 q 163 410 39 344 q 490 476 288 475 l 490 504 q 479 583 490 554 q 439 627 468 613 q 353 642 410 642 q 231 626 285 642 q 119 583 178 610 l 72 683 q 144 727 94 701 q 265 772 194 753 q 411 790 335 790 q 585 761 522 790 q 676 671 649 732 q 703 504 703 610 l 703 92 l 775 92 l 775 4 q 686 -10 743 -3 q 589 -17 629 -17 q 519 -1 536 -17 q 501 60 501 14 l 501 92 q 408 17 467 50 q 274 -15 350 -15 q 155 13 208 -15 q 70 95 101 42 q 39 222 39 149 m 382 113 q 438 127 407 113 q 490 163 468 142 l 490 383 q 330 344 382 383 q 278 244 278 306 q 306 147 278 182 q 382 113 333 113 m 453 1201 l 667 931 l 590 868 l 390 1042 l 186 867 l 113 929 l 325 1201 l 453 1201 z "},"ấ":{"ha":792,"x_min":39,"x_max":840,"o":"m 39 222 q 163 410 39 344 q 490 476 288 475 l 490 504 q 479 583 490 554 q 439 627 468 613 q 353 642 410 642 q 231 626 285 642 q 119 583 178 610 l 72 683 q 144 727 94 701 q 265 772 194 753 q 411 790 335 790 q 585 761 522 790 q 676 671 649 732 q 703 504 703 610 l 703 92 l 775 92 l 775 4 q 686 -10 743 -3 q 589 -17 629 -17 q 519 -1 536 -17 q 501 60 501 14 l 501 92 q 408 17 467 50 q 274 -15 350 -15 q 155 13 208 -15 q 70 95 101 42 q 39 222 39 149 m 382 113 q 438 127 407 113 q 490 163 468 142 l 490 383 q 330 344 382 383 q 278 244 278 306 q 306 147 278 182 q 382 113 333 113 m 553 1149 l 731 1364 l 840 1271 q 738 1166 810 1228 q 618 1086 667 1104 l 553 1149 m 447 1140 l 643 925 l 568 874 l 390 1010 l 207 874 l 140 922 l 335 1140 l 447 1140 z "},"ậ":{"ha":792,"x_min":39,"x_max":775,"o":"m 39 222 q 163 410 39 344 q 490 476 288 475 l 490 504 q 479 583 490 554 q 439 627 468 613 q 353 642 410 642 q 231 626 285 642 q 119 583 178 610 l 72 683 q 144 727 94 701 q 265 772 194 753 q 411 790 335 790 q 585 761 522 790 q 676 671 649 732 q 703 504 703 610 l 703 92 l 775 92 l 775 4 q 686 -10 743 -3 q 589 -17 629 -17 q 519 -1 536 -17 q 501 60 501 14 l 501 92 q 408 17 467 50 q 274 -15 350 -15 q 155 13 208 -15 q 70 95 101 42 q 39 222 39 149 m 382 113 q 438 127 407 113 q 490 163 468 142 l 490 383 q 330 344 382 383 q 278 244 278 306 q 306 147 278 182 q 382 113 333 113 m 390 -311 q 310 -281 342 -311 q 278 -204 278 -250 q 312 -114 278 -150 q 404 -78 346 -78 q 491 -108 460 -78 q 522 -185 522 -139 q 488 -276 522 -240 q 392 -311 454 -311 l 390 -311 m 453 1201 l 667 931 l 590 868 l 390 1042 l 186 867 l 113 929 l 325 1201 l 453 1201 z "},"ầ":{"ha":792,"x_min":39,"x_max":775,"o":"m 39 222 q 163 410 39 344 q 490 476 288 475 l 490 504 q 479 583 490 554 q 439 627 468 613 q 353 642 410 642 q 231 626 285 642 q 119 583 178 610 l 72 683 q 144 727 94 701 q 265 772 194 753 q 411 790 335 790 q 585 761 522 790 q 676 671 649 732 q 703 504 703 610 l 703 92 l 775 92 l 775 4 q 686 -10 743 -3 q 589 -17 629 -17 q 519 -1 536 -17 q 501 60 501 14 l 501 92 q 408 17 467 50 q 274 -15 350 -15 q 155 13 208 -15 q 70 95 101 42 q 39 222 39 149 m 382 113 q 438 127 407 113 q 490 163 468 142 l 490 383 q 330 344 382 383 q 278 244 278 306 q 306 147 278 182 q 382 113 333 113 m 686 1099 q 574 1169 639 1115 q 474 1272 510 1224 l 582 1365 l 751 1160 l 686 1099 m 447 1140 l 643 925 l 568 874 l 390 1010 l 207 874 l 140 922 l 335 1140 l 447 1140 z "},"ẩ":{"ha":792,"x_min":39,"x_max":775,"o":"m 39 222 q 163 410 39 344 q 490 476 288 475 l 490 504 q 479 583 490 554 q 439 627 468 613 q 353 642 410 642 q 231 626 285 642 q 119 583 178 610 l 72 683 q 144 727 94 701 q 265 772 194 753 q 411 790 335 790 q 585 761 522 790 q 676 671 649 732 q 703 504 703 610 l 703 92 l 775 92 l 775 4 q 686 -10 743 -3 q 589 -17 629 -17 q 519 -1 536 -17 q 501 60 501 14 l 501 92 q 408 17 467 50 q 274 -15 350 -15 q 155 13 208 -15 q 70 95 101 42 q 39 222 39 149 m 382 113 q 438 127 407 113 q 490 163 468 142 l 490 383 q 330 344 382 383 q 278 244 278 306 q 306 147 278 182 q 382 113 333 113 m 594 1046 q 573 1082 586 1056 q 560 1122 560 1108 q 571 1153 560 1140 q 601 1182 582 1167 q 628 1205 618 1194 q 638 1229 638 1215 q 622 1260 638 1250 q 565 1271 606 1271 q 533 1267 550 1271 q 507 1260 515 1263 l 508 1358 q 538 1363 510 1361 q 585 1365 565 1365 q 715 1335 665 1365 q 765 1242 765 1304 q 747 1181 765 1207 q 689 1129 728 1156 q 667 1088 667 1115 q 672 1054 667 1076 l 594 1046 m 447 1140 l 643 925 l 568 874 l 390 1010 l 207 874 l 140 922 l 335 1140 l 447 1140 z "},"ẫ":{"ha":792,"x_min":39,"x_max":775,"o":"m 39 222 q 163 410 39 344 q 490 476 288 475 l 490 504 q 479 583 490 554 q 439 627 468 613 q 353 642 410 642 q 231 626 285 642 q 119 583 178 610 l 72 683 q 144 727 94 701 q 265 772 194 753 q 411 790 335 790 q 585 761 522 790 q 676 671 649 732 q 703 504 703 610 l 703 92 l 775 92 l 775 4 q 686 -10 743 -3 q 589 -17 629 -17 q 519 -1 536 -17 q 501 60 501 14 l 501 92 q 408 17 467 50 q 274 -15 350 -15 q 155 13 208 -15 q 70 95 101 42 q 39 222 39 149 m 382 113 q 438 127 407 113 q 490 163 468 142 l 490 383 q 330 344 382 383 q 278 244 278 306 q 306 147 278 182 q 382 113 333 113 m 185 1236 q 238 1326 200 1290 q 332 1363 276 1363 q 382 1352 361 1363 q 428 1322 403 1342 q 463 1299 450 1307 q 494 1292 476 1292 q 531 1303 518 1292 q 556 1336 543 1314 l 615 1306 q 562 1214 597 1249 q 472 1179 526 1179 q 424 1189 444 1179 q 376 1218 403 1199 q 340 1242 356 1235 q 307 1250 325 1250 q 271 1240 283 1250 q 243 1207 258 1229 l 185 1236 m 447 1140 l 643 925 l 568 874 l 390 1010 l 207 874 l 140 922 l 335 1140 l 447 1140 z "},"ä":{"ha":792,"x_min":39,"x_max":775,"o":"m 39 222 q 163 410 39 344 q 490 476 288 475 l 490 504 q 479 583 490 554 q 439 627 468 613 q 353 642 410 642 q 231 626 285 642 q 119 583 178 610 l 72 683 q 144 727 94 701 q 265 772 194 753 q 411 790 335 790 q 585 761 522 790 q 676 671 649 732 q 703 504 703 610 l 703 92 l 775 92 l 775 4 q 686 -10 743 -3 q 589 -17 629 -17 q 519 -1 536 -17 q 501 60 501 14 l 501 92 q 408 17 467 50 q 274 -15 350 -15 q 155 13 208 -15 q 70 95 101 42 q 39 222 39 149 m 382 113 q 438 127 407 113 q 490 163 468 142 l 490 383 q 330 344 382 383 q 278 244 278 306 q 306 147 278 182 q 382 113 333 113 m 210 893 q 134 925 161 893 q 107 1003 107 957 q 136 1097 107 1061 q 224 1132 165 1132 q 304 1101 278 1132 q 331 1024 331 1071 q 210 893 331 893 m 556 893 q 479 926 507 893 q 451 1003 451 960 q 481 1097 451 1061 q 568 1132 510 1132 q 649 1101 622 1132 q 676 1024 676 1071 q 556 893 676 893 z "},"ạ":{"ha":792,"x_min":39,"x_max":775,"o":"m 39 222 q 163 410 39 344 q 490 476 288 475 l 490 504 q 479 583 490 554 q 439 627 468 613 q 353 642 410 642 q 231 626 285 642 q 119 583 178 610 l 72 683 q 144 727 94 701 q 265 772 194 753 q 411 790 335 790 q 585 761 522 790 q 676 671 649 732 q 703 504 703 610 l 703 92 l 775 92 l 775 4 q 686 -10 743 -3 q 589 -17 629 -17 q 519 -1 536 -17 q 501 60 501 14 l 501 92 q 408 17 467 50 q 274 -15 350 -15 q 155 13 208 -15 q 70 95 101 42 q 39 222 39 149 m 382 113 q 438 127 407 113 q 490 163 468 142 l 490 383 q 330 344 382 383 q 278 244 278 306 q 306 147 278 182 q 382 113 333 113 m 390 -311 q 310 -281 342 -311 q 278 -204 278 -250 q 312 -114 278 -150 q 404 -78 346 -78 q 491 -108 460 -78 q 522 -185 522 -139 q 488 -276 522 -240 q 392 -311 454 -311 l 390 -311 z "},"à":{"ha":792,"x_min":39,"x_max":775,"o":"m 39 222 q 163 410 39 344 q 490 476 288 475 l 490 504 q 479 583 490 554 q 439 627 468 613 q 353 642 410 642 q 231 626 285 642 q 119 583 178 610 l 72 683 q 144 727 94 701 q 265 772 194 753 q 411 790 335 790 q 585 761 522 790 q 676 671 649 732 q 703 504 703 610 l 703 92 l 775 92 l 775 4 q 686 -10 743 -3 q 589 -17 629 -17 q 519 -1 536 -17 q 501 60 501 14 l 501 92 q 408 17 467 50 q 274 -15 350 -15 q 155 13 208 -15 q 70 95 101 42 q 39 222 39 149 m 382 113 q 438 127 407 113 q 490 163 468 142 l 490 383 q 330 344 382 383 q 278 244 278 306 q 306 147 278 182 q 382 113 333 113 m 429 883 q 330 941 390 897 q 215 1037 269 985 q 138 1129 160 1089 l 269 1249 l 511 951 l 431 883 l 429 883 z "},"ả":{"ha":792,"x_min":39,"x_max":775,"o":"m 39 222 q 163 410 39 344 q 490 476 288 475 l 490 504 q 479 583 490 554 q 439 627 468 613 q 353 642 410 642 q 231 626 285 642 q 119 583 178 610 l 72 683 q 144 727 94 701 q 265 772 194 753 q 411 790 335 790 q 585 761 522 790 q 676 671 649 732 q 703 504 703 610 l 703 92 l 775 92 l 775 4 q 686 -10 743 -3 q 589 -17 629 -17 q 519 -1 536 -17 q 501 60 501 14 l 501 92 q 408 17 467 50 q 274 -15 350 -15 q 155 13 208 -15 q 70 95 101 42 q 39 222 39 149 m 382 113 q 438 127 407 113 q 490 163 468 142 l 490 383 q 330 344 382 383 q 278 244 278 306 q 306 147 278 182 q 382 113 333 113 m 356 851 q 337 881 346 863 q 328 918 328 900 q 335 940 328 931 q 354 960 342 949 q 380 987 371 974 q 389 1021 389 1000 q 372 1070 389 1051 q 315 1089 354 1089 q 279 1085 299 1089 q 249 1072 260 1081 l 244 1193 q 294 1208 265 1203 q 346 1214 322 1214 q 487 1172 436 1214 q 538 1051 538 1131 q 521 993 538 1017 q 485 953 504 969 q 460 931 467 936 q 447 908 451 922 q 442 876 442 893 q 444 851 442 860 l 356 851 z "},"ā":{"ha":792,"x_min":39,"x_max":775,"o":"m 39 222 q 163 410 39 344 q 490 476 288 475 l 490 504 q 479 583 490 554 q 439 627 468 613 q 353 642 410 642 q 231 626 285 642 q 119 583 178 610 l 72 683 q 144 727 94 701 q 265 772 194 753 q 411 790 335 790 q 585 761 522 790 q 676 671 649 732 q 703 504 703 610 l 703 92 l 775 92 l 775 4 q 686 -10 743 -3 q 589 -17 629 -17 q 519 -1 536 -17 q 501 60 501 14 l 501 92 q 408 17 467 50 q 274 -15 350 -15 q 155 13 208 -15 q 70 95 101 42 q 39 222 39 149 m 382 113 q 438 127 407 113 q 490 163 468 142 l 490 383 q 330 344 382 383 q 278 244 278 306 q 306 147 278 182 q 382 113 333 113 m 606 922 l 175 922 l 175 1056 l 606 1056 l 606 922 z "},"ą":{"ha":792,"x_min":39,"x_max":808,"o":"m 274 -15 q 155 13 208 -15 q 70 95 101 42 q 39 222 39 149 q 162 410 39 346 q 490 476 285 475 l 490 504 q 479 583 490 554 q 439 627 468 613 q 353 642 410 642 q 228 625 282 642 q 115 583 174 608 l 68 683 q 142 726 90 701 q 264 771 193 751 q 411 790 335 790 q 585 761 522 790 q 676 671 649 732 q 703 504 703 610 l 703 92 l 775 92 l 775 4 q 735 -4 754 1 q 653 -68 683 -31 q 624 -139 624 -106 q 647 -194 624 -175 q 713 -212 669 -212 q 752 -208 735 -212 q 784 -196 769 -203 q 806 -186 799 -189 l 808 -282 q 727 -320 779 -304 q 625 -336 675 -336 q 497 -301 551 -336 q 442 -197 442 -265 q 477 -101 442 -150 q 576 -17 513 -53 q 517 1 532 -15 q 501 60 501 17 l 501 92 q 408 17 467 50 q 274 -15 350 -15 m 278 244 q 306 147 278 182 q 382 113 333 113 q 438 127 407 113 q 490 163 468 142 l 490 383 q 330 344 382 383 q 278 244 278 306 z "},"å":{"ha":792,"x_min":39,"x_max":775,"o":"m 39 222 q 163 410 39 344 q 490 476 288 475 l 490 504 q 479 583 490 554 q 439 627 468 613 q 353 642 410 642 q 231 626 285 642 q 119 583 178 610 l 72 683 q 144 727 94 701 q 265 772 194 753 q 411 790 335 790 q 585 761 522 790 q 676 671 649 732 q 703 504 703 610 l 703 92 l 775 92 l 775 4 q 686 -10 743 -3 q 589 -17 629 -17 q 519 -1 536 -17 q 501 60 501 14 l 501 92 q 408 17 467 50 q 274 -15 350 -15 q 155 13 208 -15 q 70 95 101 42 q 39 222 39 149 m 382 113 q 438 127 407 113 q 490 163 468 142 l 490 383 q 330 344 382 383 q 278 244 278 306 q 306 147 278 182 q 382 113 333 113 m 388 876 q 204 931 264 876 q 144 1074 144 985 q 218 1225 144 1171 q 399 1279 292 1279 q 574 1224 514 1279 q 635 1079 635 1169 q 565 931 635 985 q 388 876 494 876 m 390 968 q 478 994 451 968 q 506 1072 506 1019 q 478 1154 506 1124 q 392 1185 450 1185 q 274 1081 274 1185 q 303 1000 274 1032 q 390 968 332 968 z "},"ǻ":{"ha":792,"x_min":39,"x_max":775,"o":"m 39 222 q 163 410 39 344 q 490 476 288 475 l 490 504 q 479 583 490 554 q 439 627 468 613 q 353 642 410 642 q 231 626 285 642 q 119 583 178 610 l 72 683 q 144 727 94 701 q 265 772 194 753 q 411 790 335 790 q 585 761 522 790 q 676 671 649 732 q 703 504 703 610 l 703 92 l 775 92 l 775 4 q 686 -10 743 -3 q 589 -17 629 -17 q 519 -1 536 -17 q 501 60 501 14 l 501 92 q 408 17 467 50 q 274 -15 350 -15 q 155 13 208 -15 q 70 95 101 42 q 39 222 39 149 m 382 113 q 438 127 407 113 q 490 163 468 142 l 490 383 q 330 344 382 383 q 278 244 278 306 q 306 147 278 182 q 382 113 333 113 m 144 1043 q 191 1159 144 1118 q 317 1213 238 1200 l 419 1367 l 553 1303 q 460 1214 500 1240 q 588 1155 540 1200 q 636 1049 636 1110 q 566 910 635 957 q 388 864 497 864 q 211 913 278 864 q 144 1043 144 961 m 275 1044 q 309 982 275 1006 q 390 958 343 958 q 474 976 443 958 q 506 1036 506 993 q 473 1101 506 1078 q 392 1124 440 1124 q 308 1104 342 1124 q 275 1044 275 1085 z "},"ã":{"ha":792,"x_min":39,"x_max":775,"o":"m 39 222 q 163 410 39 344 q 490 476 288 475 l 490 504 q 479 583 490 554 q 439 627 468 613 q 353 642 410 642 q 231 626 285 642 q 119 583 178 610 l 72 683 q 144 727 94 701 q 265 772 194 753 q 411 790 335 790 q 585 761 522 790 q 676 671 649 732 q 703 504 703 610 l 703 92 l 775 92 l 775 4 q 686 -10 743 -3 q 589 -17 629 -17 q 519 -1 536 -17 q 501 60 501 14 l 501 92 q 408 17 467 50 q 274 -15 350 -15 q 155 13 208 -15 q 70 95 101 42 q 39 222 39 149 m 382 113 q 438 127 407 113 q 490 163 468 142 l 490 383 q 330 344 382 383 q 278 244 278 306 q 306 147 278 182 q 382 113 333 113 m 99 976 q 167 1097 114 1051 q 288 1142 221 1142 q 357 1126 328 1142 q 422 1082 386 1111 q 465 1051 449 1061 q 501 1042 482 1042 q 549 1058 533 1042 q 572 1091 564 1074 q 582 1114 579 1108 l 671 1063 q 615 943 663 990 q 497 896 567 896 q 428 912 457 896 q 364 957 399 928 q 318 990 336 979 q 279 1000 300 1000 q 234 985 250 1000 q 206 953 218 971 q 186 925 194 935 l 99 976 z "},"æ":{"ha":1206,"x_min":38,"x_max":1164,"o":"m 272 -15 q 105 44 172 -15 q 38 213 38 104 q 157 408 38 340 q 490 476 276 475 q 479 577 490 543 q 438 625 468 611 q 347 639 407 639 q 235 626 285 639 q 153 599 186 613 q 110 582 119 586 l 63 682 q 137 727 85 701 q 260 772 189 753 q 408 790 332 790 q 545 772 493 790 q 625 715 597 754 q 861 792 721 792 q 1085 718 1008 792 q 1164 510 1161 644 q 1154 367 1164 417 l 714 367 q 772 187 721 249 q 914 125 822 125 q 1024 142 967 125 q 1118 181 1082 158 l 1154 97 q 1086 47 1133 72 q 978 3 1039 21 q 856 -15 917 -15 q 553 124 646 -15 q 436 24 513 64 q 272 -15 360 -15 m 940 458 q 942 517 942 474 q 918 649 942 603 q 839 696 894 696 q 747 645 779 696 q 713 458 715 594 l 940 458 m 382 113 q 460 135 422 113 q 517 192 497 158 q 486 389 486 272 q 333 346 382 388 q 285 243 285 304 q 310 144 285 176 q 382 113 336 113 z "},"ǽ":{"ha":1206,"x_min":38,"x_max":1164,"o":"m 272 -15 q 105 44 172 -15 q 38 213 38 104 q 157 408 38 340 q 490 476 276 475 q 479 577 490 543 q 438 625 468 611 q 347 639 407 639 q 235 626 285 639 q 153 599 186 613 q 110 582 119 586 l 63 682 q 137 727 85 701 q 260 772 189 753 q 408 790 332 790 q 545 772 493 790 q 625 715 597 754 q 861 792 721 792 q 1085 718 1008 792 q 1164 510 1161 644 q 1154 367 1164 417 l 714 367 q 772 187 721 249 q 914 125 822 125 q 1024 142 967 125 q 1118 181 1082 158 l 1154 97 q 1086 47 1133 72 q 978 3 1039 21 q 856 -15 917 -15 q 553 124 646 -15 q 436 24 513 64 q 272 -15 360 -15 m 940 458 q 942 517 942 474 q 918 649 942 603 q 839 696 894 696 q 747 645 779 696 q 713 458 715 594 l 940 458 m 382 113 q 460 135 422 113 q 517 192 497 158 q 486 389 486 272 q 333 346 382 388 q 285 243 285 304 q 310 144 285 176 q 382 113 336 113 m 486 953 l 728 1250 l 861 1131 q 728 990 825 1069 q 567 885 631 910 l 486 953 z "},"b":{"ha":868,"x_min":1,"x_max":822,"o":"m 1 1106 l 275 1139 l 278 1139 l 322 1111 l 322 706 q 411 767 358 743 q 524 792 464 792 q 740 698 657 792 q 822 411 822 604 q 772 193 822 290 q 626 40 721 96 q 406 -15 532 -15 q 206 3 286 -15 q 100 38 125 22 l 100 1007 l 1 1025 l 1 1106 m 438 656 q 372 640 403 656 q 322 604 342 625 l 322 101 q 353 79 328 88 q 413 71 379 71 q 536 153 490 71 q 582 394 582 235 q 543 592 582 529 q 438 656 504 656 z "},"ḃ":{"ha":868,"x_min":1,"x_max":822,"o":"m 1 1106 l 275 1139 l 278 1139 l 322 1111 l 322 706 q 411 767 358 743 q 524 792 464 792 q 740 698 657 792 q 822 411 822 604 q 772 193 822 290 q 626 40 721 96 q 406 -15 532 -15 q 206 3 286 -15 q 100 38 125 22 l 100 1007 l 1 1025 l 1 1106 m 438 656 q 372 640 403 656 q 322 604 342 625 l 322 101 q 353 79 328 88 q 413 71 379 71 q 536 153 490 71 q 582 394 582 235 q 543 592 582 529 q 438 656 504 656 m 565 892 q 478 924 511 892 q 444 1006 444 956 q 482 1101 444 1064 q 582 1139 519 1139 q 676 1107 643 1139 q 710 1025 710 1075 q 672 928 710 965 q 567 892 635 892 l 565 892 z "},"ḅ":{"ha":868,"x_min":1,"x_max":822,"o":"m 1 1106 l 275 1139 l 278 1139 l 322 1111 l 322 706 q 411 767 358 743 q 524 792 464 792 q 740 698 657 792 q 822 411 822 604 q 772 193 822 290 q 626 40 721 96 q 406 -15 532 -15 q 206 3 286 -15 q 100 38 125 22 l 100 1007 l 1 1025 l 1 1106 m 438 656 q 372 640 403 656 q 322 604 342 625 l 322 101 q 353 79 328 88 q 413 71 379 71 q 536 153 490 71 q 582 394 582 235 q 543 592 582 529 q 438 656 504 656 m 394 -312 q 314 -282 346 -312 q 282 -206 282 -251 q 316 -115 282 -151 q 408 -79 350 -79 q 495 -110 464 -79 q 526 -186 526 -140 q 492 -277 526 -242 q 396 -312 458 -312 l 394 -312 z "},"c":{"ha":726,"x_min":43,"x_max":685,"o":"m 43 381 q 93 597 43 504 q 233 741 143 690 q 442 792 324 792 q 542 784 500 792 q 629 763 585 776 q 679 750 669 751 l 669 499 l 529 499 l 493 658 q 470 684 489 676 q 425 692 451 692 q 323 628 360 692 q 286 415 286 564 q 333 198 286 274 q 458 122 379 122 q 647 175 561 122 l 685 93 q 575 20 651 56 q 406 -15 499 -15 q 133 92 224 -15 q 43 381 43 200 z "},"ć":{"ha":726,"x_min":43,"x_max":685,"o":"m 43 381 q 93 597 43 504 q 233 741 143 690 q 442 792 324 792 q 542 784 500 792 q 629 763 585 776 q 679 750 669 751 l 669 499 l 529 499 l 493 658 q 470 684 489 676 q 425 692 451 692 q 323 628 360 692 q 286 415 286 564 q 333 198 286 274 q 458 122 379 122 q 647 175 561 122 l 685 93 q 575 20 651 56 q 406 -15 499 -15 q 133 92 224 -15 q 43 381 43 200 m 261 953 l 503 1250 l 636 1131 q 503 990 600 1069 q 342 885 406 910 l 261 953 z "},"č":{"ha":726,"x_min":43,"x_max":685,"o":"m 43 381 q 93 597 43 504 q 233 741 143 690 q 442 792 324 792 q 542 784 500 792 q 629 763 585 776 q 679 750 669 751 l 669 499 l 529 499 l 493 658 q 470 684 489 676 q 425 692 451 692 q 323 628 360 692 q 286 415 286 564 q 333 198 286 274 q 458 122 379 122 q 647 175 561 122 l 685 93 q 575 20 651 56 q 406 -15 499 -15 q 133 92 224 -15 q 43 381 43 200 m 404 1036 l 608 1215 l 682 1153 l 468 881 l 340 881 l 129 1153 l 203 1214 l 404 1036 z "},"ç":{"ha":726,"x_min":43,"x_max":685,"o":"m 43 381 q 93 597 43 504 q 233 741 143 690 q 442 792 324 792 q 542 784 500 792 q 629 763 585 776 q 679 750 669 751 l 669 499 l 529 499 l 493 658 q 470 684 489 676 q 425 692 451 692 q 323 628 360 692 q 286 415 286 564 q 333 198 286 274 q 458 122 379 122 q 647 175 561 122 l 685 93 q 596 30 657 61 q 461 -11 535 -1 q 517 -92 493 -46 q 542 -187 542 -137 q 490 -318 542 -281 q 335 -356 439 -356 q 283 -350 311 -356 q 236 -336 254 -344 l 236 -208 q 294 -217 265 -217 q 369 -199 347 -217 q 390 -121 390 -181 q 381 -65 390 -94 q 357 -12 371 -36 q 121 108 199 3 q 43 381 43 214 z "},"ĉ":{"ha":726,"x_min":43,"x_max":685,"o":"m 43 381 q 93 597 43 504 q 233 741 143 690 q 442 792 324 792 q 542 784 500 792 q 629 763 585 776 q 679 750 669 751 l 669 499 l 529 499 l 493 658 q 470 684 489 676 q 425 692 451 692 q 323 628 360 692 q 286 415 286 564 q 333 198 286 274 q 458 122 379 122 q 647 175 561 122 l 685 93 q 575 20 651 56 q 406 -15 499 -15 q 133 92 224 -15 q 43 381 43 200 m 468 1201 l 682 931 l 606 868 l 406 1042 l 201 867 l 128 929 l 340 1201 l 468 1201 z "},"ċ":{"ha":726,"x_min":43,"x_max":685,"o":"m 43 381 q 93 597 43 504 q 233 741 143 690 q 442 792 324 792 q 542 784 500 792 q 629 763 585 776 q 679 750 669 751 l 669 499 l 529 499 l 493 658 q 470 684 489 676 q 425 692 451 692 q 323 628 360 692 q 286 415 286 564 q 333 198 286 274 q 458 122 379 122 q 647 175 561 122 l 685 93 q 575 20 651 56 q 406 -15 499 -15 q 133 92 224 -15 q 43 381 43 200 m 393 892 q 306 924 339 892 q 272 1006 272 956 q 310 1101 272 1064 q 410 1139 347 1139 q 504 1107 471 1139 q 538 1025 538 1075 q 500 928 538 965 q 394 892 463 892 l 393 892 z "},"d":{"ha":874,"x_min":46,"x_max":840,"o":"m 346 -15 q 129 81 213 -15 q 46 368 46 176 q 94 580 46 483 q 235 734 142 676 q 463 792 329 792 q 546 782 503 792 l 546 1003 l 413 1022 l 413 1111 l 719 1139 l 726 1139 l 768 1106 l 768 93 l 840 93 l 840 4 q 663 -17 733 -17 q 592 -1 614 -17 q 571 61 571 15 l 571 96 q 475 16 538 47 q 346 -15 413 -15 m 429 110 q 498 126 468 110 q 546 164 528 142 l 546 667 q 510 688 536 679 q 456 696 485 696 q 332 622 378 696 q 286 379 286 547 q 325 176 286 242 q 429 110 364 110 z "},"ð":{"ha":839,"x_min":44,"x_max":799,"o":"m 415 -15 q 141 90 238 -15 q 44 372 44 196 q 95 604 44 510 q 227 745 146 699 q 401 792 308 792 q 526 769 475 792 q 349 1006 486 913 l 260 888 l 168 950 l 263 1067 q 185 1110 224 1092 q 121 1136 146 1129 l 160 1229 q 342 1167 263 1206 l 429 1279 l 517 1213 l 436 1113 q 698 838 597 1003 q 799 460 799 674 q 761 229 799 336 q 638 53 724 122 q 415 -15 553 -15 m 426 83 q 527 164 493 83 q 561 428 561 244 q 553 560 561 497 q 535 657 544 624 q 493 685 521 672 q 426 699 465 699 q 292 396 292 699 q 324 172 292 261 q 426 83 357 83 z "},"ď":{"ha":874,"x_min":46,"x_max":1042,"o":"m 346 -15 q 129 81 213 -15 q 46 368 46 176 q 94 580 46 483 q 235 734 142 676 q 463 792 329 792 q 546 782 503 792 l 546 1003 l 413 1022 l 413 1111 l 719 1139 l 726 1139 l 768 1106 l 768 93 l 840 93 l 840 4 q 663 -17 733 -17 q 592 -1 614 -17 q 571 61 571 15 l 571 96 q 475 16 538 47 q 346 -15 413 -15 m 429 110 q 498 126 468 110 q 546 164 528 142 l 546 667 q 510 688 536 679 q 456 696 485 696 q 332 622 378 696 q 286 379 286 547 q 325 176 286 242 q 429 110 364 110 m 871 832 l 867 847 q 875 997 875 897 q 857 1122 875 1082 l 864 1153 l 1029 1153 q 1042 1046 1042 1124 q 994 831 1042 940 l 871 832 z "},"đ":{"ha":874,"x_min":46,"x_max":865,"o":"m 544 1003 l 411 1022 l 411 1111 l 719 1139 l 725 1139 l 768 1106 l 768 946 l 865 946 l 865 857 l 768 857 l 768 93 l 840 93 l 840 4 q 663 -17 733 -17 q 592 -1 613 -17 q 571 61 571 14 l 571 96 q 475 16 538 47 q 346 -15 413 -15 q 129 81 213 -15 q 46 368 46 176 q 94 580 46 483 q 235 734 142 676 q 463 792 329 792 q 544 782 500 792 l 544 857 l 361 857 l 361 946 l 544 946 l 544 1003 m 429 110 q 498 126 468 110 q 544 164 528 142 l 544 667 q 510 688 536 679 q 456 696 485 696 q 332 622 378 696 q 286 379 286 547 q 325 176 286 242 q 429 110 364 110 z "},"ḋ":{"ha":874,"x_min":42,"x_max":840,"o":"m 346 -15 q 129 81 213 -15 q 46 368 46 176 q 94 580 46 483 q 235 734 142 676 q 463 792 329 792 q 546 782 503 792 l 546 1003 l 413 1022 l 413 1111 l 719 1139 l 726 1139 l 768 1106 l 768 93 l 840 93 l 840 4 q 663 -17 733 -17 q 592 -1 614 -17 q 571 61 571 15 l 571 96 q 475 16 538 47 q 346 -15 413 -15 m 429 110 q 498 126 468 110 q 546 164 528 142 l 546 667 q 510 688 536 679 q 456 696 485 696 q 332 622 378 696 q 286 379 286 547 q 325 176 286 242 q 429 110 364 110 m 163 846 q 75 878 108 846 q 42 960 42 910 q 79 1056 42 1018 q 179 1093 117 1093 q 274 1061 240 1093 q 307 979 307 1029 q 269 883 307 919 q 164 846 232 846 l 163 846 z "},"ḍ":{"ha":874,"x_min":46,"x_max":840,"o":"m 346 -15 q 129 81 213 -15 q 46 368 46 176 q 94 580 46 483 q 235 734 142 676 q 463 792 329 792 q 546 782 503 792 l 546 1003 l 413 1022 l 413 1111 l 719 1139 l 726 1139 l 768 1106 l 768 93 l 840 93 l 840 4 q 663 -17 733 -17 q 592 -1 614 -17 q 571 61 571 15 l 571 96 q 475 16 538 47 q 346 -15 413 -15 m 429 110 q 498 126 468 110 q 546 164 528 142 l 546 667 q 510 688 536 679 q 456 696 485 696 q 332 622 378 696 q 286 379 286 547 q 325 176 286 242 q 429 110 364 110 m 428 -311 q 347 -281 379 -311 q 315 -204 315 -250 q 349 -114 315 -150 q 442 -78 383 -78 q 528 -108 497 -78 q 560 -185 560 -139 q 526 -276 560 -240 q 429 -311 492 -311 l 428 -311 z "},"ǳ":{"ha":1653,"x_min":46,"x_max":1617,"o":"m 346 -15 q 129 81 213 -15 q 46 368 46 176 q 94 580 46 483 q 235 734 142 676 q 463 792 329 792 q 546 782 503 792 l 546 1003 l 413 1022 l 413 1111 l 719 1139 l 726 1139 l 768 1106 l 768 93 l 840 93 l 840 4 q 663 -17 733 -17 q 592 -1 614 -17 q 571 61 571 15 l 571 96 q 475 16 538 47 q 346 -15 413 -15 m 429 110 q 498 126 468 110 q 546 164 528 142 l 546 667 q 510 688 536 679 q 456 696 485 696 q 332 622 378 696 q 286 379 286 547 q 325 176 286 242 q 429 110 364 110 m 1097 665 l 1060 528 l 950 528 l 950 772 l 1576 772 l 1613 692 l 1267 201 l 1167 94 l 1442 110 l 1513 272 l 1617 260 l 1594 0 l 938 0 l 899 85 l 1256 563 l 1361 676 l 1097 665 z "},"ǆ":{"ha":1653,"x_min":46,"x_max":1617,"o":"m 346 -15 q 129 81 213 -15 q 46 368 46 176 q 94 580 46 483 q 235 734 142 676 q 463 792 329 792 q 546 782 503 792 l 546 1003 l 413 1022 l 413 1111 l 719 1139 l 726 1139 l 768 1106 l 768 93 l 840 93 l 840 4 q 663 -17 733 -17 q 592 -1 614 -17 q 571 61 571 15 l 571 96 q 475 16 538 47 q 346 -15 413 -15 m 429 110 q 498 126 468 110 q 546 164 528 142 l 546 667 q 510 688 536 679 q 456 696 485 696 q 332 622 378 696 q 286 379 286 547 q 325 176 286 242 q 429 110 364 110 m 1097 665 l 1060 528 l 950 528 l 950 772 l 1576 772 l 1613 692 l 1267 201 l 1167 94 l 1442 110 l 1513 272 l 1617 260 l 1594 0 l 938 0 l 899 85 l 1256 563 l 1361 676 l 1097 665 m 1285 1036 l 1489 1215 l 1563 1153 l 1349 881 l 1221 881 l 1010 1153 l 1083 1214 l 1285 1036 z "},"e":{"ha":769,"x_min":43,"x_max":726,"o":"m 417 -15 q 135 92 226 -15 q 43 386 43 200 q 90 604 43 513 q 223 744 138 696 q 424 792 308 792 q 647 718 569 792 q 726 510 724 644 q 714 367 726 421 l 279 367 q 337 187 286 249 q 479 125 388 125 q 587 142 531 125 q 678 182 643 160 l 717 97 q 594 21 681 57 q 417 -15 507 -15 m 506 458 l 507 517 q 483 650 507 604 q 403 696 460 696 q 313 645 344 696 q 278 458 281 594 l 506 458 z "},"é":{"ha":769,"x_min":43,"x_max":726,"o":"m 417 -15 q 135 92 226 -15 q 43 386 43 200 q 90 604 43 513 q 223 744 138 696 q 424 792 308 792 q 647 718 569 792 q 726 510 724 644 q 714 367 726 421 l 279 367 q 337 187 286 249 q 479 125 388 125 q 587 142 531 125 q 678 182 643 160 l 717 97 q 594 21 681 57 q 417 -15 507 -15 m 506 458 l 507 517 q 483 650 507 604 q 403 696 460 696 q 313 645 344 696 q 278 458 281 594 l 506 458 m 267 953 l 508 1250 l 642 1131 q 508 990 606 1069 q 347 885 411 910 l 267 953 z "},"ĕ":{"ha":769,"x_min":43,"x_max":726,"o":"m 417 -15 q 135 92 226 -15 q 43 386 43 200 q 90 604 43 513 q 223 744 138 696 q 424 792 308 792 q 647 718 569 792 q 726 510 724 644 q 714 367 726 421 l 279 367 q 337 187 286 249 q 479 125 388 125 q 587 142 531 125 q 678 182 643 160 l 717 97 q 594 21 681 57 q 417 -15 507 -15 m 506 458 l 507 517 q 483 650 507 604 q 403 696 460 696 q 313 645 344 696 q 278 458 281 594 l 506 458 m 414 892 q 280 921 338 892 q 190 1001 222 950 q 158 1117 158 1053 q 161 1182 158 1168 l 265 1182 q 267 1153 265 1163 q 306 1075 271 1106 q 414 1044 342 1044 q 520 1074 485 1044 q 560 1151 556 1104 q 561 1182 563 1174 l 663 1182 l 664 1118 q 633 1001 664 1053 q 544 921 601 950 q 414 892 488 892 z "},"ě":{"ha":769,"x_min":43,"x_max":726,"o":"m 417 -15 q 135 92 226 -15 q 43 386 43 200 q 90 604 43 513 q 223 744 138 696 q 424 792 308 792 q 647 718 569 792 q 726 510 724 644 q 714 367 726 421 l 279 367 q 337 187 286 249 q 479 125 388 125 q 587 142 531 125 q 678 182 643 160 l 717 97 q 594 21 681 57 q 417 -15 507 -15 m 506 458 l 507 517 q 483 650 507 604 q 403 696 460 696 q 313 645 344 696 q 278 458 281 594 l 506 458 m 410 1036 l 614 1215 l 688 1153 l 474 881 l 346 881 l 135 1153 l 208 1214 l 410 1036 z "},"ȩ":{"ha":769,"x_min":43,"x_max":726,"o":"m 43 386 q 90 604 43 513 q 223 744 138 696 q 424 792 308 792 q 647 718 569 792 q 726 510 724 644 q 714 367 726 421 l 279 367 q 337 187 286 249 q 479 125 388 125 q 587 142 531 125 q 678 182 643 160 l 717 97 q 610 28 685 63 q 454 -14 536 -6 q 509 -93 485 -46 q 533 -190 533 -140 q 482 -319 533 -282 q 326 -356 431 -356 q 274 -350 303 -356 q 228 -336 246 -344 l 226 -208 q 286 -217 256 -217 q 360 -199 339 -217 q 382 -121 382 -181 q 372 -63 382 -93 q 347 -11 361 -33 q 117 113 192 8 q 43 386 43 218 m 506 458 l 507 517 q 483 650 507 604 q 403 696 460 696 q 313 645 344 696 q 278 458 281 594 l 506 458 z "},"ê":{"ha":769,"x_min":43,"x_max":726,"o":"m 417 -15 q 135 92 226 -15 q 43 386 43 200 q 90 604 43 513 q 223 744 138 696 q 424 792 308 792 q 647 718 569 792 q 726 510 724 644 q 714 367 726 421 l 279 367 q 337 187 286 249 q 479 125 388 125 q 587 142 531 125 q 678 182 643 160 l 717 97 q 594 21 681 57 q 417 -15 507 -15 m 506 458 l 507 517 q 483 650 507 604 q 403 696 460 696 q 313 645 344 696 q 278 458 281 594 l 506 458 m 474 1201 l 688 931 l 611 868 l 411 1042 l 207 867 l 133 929 l 346 1201 l 474 1201 z "},"ế":{"ha":769,"x_min":43,"x_max":861,"o":"m 417 -15 q 135 92 226 -15 q 43 386 43 200 q 90 604 43 513 q 223 744 138 696 q 424 792 308 792 q 647 718 569 792 q 726 510 724 644 q 714 367 726 421 l 279 367 q 337 187 286 249 q 479 125 388 125 q 587 142 531 125 q 678 182 643 160 l 717 97 q 594 21 681 57 q 417 -15 507 -15 m 506 458 l 507 517 q 483 650 507 604 q 403 696 460 696 q 313 645 344 696 q 278 458 281 594 l 506 458 m 574 1149 l 751 1364 l 861 1271 q 759 1166 831 1228 q 639 1086 688 1104 l 574 1149 m 468 1140 l 664 925 l 589 874 l 411 1010 l 228 874 l 161 922 l 356 1140 l 468 1140 z "},"ệ":{"ha":769,"x_min":43,"x_max":726,"o":"m 417 -15 q 135 92 226 -15 q 43 386 43 200 q 90 604 43 513 q 223 744 138 696 q 424 792 308 792 q 647 718 569 792 q 726 510 724 644 q 714 367 726 421 l 279 367 q 337 187 286 249 q 479 125 388 125 q 587 142 531 125 q 678 182 643 160 l 717 97 q 594 21 681 57 q 417 -15 507 -15 m 506 458 l 507 517 q 483 650 507 604 q 403 696 460 696 q 313 645 344 696 q 278 458 281 594 l 506 458 m 375 -311 q 294 -281 326 -311 q 263 -204 263 -250 q 297 -114 263 -150 q 389 -78 331 -78 q 476 -108 444 -78 q 507 -185 507 -139 q 473 -276 507 -240 q 376 -311 439 -311 l 375 -311 m 474 1201 l 688 931 l 611 868 l 411 1042 l 207 867 l 133 929 l 346 1201 l 474 1201 z "},"ề":{"ha":769,"x_min":43,"x_max":772,"o":"m 417 -15 q 135 92 226 -15 q 43 386 43 200 q 90 604 43 513 q 223 744 138 696 q 424 792 308 792 q 647 718 569 792 q 726 510 724 644 q 714 367 726 421 l 279 367 q 337 187 286 249 q 479 125 388 125 q 587 142 531 125 q 678 182 643 160 l 717 97 q 594 21 681 57 q 417 -15 507 -15 m 506 458 l 507 517 q 483 650 507 604 q 403 696 460 696 q 313 645 344 696 q 278 458 281 594 l 506 458 m 707 1099 q 595 1169 660 1115 q 494 1272 531 1224 l 603 1365 l 772 1160 l 707 1099 m 468 1140 l 664 925 l 589 874 l 411 1010 l 228 874 l 161 922 l 356 1140 l 468 1140 z "},"ể":{"ha":769,"x_min":43,"x_max":786,"o":"m 417 -15 q 135 92 226 -15 q 43 386 43 200 q 90 604 43 513 q 223 744 138 696 q 424 792 308 792 q 647 718 569 792 q 726 510 724 644 q 714 367 726 421 l 279 367 q 337 187 286 249 q 479 125 388 125 q 587 142 531 125 q 678 182 643 160 l 717 97 q 594 21 681 57 q 417 -15 507 -15 m 506 458 l 507 517 q 483 650 507 604 q 403 696 460 696 q 313 645 344 696 q 278 458 281 594 l 506 458 m 615 1046 q 594 1082 607 1056 q 581 1122 581 1108 q 592 1153 581 1140 q 622 1182 603 1167 q 649 1205 639 1194 q 658 1229 658 1215 q 642 1260 658 1250 q 586 1271 626 1271 q 553 1267 571 1271 q 528 1260 536 1263 l 529 1358 q 558 1363 531 1361 q 606 1365 586 1365 q 736 1335 686 1365 q 786 1242 786 1304 q 767 1181 786 1207 q 710 1129 749 1156 q 688 1088 688 1115 q 693 1054 688 1076 l 615 1046 m 468 1140 l 664 925 l 589 874 l 411 1010 l 228 874 l 161 922 l 356 1140 l 468 1140 z "},"ễ":{"ha":769,"x_min":43,"x_max":726,"o":"m 417 -15 q 135 92 226 -15 q 43 386 43 200 q 90 604 43 513 q 223 744 138 696 q 424 792 308 792 q 647 718 569 792 q 726 510 724 644 q 714 367 726 421 l 279 367 q 337 187 286 249 q 479 125 388 125 q 587 142 531 125 q 678 182 643 160 l 717 97 q 594 21 681 57 q 417 -15 507 -15 m 506 458 l 507 517 q 483 650 507 604 q 403 696 460 696 q 313 645 344 696 q 278 458 281 594 l 506 458 m 206 1236 q 259 1326 221 1290 q 353 1363 297 1363 q 403 1352 382 1363 q 449 1322 424 1342 q 484 1299 471 1307 q 515 1292 497 1292 q 551 1303 539 1292 q 576 1336 564 1314 l 636 1306 q 583 1214 618 1249 q 493 1179 547 1179 q 444 1189 465 1179 q 397 1218 424 1199 q 361 1242 376 1235 q 328 1250 346 1250 q 292 1240 304 1250 q 264 1207 279 1229 l 206 1236 m 468 1140 l 664 925 l 589 874 l 411 1010 l 228 874 l 161 922 l 356 1140 l 468 1140 z "},"ë":{"ha":769,"x_min":43,"x_max":726,"o":"m 417 -15 q 135 92 226 -15 q 43 386 43 200 q 90 604 43 513 q 223 744 138 696 q 424 792 308 792 q 647 718 569 792 q 726 510 724 644 q 714 367 726 421 l 279 367 q 337 187 286 249 q 479 125 388 125 q 587 142 531 125 q 678 182 643 160 l 717 97 q 594 21 681 57 q 417 -15 507 -15 m 506 458 l 507 517 q 483 650 507 604 q 403 696 460 696 q 313 645 344 696 q 278 458 281 594 l 506 458 m 231 893 q 155 925 182 893 q 128 1003 128 957 q 157 1097 128 1061 q 244 1132 186 1132 q 325 1101 299 1132 q 351 1024 351 1071 q 231 893 351 893 m 576 893 q 500 926 528 893 q 472 1003 472 960 q 501 1097 472 1061 q 589 1132 531 1132 q 670 1101 643 1132 q 697 1024 697 1071 q 576 893 697 893 z "},"ė":{"ha":769,"x_min":43,"x_max":726,"o":"m 417 -15 q 135 92 226 -15 q 43 386 43 200 q 90 604 43 513 q 223 744 138 696 q 424 792 308 792 q 647 718 569 792 q 726 510 724 644 q 714 367 726 421 l 279 367 q 337 187 286 249 q 479 125 388 125 q 587 142 531 125 q 678 182 643 160 l 717 97 q 594 21 681 57 q 417 -15 507 -15 m 506 458 l 507 517 q 483 650 507 604 q 403 696 460 696 q 313 645 344 696 q 278 458 281 594 l 506 458 m 399 892 q 311 924 344 892 q 278 1006 278 956 q 315 1101 278 1064 q 415 1139 353 1139 q 510 1107 476 1139 q 543 1025 543 1075 q 506 928 543 965 q 400 892 468 892 l 399 892 z "},"ẹ":{"ha":769,"x_min":43,"x_max":726,"o":"m 417 -15 q 135 92 226 -15 q 43 386 43 200 q 90 604 43 513 q 223 744 138 696 q 424 792 308 792 q 647 718 569 792 q 726 510 724 644 q 714 367 726 421 l 279 367 q 337 187 286 249 q 479 125 388 125 q 587 142 531 125 q 678 182 643 160 l 717 97 q 594 21 681 57 q 417 -15 507 -15 m 506 458 l 507 517 q 483 650 507 604 q 403 696 460 696 q 313 645 344 696 q 278 458 281 594 l 506 458 m 375 -311 q 294 -281 326 -311 q 263 -204 263 -250 q 297 -114 263 -150 q 389 -78 331 -78 q 476 -108 444 -78 q 507 -185 507 -139 q 473 -276 507 -240 q 376 -311 439 -311 l 375 -311 z "},"è":{"ha":769,"x_min":43,"x_max":726,"o":"m 417 -15 q 135 92 226 -15 q 43 386 43 200 q 90 604 43 513 q 223 744 138 696 q 424 792 308 792 q 647 718 569 792 q 726 510 724 644 q 714 367 726 421 l 279 367 q 337 187 286 249 q 479 125 388 125 q 587 142 531 125 q 678 182 643 160 l 717 97 q 594 21 681 57 q 417 -15 507 -15 m 506 458 l 507 517 q 483 650 507 604 q 403 696 460 696 q 313 645 344 696 q 278 458 281 594 l 506 458 m 450 883 q 351 941 411 897 q 235 1037 290 985 q 158 1129 181 1089 l 290 1249 l 532 951 l 451 883 l 450 883 z "},"ẻ":{"ha":769,"x_min":43,"x_max":726,"o":"m 417 -15 q 135 92 226 -15 q 43 386 43 200 q 90 604 43 513 q 223 744 138 696 q 424 792 308 792 q 647 718 569 792 q 726 510 724 644 q 714 367 726 421 l 279 367 q 337 187 286 249 q 479 125 388 125 q 587 142 531 125 q 678 182 643 160 l 717 97 q 594 21 681 57 q 417 -15 507 -15 m 506 458 l 507 517 q 483 650 507 604 q 403 696 460 696 q 313 645 344 696 q 278 458 281 594 l 506 458 m 376 851 q 358 881 367 863 q 349 918 349 900 q 356 940 349 931 q 375 960 363 949 q 401 987 392 974 q 410 1021 410 1000 q 392 1070 410 1051 q 336 1089 375 1089 q 300 1085 319 1089 q 269 1072 281 1081 l 265 1193 q 315 1208 286 1203 q 367 1214 343 1214 q 508 1172 457 1214 q 558 1051 558 1131 q 542 993 558 1017 q 506 953 525 969 q 481 931 488 936 q 467 908 472 922 q 463 876 463 893 q 465 851 463 860 l 376 851 z "},"ē":{"ha":769,"x_min":43,"x_max":726,"o":"m 417 -15 q 135 92 226 -15 q 43 386 43 200 q 90 604 43 513 q 223 744 138 696 q 424 792 308 792 q 647 718 569 792 q 726 510 724 644 q 714 367 726 421 l 279 367 q 337 187 286 249 q 479 125 388 125 q 587 142 531 125 q 678 182 643 160 l 717 97 q 594 21 681 57 q 417 -15 507 -15 m 506 458 l 507 517 q 483 650 507 604 q 403 696 460 696 q 313 645 344 696 q 278 458 281 594 l 506 458 m 626 922 l 196 922 l 196 1056 l 626 1056 l 626 922 z "},"ę":{"ha":769,"x_min":43,"x_max":726,"o":"m 428 -336 q 301 -301 356 -336 q 246 -197 246 -265 q 282 -99 246 -147 q 385 -14 318 -50 q 127 101 211 -6 q 43 386 43 208 q 90 604 43 513 q 223 744 138 696 q 424 792 308 792 q 647 718 569 792 q 726 510 724 644 q 714 367 726 421 l 279 367 q 337 187 286 249 q 479 125 388 125 q 587 142 531 125 q 678 182 643 160 l 717 97 q 656 53 694 76 q 569 13 617 29 q 469 -54 510 -11 q 428 -139 428 -97 q 451 -194 428 -175 q 517 -212 474 -212 q 621 -186 560 -212 l 622 -272 q 531 -319 582 -301 q 428 -336 479 -336 m 506 458 l 507 517 q 483 650 507 604 q 403 696 460 696 q 313 645 344 696 q 278 458 281 594 l 506 458 z "},"ẽ":{"ha":769,"x_min":43,"x_max":726,"o":"m 417 -15 q 135 92 226 -15 q 43 386 43 200 q 90 604 43 513 q 223 744 138 696 q 424 792 308 792 q 647 718 569 792 q 726 510 724 644 q 714 367 726 421 l 279 367 q 337 187 286 249 q 479 125 388 125 q 587 142 531 125 q 678 182 643 160 l 717 97 q 594 21 681 57 q 417 -15 507 -15 m 506 458 l 507 517 q 483 650 507 604 q 403 696 460 696 q 313 645 344 696 q 278 458 281 594 l 506 458 m 119 976 q 188 1097 135 1051 q 308 1142 242 1142 q 378 1126 349 1142 q 443 1082 407 1111 q 486 1051 469 1061 q 522 1042 503 1042 q 569 1058 554 1042 q 592 1091 585 1074 q 603 1114 600 1108 l 692 1063 q 635 943 683 990 q 518 896 588 896 q 449 912 478 896 q 385 957 419 928 q 339 990 357 979 q 300 1000 321 1000 q 255 985 271 1000 q 227 953 239 971 q 207 925 215 935 l 119 976 z "},"ə":{"ha":769,"x_min":43,"x_max":726,"o":"m 353 788 q 635 680 543 788 q 726 386 726 572 q 679 168 726 260 q 547 28 632 76 q 346 -19 461 -19 q 123 54 200 -19 q 43 263 46 128 q 56 406 43 351 l 490 406 q 433 585 483 524 q 290 647 382 647 q 183 630 239 647 q 92 590 126 613 l 53 675 q 176 751 89 715 q 353 788 263 788 m 264 314 l 263 256 q 286 122 263 168 q 367 76 310 76 q 457 127 425 76 q 492 314 489 178 l 264 314 z "},"f":{"ha":574,"x_min":42,"x_max":608,"o":"m 150 656 l 42 656 l 42 742 l 150 769 l 150 828 q 200 997 150 921 q 334 1118 250 1074 q 515 1163 418 1163 q 608 1149 567 1163 l 608 947 q 549 980 593 964 q 461 996 504 996 q 396 972 415 996 q 376 894 376 949 l 376 771 l 543 771 l 543 656 l 376 656 l 376 104 l 517 92 l 517 0 l 43 0 l 43 92 l 150 104 l 150 656 z "},"ḟ":{"ha":574,"x_min":-12,"x_max":608,"o":"m 150 656 l 42 656 l 42 742 l 150 769 l 150 828 q 200 997 150 921 q 334 1118 250 1074 q 515 1163 418 1163 q 608 1149 567 1163 l 608 947 q 549 980 593 964 q 461 996 504 996 q 396 972 415 996 q 376 894 376 949 l 376 771 l 543 771 l 543 656 l 376 656 l 376 104 l 517 92 l 517 0 l 43 0 l 43 92 l 150 104 l 150 656 m 108 1028 q 21 1060 54 1028 q -12 1142 -12 1092 q 25 1238 -12 1200 q 125 1275 63 1275 q 219 1243 186 1275 q 253 1161 253 1211 q 215 1065 253 1101 q 110 1028 178 1028 l 108 1028 z "},"g":{"ha":876,"x_min":39,"x_max":868,"o":"m 401 -375 q 124 -315 210 -375 q 39 -156 39 -256 q 76 -50 39 -100 q 171 25 114 0 q 106 144 106 63 q 136 231 106 189 q 218 296 167 274 q 64 532 64 353 q 111 670 64 611 q 239 760 158 729 q 417 792 319 792 q 671 728 590 792 q 732 773 690 751 q 818 794 774 794 l 868 794 l 868 625 l 731 625 q 744 546 744 586 q 654 343 744 418 q 397 268 564 268 q 285 278 329 268 q 272 243 276 261 q 267 214 267 225 q 299 155 267 171 q 415 139 331 139 l 558 139 q 851 -71 851 139 q 788 -232 851 -162 q 620 -338 724 -301 q 401 -375 517 -375 m 411 363 q 495 406 469 363 q 521 532 521 450 q 494 661 521 621 q 410 701 468 701 q 292 538 292 701 q 411 363 292 363 m 428 -271 q 558 -231 504 -271 q 613 -117 613 -190 q 583 -34 613 -58 q 481 -10 554 -10 l 339 -10 q 289 -7 317 -10 q 263 -114 263 -50 q 428 -271 263 -271 z "},"ğ":{"ha":876,"x_min":39,"x_max":868,"o":"m 401 -375 q 124 -315 210 -375 q 39 -156 39 -256 q 76 -50 39 -100 q 171 25 114 0 q 106 144 106 63 q 136 231 106 189 q 218 296 167 274 q 64 532 64 353 q 111 670 64 611 q 239 760 158 729 q 417 792 319 792 q 671 728 590 792 q 732 773 690 751 q 818 794 774 794 l 868 794 l 868 625 l 731 625 q 744 546 744 586 q 654 343 744 418 q 397 268 564 268 q 285 278 329 268 q 272 243 276 261 q 267 214 267 225 q 299 155 267 171 q 415 139 331 139 l 558 139 q 851 -71 851 139 q 788 -232 851 -162 q 620 -338 724 -301 q 401 -375 517 -375 m 411 363 q 495 406 469 363 q 521 532 521 450 q 494 661 521 621 q 410 701 468 701 q 292 538 292 701 q 411 363 292 363 m 428 -271 q 558 -231 504 -271 q 613 -117 613 -190 q 583 -34 613 -58 q 481 -10 554 -10 l 339 -10 q 289 -7 317 -10 q 263 -114 263 -50 q 428 -271 263 -271 m 444 892 q 310 921 368 892 q 221 1001 253 950 q 189 1117 189 1053 q 192 1182 189 1168 l 296 1182 q 297 1153 296 1163 q 337 1075 301 1106 q 444 1044 372 1044 q 551 1074 515 1044 q 590 1151 586 1104 q 592 1182 593 1174 l 693 1182 l 694 1118 q 663 1001 694 1053 q 575 921 632 950 q 444 892 518 892 z "},"ǧ":{"ha":876,"x_min":39,"x_max":868,"o":"m 401 -375 q 124 -315 210 -375 q 39 -156 39 -256 q 76 -50 39 -100 q 171 25 114 0 q 106 144 106 63 q 136 231 106 189 q 218 296 167 274 q 64 532 64 353 q 111 670 64 611 q 239 760 158 729 q 417 792 319 792 q 671 728 590 792 q 732 773 690 751 q 818 794 774 794 l 868 794 l 868 625 l 731 625 q 744 546 744 586 q 654 343 744 418 q 397 268 564 268 q 285 278 329 268 q 272 243 276 261 q 267 214 267 225 q 299 155 267 171 q 415 139 331 139 l 558 139 q 851 -71 851 139 q 788 -232 851 -162 q 620 -338 724 -301 q 401 -375 517 -375 m 411 363 q 495 406 469 363 q 521 532 521 450 q 494 661 521 621 q 410 701 468 701 q 292 538 292 701 q 411 363 292 363 m 428 -271 q 558 -231 504 -271 q 613 -117 613 -190 q 583 -34 613 -58 q 481 -10 554 -10 l 339 -10 q 289 -7 317 -10 q 263 -114 263 -50 q 428 -271 263 -271 m 440 1036 l 644 1215 l 718 1153 l 504 881 l 376 881 l 165 1153 l 239 1214 l 440 1036 z "},"ĝ":{"ha":876,"x_min":39,"x_max":868,"o":"m 401 -375 q 124 -315 210 -375 q 39 -156 39 -256 q 76 -50 39 -100 q 171 25 114 0 q 106 144 106 63 q 136 231 106 189 q 218 296 167 274 q 64 532 64 353 q 111 670 64 611 q 239 760 158 729 q 417 792 319 792 q 671 728 590 792 q 732 773 690 751 q 818 794 774 794 l 868 794 l 868 625 l 731 625 q 744 546 744 586 q 654 343 744 418 q 397 268 564 268 q 285 278 329 268 q 272 243 276 261 q 267 214 267 225 q 299 155 267 171 q 415 139 331 139 l 558 139 q 851 -71 851 139 q 788 -232 851 -162 q 620 -338 724 -301 q 401 -375 517 -375 m 411 363 q 495 406 469 363 q 521 532 521 450 q 494 661 521 621 q 410 701 468 701 q 292 538 292 701 q 411 363 292 363 m 428 -271 q 558 -231 504 -271 q 613 -117 613 -190 q 583 -34 613 -58 q 481 -10 554 -10 l 339 -10 q 289 -7 317 -10 q 263 -114 263 -50 q 428 -271 263 -271 m 504 1201 l 718 931 l 642 868 l 442 1042 l 238 867 l 164 929 l 376 1201 l 504 1201 z "},"ģ":{"ha":876,"x_min":39,"x_max":868,"o":"m 401 -375 q 124 -315 210 -375 q 39 -156 39 -256 q 76 -50 39 -100 q 171 25 114 0 q 106 144 106 63 q 136 231 106 189 q 218 296 167 274 q 64 532 64 353 q 111 670 64 611 q 239 760 158 729 q 417 792 319 792 q 671 728 590 792 q 732 773 690 751 q 818 794 774 794 l 868 794 l 868 625 l 731 625 q 744 546 744 586 q 654 343 744 418 q 397 268 564 268 q 285 278 329 268 q 272 243 276 261 q 267 214 267 225 q 299 155 267 171 q 415 139 331 139 l 558 139 q 851 -71 851 139 q 788 -232 851 -162 q 620 -338 724 -301 q 401 -375 517 -375 m 411 363 q 495 406 469 363 q 521 532 521 450 q 494 661 521 621 q 410 701 468 701 q 292 538 292 701 q 411 363 292 363 m 428 -271 q 558 -231 504 -271 q 613 -117 613 -190 q 583 -34 613 -58 q 481 -10 554 -10 l 339 -10 q 289 -7 317 -10 q 263 -114 263 -50 q 428 -271 263 -271 m 440 886 q 362 915 392 886 q 332 996 332 943 q 353 1088 332 1043 q 403 1163 375 1132 q 450 1201 431 1194 l 451 1201 l 524 1181 l 526 1171 q 502 1138 511 1164 q 493 1083 493 1111 q 518 1035 493 1054 q 550 969 550 1011 q 517 906 550 925 q 444 886 485 886 l 440 886 z "},"ġ":{"ha":876,"x_min":39,"x_max":868,"o":"m 401 -375 q 124 -315 210 -375 q 39 -156 39 -256 q 76 -50 39 -100 q 171 25 114 0 q 106 144 106 63 q 136 231 106 189 q 218 296 167 274 q 64 532 64 353 q 111 670 64 611 q 239 760 158 729 q 417 792 319 792 q 671 728 590 792 q 732 773 690 751 q 818 794 774 794 l 868 794 l 868 625 l 731 625 q 744 546 744 586 q 654 343 744 418 q 397 268 564 268 q 285 278 329 268 q 272 243 276 261 q 267 214 267 225 q 299 155 267 171 q 415 139 331 139 l 558 139 q 851 -71 851 139 q 788 -232 851 -162 q 620 -338 724 -301 q 401 -375 517 -375 m 411 363 q 495 406 469 363 q 521 532 521 450 q 494 661 521 621 q 410 701 468 701 q 292 538 292 701 q 411 363 292 363 m 428 -271 q 558 -231 504 -271 q 613 -117 613 -190 q 583 -34 613 -58 q 481 -10 554 -10 l 339 -10 q 289 -7 317 -10 q 263 -114 263 -50 q 428 -271 263 -271 m 429 892 q 342 924 375 892 q 308 1006 308 956 q 346 1101 308 1064 q 446 1139 383 1139 q 540 1107 507 1139 q 574 1025 574 1075 q 536 928 574 965 q 431 892 499 892 l 429 892 z "},"ḡ":{"ha":876,"x_min":39,"x_max":868,"o":"m 401 -375 q 124 -315 210 -375 q 39 -156 39 -256 q 76 -50 39 -100 q 171 25 114 0 q 106 144 106 63 q 136 231 106 189 q 218 296 167 274 q 64 532 64 353 q 111 670 64 611 q 239 760 158 729 q 417 792 319 792 q 671 728 590 792 q 732 773 690 751 q 818 794 774 794 l 868 794 l 868 625 l 731 625 q 744 546 744 586 q 654 343 744 418 q 397 268 564 268 q 285 278 329 268 q 272 243 276 261 q 267 214 267 225 q 299 155 267 171 q 415 139 331 139 l 558 139 q 851 -71 851 139 q 788 -232 851 -162 q 620 -338 724 -301 q 401 -375 517 -375 m 411 363 q 495 406 469 363 q 521 532 521 450 q 494 661 521 621 q 410 701 468 701 q 292 538 292 701 q 411 363 292 363 m 428 -271 q 558 -231 504 -271 q 613 -117 613 -190 q 583 -34 613 -58 q 481 -10 554 -10 l 339 -10 q 289 -7 317 -10 q 263 -114 263 -50 q 428 -271 263 -271 m 657 922 l 226 922 l 226 1056 l 657 1056 l 657 922 z "},"h":{"ha":940,"x_min":22,"x_max":914,"o":"m 121 1003 l 22 1021 l 22 1106 l 301 1139 l 306 1139 l 346 1110 l 347 808 l 336 685 q 450 756 379 725 q 606 788 521 788 q 742 756 693 788 q 810 658 790 724 q 829 485 829 593 l 829 104 l 914 92 l 914 0 l 528 0 l 528 92 l 601 104 l 601 483 q 581 619 601 581 q 496 657 560 657 q 418 640 457 657 q 353 597 379 622 l 353 104 l 429 92 l 429 0 l 49 0 l 49 92 l 121 104 l 121 1003 z "},"ħ":{"ha":946,"x_min":13,"x_max":915,"o":"m 122 1003 l 24 1021 l 24 1106 l 304 1139 l 308 1139 l 349 1110 l 349 939 l 522 939 l 522 846 l 349 846 l 349 808 l 338 685 q 453 756 383 725 q 607 788 524 788 q 743 756 694 788 q 811 658 792 724 q 831 485 831 593 l 831 104 l 915 92 l 915 0 l 531 0 l 531 92 l 603 104 l 603 483 q 594 585 603 549 q 564 640 586 622 q 499 657 542 657 q 419 640 458 657 q 354 597 381 622 l 354 104 l 432 92 l 432 0 l 51 0 l 51 92 l 122 104 l 122 846 l 13 846 l 13 939 l 122 939 l 122 1003 z "},"ĥ":{"ha":940,"x_min":-56,"x_max":914,"o":"m 121 1003 l 22 1021 l 22 1106 l 301 1139 l 306 1139 l 346 1110 l 347 808 l 336 685 q 450 756 379 725 q 606 788 521 788 q 742 756 693 788 q 810 658 790 724 q 829 485 829 593 l 829 104 l 914 92 l 914 0 l 528 0 l 528 92 l 601 104 l 601 483 q 581 619 601 581 q 496 657 560 657 q 418 640 457 657 q 353 597 379 622 l 353 104 l 429 92 l 429 0 l 49 0 l 49 92 l 121 104 l 121 1003 m 286 1438 l 494 1236 l 418 1172 l 219 1304 l 19 1172 l -56 1235 l 154 1438 l 286 1438 z "},"ḥ":{"ha":940,"x_min":22,"x_max":914,"o":"m 121 1003 l 22 1021 l 22 1106 l 301 1139 l 306 1139 l 346 1110 l 347 808 l 336 685 q 450 756 379 725 q 606 788 521 788 q 742 756 693 788 q 810 658 790 724 q 829 485 829 593 l 829 104 l 914 92 l 914 0 l 528 0 l 528 92 l 601 104 l 601 483 q 581 619 601 581 q 496 657 560 657 q 418 640 457 657 q 353 597 379 622 l 353 104 l 429 92 l 429 0 l 49 0 l 49 92 l 121 104 l 121 1003 m 461 -311 q 381 -281 413 -311 q 349 -204 349 -250 q 383 -114 349 -150 q 475 -78 417 -78 q 562 -108 531 -78 q 593 -185 593 -139 q 559 -276 593 -240 q 463 -311 525 -311 l 461 -311 z "},"i":{"ha":494,"x_min":50,"x_max":457,"o":"m 228 892 q 140 924 174 892 q 107 1006 107 956 q 144 1101 107 1064 q 243 1139 181 1139 q 339 1107 306 1139 q 372 1025 372 1075 q 335 928 372 965 q 229 892 297 892 l 228 892 m 143 626 l 50 653 l 50 757 l 328 790 l 331 790 l 374 761 l 374 104 l 457 92 l 457 0 l 57 0 l 57 92 l 143 104 l 143 626 z "},"ı":{"ha":494,"x_min":50,"x_max":457,"o":"m 143 626 l 50 653 l 50 757 l 328 790 l 331 790 l 374 761 l 374 104 l 457 92 l 457 0 l 57 0 l 57 92 l 143 104 l 143 626 z "},"í":{"ha":494,"x_min":50,"x_max":478,"o":"m 143 626 l 50 653 l 50 757 l 328 790 l 331 790 l 374 761 l 374 104 l 457 92 l 457 0 l 57 0 l 57 92 l 143 104 l 143 626 m 103 953 l 344 1250 l 478 1131 q 344 990 442 1069 q 183 885 247 910 l 103 953 z "},"ĭ":{"ha":494,"x_min":-6,"x_max":500,"o":"m 143 626 l 50 653 l 50 757 l 328 790 l 331 790 l 374 761 l 374 104 l 457 92 l 457 0 l 57 0 l 57 92 l 143 104 l 143 626 m 250 892 q 116 921 174 892 q 26 1001 58 950 q -6 1117 -6 1053 q -3 1182 -6 1168 l 101 1182 q 103 1153 101 1163 q 142 1075 107 1106 q 250 1044 178 1044 q 356 1074 321 1044 q 396 1151 392 1104 q 397 1182 399 1174 l 499 1182 l 500 1118 q 469 1001 500 1053 q 381 921 438 950 q 250 892 324 892 z "},"ǐ":{"ha":494,"x_min":-29,"x_max":524,"o":"m 143 626 l 50 653 l 50 757 l 328 790 l 331 790 l 374 761 l 374 104 l 457 92 l 457 0 l 57 0 l 57 92 l 143 104 l 143 626 m 246 1036 l 450 1215 l 524 1153 l 310 881 l 182 881 l -29 1153 l 44 1214 l 246 1036 z "},"î":{"ha":494,"x_min":-31,"x_max":524,"o":"m 143 626 l 50 653 l 50 757 l 328 790 l 331 790 l 374 761 l 374 104 l 457 92 l 457 0 l 57 0 l 57 92 l 143 104 l 143 626 m 310 1201 l 524 931 l 447 868 l 247 1042 l 43 867 l -31 929 l 182 1201 l 310 1201 z "},"ï":{"ha":494,"x_min":-36,"x_max":533,"o":"m 143 626 l 50 653 l 50 757 l 328 790 l 331 790 l 374 761 l 374 104 l 457 92 l 457 0 l 57 0 l 57 92 l 143 104 l 143 626 m 67 893 q -9 925 18 893 q -36 1003 -36 957 q -7 1097 -36 1061 q 81 1132 22 1132 q 161 1101 135 1132 q 188 1024 188 1071 q 67 893 188 893 m 413 893 q 336 926 364 893 q 308 1003 308 960 q 338 1097 308 1061 q 425 1132 367 1132 q 506 1101 479 1132 q 533 1024 533 1071 q 413 893 533 893 z "},"ị":{"ha":494,"x_min":50,"x_max":457,"o":"m 143 626 l 50 653 l 50 757 l 328 790 l 331 790 l 374 761 l 374 104 l 457 92 l 457 0 l 57 0 l 57 92 l 143 104 l 143 626 m 235 892 q 147 924 181 892 q 114 1006 114 956 q 151 1101 114 1064 q 251 1139 189 1139 q 346 1107 313 1139 q 379 1025 379 1075 q 342 928 379 965 q 236 892 304 892 l 235 892 m 243 -311 q 163 -281 194 -311 q 131 -204 131 -250 q 165 -114 131 -150 q 257 -78 199 -78 q 344 -108 313 -78 q 375 -185 375 -139 q 341 -276 375 -240 q 244 -311 307 -311 l 243 -311 z "},"ì":{"ha":494,"x_min":-6,"x_max":457,"o":"m 143 626 l 50 653 l 50 757 l 328 790 l 331 790 l 374 761 l 374 104 l 457 92 l 457 0 l 57 0 l 57 92 l 143 104 l 143 626 m 286 883 q 187 941 247 897 q 72 1037 126 985 q -6 1129 17 1089 l 126 1249 l 368 951 l 288 883 l 286 883 z "},"ỉ":{"ha":494,"x_min":50,"x_max":457,"o":"m 143 626 l 50 653 l 50 757 l 328 790 l 331 790 l 374 761 l 374 104 l 457 92 l 457 0 l 57 0 l 57 92 l 143 104 l 143 626 m 213 851 q 194 881 203 863 q 185 918 185 900 q 192 940 185 931 q 211 960 199 949 q 237 987 228 974 q 246 1021 246 1000 q 228 1070 246 1051 q 172 1089 211 1089 q 136 1085 156 1089 q 106 1072 117 1081 l 101 1193 q 151 1208 122 1203 q 203 1214 179 1214 q 344 1172 293 1214 q 394 1051 394 1131 q 378 993 394 1017 q 342 953 361 969 q 317 931 324 936 q 303 908 308 922 q 299 876 299 893 q 301 851 299 860 l 213 851 z "},"ĳ":{"ha":964,"x_min":50,"x_max":871,"o":"m 228 892 q 140 924 174 892 q 107 1006 107 956 q 144 1101 107 1064 q 243 1139 181 1139 q 339 1107 306 1139 q 372 1025 372 1075 q 335 928 372 965 q 229 892 297 892 l 228 892 m 143 626 l 50 653 l 50 757 l 328 790 l 331 790 l 374 761 l 374 104 l 457 92 l 457 0 l 57 0 l 57 92 l 143 104 l 143 626 m 729 892 q 642 924 675 892 q 608 1006 608 956 q 645 1101 608 1064 q 744 1139 682 1139 q 838 1107 806 1139 q 871 1025 871 1075 q 835 928 871 965 q 731 892 799 892 l 729 892 m 544 757 l 818 790 l 821 790 l 863 761 l 863 14 q 816 -174 863 -94 q 702 -294 769 -253 q 572 -337 635 -336 q 486 -332 503 -337 l 475 -244 q 544 -228 514 -244 q 617 -134 594 -204 q 639 58 639 -64 l 639 624 l 544 650 l 544 757 z "},"ī":{"ha":494,"x_min":32,"x_max":463,"o":"m 143 626 l 50 653 l 50 757 l 328 790 l 331 790 l 374 761 l 374 104 l 457 92 l 457 0 l 57 0 l 57 92 l 143 104 l 143 626 m 463 922 l 32 922 l 32 1056 l 463 1056 l 463 922 z "},"į":{"ha":494,"x_min":50,"x_max":457,"o":"m 236 892 q 148 924 182 892 q 114 1006 114 956 q 151 1101 114 1064 q 251 1139 189 1139 q 347 1107 314 1139 q 379 1025 379 1075 q 342 928 379 965 q 238 892 304 892 l 236 892 m 264 -336 q 140 -300 194 -336 q 85 -197 85 -264 q 126 -89 85 -143 q 244 0 168 -35 l 57 0 l 57 92 l 143 104 l 143 626 l 50 653 l 50 757 l 328 790 l 331 790 l 374 761 l 374 104 l 457 92 l 457 0 l 376 0 q 294 -65 324 -26 q 265 -140 265 -104 q 288 -193 265 -174 q 350 -212 310 -212 q 389 -208 372 -212 q 421 -196 406 -203 q 444 -186 436 -189 l 443 -283 q 364 -321 414 -306 q 264 -336 314 -336 z "},"ĩ":{"ha":494,"x_min":-44,"x_max":528,"o":"m 143 626 l 50 653 l 50 757 l 328 790 l 331 790 l 374 761 l 374 104 l 457 92 l 457 0 l 57 0 l 57 92 l 143 104 l 143 626 m -44 976 q 24 1097 -29 1051 q 144 1142 78 1142 q 214 1126 185 1142 q 279 1082 243 1111 q 322 1051 306 1061 q 358 1042 339 1042 q 406 1058 390 1042 q 428 1091 421 1074 q 439 1114 436 1108 l 528 1063 q 472 943 519 990 q 354 896 424 896 q 285 912 314 896 q 221 957 256 928 q 175 990 193 979 q 136 1000 157 1000 q 91 985 107 1000 q 63 953 75 971 q 43 925 51 935 l -44 976 z "},"j":{"ha":469,"x_min":-19,"x_max":376,"o":"m 235 892 q 147 924 181 892 q 114 1006 114 956 q 151 1101 114 1064 q 250 1139 188 1139 q 344 1107 311 1139 q 376 1025 376 1075 q 340 928 376 965 q 236 892 304 892 l 235 892 m 50 757 l 324 790 l 326 790 l 368 761 l 368 14 q 322 -174 368 -94 q 208 -294 275 -253 q 78 -337 140 -336 q -8 -332 8 -337 l -19 -244 q 50 -228 19 -244 q 122 -134 100 -204 q 144 58 144 -64 l 144 624 l 50 650 l 50 757 z "},"ȷ":{"ha":469,"x_min":-19,"x_max":368,"o":"m 50 757 l 324 790 l 326 790 l 368 761 l 368 14 q 322 -174 368 -94 q 208 -294 275 -253 q 78 -337 140 -336 q -8 -332 8 -337 l -19 -244 q 50 -228 19 -244 q 122 -134 100 -204 q 144 58 144 -64 l 144 624 l 50 650 l 50 757 z "},"ĵ":{"ha":469,"x_min":-33,"x_max":521,"o":"m 50 757 l 324 790 l 326 790 l 368 761 l 368 14 q 322 -174 368 -94 q 208 -294 275 -253 q 78 -337 140 -336 q -8 -332 8 -337 l -19 -244 q 50 -228 19 -244 q 122 -134 100 -204 q 144 58 144 -64 l 144 624 l 50 650 l 50 757 m 307 1201 l 521 931 l 444 868 l 244 1042 l 40 867 l -33 929 l 179 1201 l 307 1201 z "},"k":{"ha":899,"x_min":26,"x_max":917,"o":"m 121 1003 l 26 1021 l 26 1106 l 303 1139 l 307 1139 l 347 1110 l 347 461 l 343 393 l 604 668 l 501 683 l 501 771 l 879 771 l 879 683 l 765 665 l 615 522 l 844 104 l 917 92 l 917 0 l 531 0 l 531 92 l 593 104 l 456 379 l 343 263 l 346 192 l 346 104 l 426 92 l 426 0 l 44 0 l 44 92 l 121 104 l 121 1003 z "},"ķ":{"ha":899,"x_min":26,"x_max":917,"o":"m 121 1003 l 26 1021 l 26 1106 l 303 1139 l 307 1139 l 347 1110 l 347 461 l 343 393 l 604 668 l 501 683 l 501 771 l 879 771 l 879 683 l 765 665 l 615 522 l 844 104 l 917 92 l 917 0 l 531 0 l 531 92 l 593 104 l 456 379 l 343 263 l 346 192 l 346 104 l 426 92 l 426 0 l 44 0 l 44 92 l 121 104 l 121 1003 m 594 -174 q 573 -265 594 -221 q 524 -341 551 -310 q 476 -379 496 -372 l 475 -379 l 403 -358 l 400 -349 q 424 -315 415 -342 q 433 -261 433 -289 q 408 -212 433 -232 q 376 -147 376 -189 q 409 -83 376 -103 q 482 -64 442 -64 l 486 -64 q 565 -92 535 -64 q 594 -174 594 -121 z "},"ĸ":{"ha":947,"x_min":60,"x_max":950,"o":"m 147 626 l 63 651 l 63 760 l 321 790 l 324 790 l 376 761 l 376 485 l 372 372 l 640 667 l 526 682 l 526 771 l 915 771 l 915 682 l 806 668 l 642 515 l 876 106 l 950 92 l 950 0 l 568 0 l 568 90 l 624 103 l 488 368 l 374 251 l 378 189 l 378 104 l 458 90 l 458 0 l 60 0 l 60 92 l 147 104 l 147 626 z "},"l":{"ha":478,"x_min":33,"x_max":446,"o":"m 131 1003 l 33 1021 l 33 1106 l 311 1139 l 315 1139 l 356 1110 l 356 104 l 446 92 l 446 0 l 42 0 l 42 92 l 131 104 l 131 1003 z "},"ĺ":{"ha":479,"x_min":33,"x_max":457,"o":"m 107 1151 l 317 1364 l 457 1265 q 321 1157 406 1210 q 190 1090 236 1104 l 107 1151 m 42 92 l 131 104 l 131 900 l 33 917 l 33 1001 l 314 1035 l 357 1004 l 357 104 l 449 92 l 449 0 l 42 0 l 42 92 z "},"ľ":{"ha":478,"x_min":33,"x_max":619,"o":"m 131 1003 l 33 1021 l 33 1106 l 311 1139 l 315 1139 l 356 1110 l 356 104 l 446 92 l 446 0 l 42 0 l 42 92 l 131 104 l 131 1003 m 449 832 l 444 847 q 453 997 453 897 q 435 1122 453 1082 l 442 1153 l 607 1153 q 619 1046 619 1124 q 572 831 619 940 l 449 832 z "},"ļ":{"ha":478,"x_min":33,"x_max":446,"o":"m 131 1003 l 33 1021 l 33 1106 l 311 1139 l 315 1139 l 356 1110 l 356 104 l 446 92 l 446 0 l 42 0 l 42 92 l 131 104 l 131 1003 m 354 -176 q 333 -267 354 -224 q 283 -342 311 -311 q 236 -379 254 -372 l 233 -379 l 163 -358 l 160 -349 q 183 -315 174 -342 q 193 -261 193 -289 q 167 -212 193 -231 q 135 -147 135 -189 q 168 -83 135 -103 q 240 -64 201 -64 l 246 -64 q 324 -93 294 -64 q 354 -176 354 -122 z "},"ŀ":{"ha":782,"x_min":33,"x_max":750,"o":"m 131 1003 l 33 1021 l 33 1106 l 311 1139 l 315 1139 l 356 1110 l 356 104 l 446 92 l 446 0 l 42 0 l 42 92 l 131 104 l 131 1003 m 607 415 q 524 449 560 415 q 489 532 489 482 q 529 623 489 588 q 628 658 569 658 q 717 624 683 658 q 750 542 750 589 q 710 449 750 482 q 607 415 671 415 z "},"ḷ":{"ha":478,"x_min":33,"x_max":446,"o":"m 131 1003 l 33 1021 l 33 1106 l 311 1139 l 315 1139 l 356 1110 l 356 104 l 446 92 l 446 0 l 42 0 l 42 92 l 131 104 l 131 1003 m 240 -311 q 160 -281 192 -311 q 128 -204 128 -250 q 162 -114 128 -150 q 254 -78 196 -78 q 341 -108 310 -78 q 372 -185 372 -139 q 338 -276 372 -240 q 242 -311 304 -311 l 240 -311 z "},"ǉ":{"ha":947,"x_min":33,"x_max":854,"o":"m 131 1003 l 33 1021 l 33 1106 l 311 1139 l 315 1139 l 356 1110 l 356 104 l 446 92 l 446 0 l 42 0 l 42 92 l 131 104 l 131 1003 m 713 892 q 625 924 658 892 q 592 1006 592 956 q 628 1101 592 1064 q 728 1139 665 1139 q 822 1107 789 1139 q 854 1025 854 1075 q 818 928 854 965 q 714 892 782 892 l 713 892 m 528 757 l 801 790 l 804 790 l 846 761 l 846 14 q 799 -174 846 -94 q 685 -294 753 -253 q 556 -337 618 -336 q 469 -332 486 -337 l 458 -244 q 528 -228 497 -244 q 600 -134 578 -204 q 622 58 622 -64 l 622 624 l 528 650 l 528 757 z "},"ł":{"ha":544,"x_min":29,"x_max":526,"o":"m 158 1003 l 61 1021 l 61 1106 l 340 1139 l 343 1139 l 385 1110 l 385 710 l 526 776 l 526 664 l 385 599 l 385 104 l 474 92 l 474 0 l 71 0 l 71 92 l 158 104 l 158 510 l 29 453 l 29 558 l 158 618 l 158 1003 z "},"m":{"ha":1422,"x_min":54,"x_max":1392,"o":"m 63 92 l 136 104 l 136 626 l 54 651 l 54 760 l 307 790 l 318 785 l 346 746 l 346 676 q 476 755 390 722 q 624 788 563 788 q 745 763 699 788 q 815 685 792 738 q 934 758 863 729 q 1079 788 1006 788 q 1255 717 1201 788 q 1308 485 1308 646 l 1308 104 l 1392 92 l 1392 0 l 1015 0 l 1015 92 l 1078 104 l 1078 479 q 1055 618 1078 579 q 971 657 1032 657 q 838 603 907 657 q 846 485 846 551 l 846 104 l 924 92 l 924 0 l 544 0 l 544 92 l 614 104 l 614 483 q 592 619 614 582 q 511 657 571 657 q 434 640 472 657 q 368 597 396 622 l 368 104 l 443 92 l 443 0 l 63 0 l 63 92 z "},"ḿ":{"ha":1422,"x_min":54,"x_max":1392,"o":"m 63 92 l 136 104 l 136 626 l 54 651 l 54 760 l 307 790 l 318 785 l 346 746 l 346 676 q 476 755 390 722 q 624 788 563 788 q 745 763 699 788 q 815 685 792 738 q 934 758 863 729 q 1079 788 1006 788 q 1255 717 1201 788 q 1308 485 1308 646 l 1308 104 l 1392 92 l 1392 0 l 1015 0 l 1015 92 l 1078 104 l 1078 479 q 1055 618 1078 579 q 971 657 1032 657 q 838 603 907 657 q 846 485 846 551 l 846 104 l 924 92 l 924 0 l 544 0 l 544 92 l 614 104 l 614 483 q 592 619 614 582 q 511 657 571 657 q 434 640 472 657 q 368 597 396 622 l 368 104 l 443 92 l 443 0 l 63 0 l 63 92 m 567 953 l 808 1250 l 942 1131 q 808 990 906 1069 q 647 885 711 910 l 567 953 z "},"ṁ":{"ha":1422,"x_min":54,"x_max":1392,"o":"m 63 92 l 136 104 l 136 626 l 54 651 l 54 760 l 307 790 l 318 785 l 346 746 l 346 676 q 476 755 390 722 q 624 788 563 788 q 745 763 699 788 q 815 685 792 738 q 934 758 863 729 q 1079 788 1006 788 q 1255 717 1201 788 q 1308 485 1308 646 l 1308 104 l 1392 92 l 1392 0 l 1015 0 l 1015 92 l 1078 104 l 1078 479 q 1055 618 1078 579 q 971 657 1032 657 q 838 603 907 657 q 846 485 846 551 l 846 104 l 924 92 l 924 0 l 544 0 l 544 92 l 614 104 l 614 483 q 592 619 614 582 q 511 657 571 657 q 434 640 472 657 q 368 597 396 622 l 368 104 l 443 92 l 443 0 l 63 0 l 63 92 m 699 892 q 611 924 644 892 q 578 1006 578 956 q 615 1101 578 1064 q 715 1139 653 1139 q 810 1107 776 1139 q 843 1025 843 1075 q 806 928 843 965 q 700 892 768 892 l 699 892 z "},"n":{"ha":960,"x_min":54,"x_max":926,"o":"m 136 626 l 54 651 l 54 760 l 307 790 l 311 790 l 347 761 l 347 710 l 346 678 q 469 756 394 724 q 626 788 544 788 q 758 758 710 788 q 827 663 806 728 q 849 485 849 597 l 849 104 l 926 93 l 926 0 l 549 0 l 549 92 l 617 104 l 617 483 q 608 587 617 550 q 576 640 599 624 q 513 657 554 657 q 368 597 449 657 l 368 104 l 444 92 l 444 0 l 60 0 l 60 92 l 136 104 l 136 626 z "},"ń":{"ha":960,"x_min":54,"x_max":926,"o":"m 136 626 l 54 651 l 54 760 l 307 790 l 311 790 l 347 761 l 347 710 l 346 678 q 469 756 394 724 q 626 788 544 788 q 758 758 710 788 q 827 663 806 728 q 849 485 849 597 l 849 104 l 926 93 l 926 0 l 549 0 l 549 92 l 617 104 l 617 483 q 608 587 617 550 q 576 640 599 624 q 513 657 554 657 q 368 597 449 657 l 368 104 l 444 92 l 444 0 l 60 0 l 60 92 l 136 104 l 136 626 m 328 953 l 569 1250 l 703 1131 q 569 990 667 1069 q 408 885 472 910 l 328 953 z "},"ň":{"ha":960,"x_min":54,"x_max":926,"o":"m 136 626 l 54 651 l 54 760 l 307 790 l 311 790 l 347 761 l 347 710 l 346 678 q 469 756 394 724 q 626 788 544 788 q 758 758 710 788 q 827 663 806 728 q 849 485 849 597 l 849 104 l 926 93 l 926 0 l 549 0 l 549 92 l 617 104 l 617 483 q 608 587 617 550 q 576 640 599 624 q 513 657 554 657 q 368 597 449 657 l 368 104 l 444 92 l 444 0 l 60 0 l 60 92 l 136 104 l 136 626 m 471 1036 l 675 1215 l 749 1153 l 535 881 l 407 881 l 196 1153 l 269 1214 l 471 1036 z "},"ņ":{"ha":960,"x_min":54,"x_max":926,"o":"m 136 626 l 54 651 l 54 760 l 307 790 l 311 790 l 347 761 l 347 710 l 346 678 q 469 756 394 724 q 626 788 544 788 q 758 758 710 788 q 827 663 806 728 q 849 485 849 597 l 849 104 l 926 93 l 926 0 l 549 0 l 549 92 l 617 104 l 617 483 q 608 587 617 550 q 576 640 599 624 q 513 657 554 657 q 368 597 449 657 l 368 104 l 444 92 l 444 0 l 60 0 l 60 92 l 136 104 l 136 626 m 601 -174 q 580 -265 601 -221 q 531 -341 558 -310 q 483 -379 503 -372 l 482 -379 l 410 -358 l 407 -349 q 431 -315 422 -342 q 440 -261 440 -289 q 415 -212 440 -232 q 383 -147 383 -189 q 416 -83 383 -103 q 489 -64 449 -64 l 493 -64 q 572 -92 542 -64 q 601 -174 601 -121 z "},"ṅ":{"ha":960,"x_min":54,"x_max":926,"o":"m 136 626 l 54 651 l 54 760 l 307 790 l 311 790 l 347 761 l 347 710 l 346 678 q 469 756 394 724 q 626 788 544 788 q 758 758 710 788 q 827 663 806 728 q 849 485 849 597 l 849 104 l 926 93 l 926 0 l 549 0 l 549 92 l 617 104 l 617 483 q 608 587 617 550 q 576 640 599 624 q 513 657 554 657 q 368 597 449 657 l 368 104 l 444 92 l 444 0 l 60 0 l 60 92 l 136 104 l 136 626 m 460 892 q 372 924 406 892 q 339 1006 339 956 q 376 1101 339 1064 q 476 1139 414 1139 q 571 1107 538 1139 q 604 1025 604 1075 q 567 928 604 965 q 461 892 529 892 l 460 892 z "},"ṇ":{"ha":960,"x_min":54,"x_max":926,"o":"m 136 626 l 54 651 l 54 760 l 307 790 l 311 790 l 347 761 l 347 710 l 346 678 q 469 756 394 724 q 626 788 544 788 q 758 758 710 788 q 827 663 806 728 q 849 485 849 597 l 849 104 l 926 93 l 926 0 l 549 0 l 549 92 l 617 104 l 617 483 q 608 587 617 550 q 576 640 599 624 q 513 657 554 657 q 368 597 449 657 l 368 104 l 444 92 l 444 0 l 60 0 l 60 92 l 136 104 l 136 626 m 479 -311 q 399 -281 431 -311 q 367 -204 367 -250 q 401 -114 367 -150 q 493 -78 435 -78 q 580 -108 549 -78 q 611 -185 611 -139 q 577 -276 611 -240 q 481 -311 543 -311 l 479 -311 z "},"ŋ":{"ha":958,"x_min":58,"x_max":854,"o":"m 143 628 l 58 653 l 58 761 l 313 792 l 317 792 l 353 761 l 353 715 l 351 679 q 476 757 401 725 q 631 789 550 789 q 761 758 713 789 q 832 663 810 728 q 854 488 854 597 l 854 15 q 775 -260 854 -161 q 543 -362 696 -358 q 469 -357 476 -362 l 463 -262 q 499 -260 474 -265 q 536 -249 524 -256 q 606 -159 590 -226 q 622 31 622 -92 l 622 488 q 599 619 622 581 q 517 657 576 657 q 440 639 476 657 q 375 597 403 621 l 375 104 l 450 92 l 450 0 l 67 0 l 67 92 l 143 104 l 143 628 z "},"ǌ":{"ha":1429,"x_min":54,"x_max":1336,"o":"m 136 626 l 54 651 l 54 760 l 307 790 l 311 790 l 347 761 l 347 710 l 346 678 q 469 756 394 724 q 626 788 544 788 q 758 758 710 788 q 827 663 806 728 q 849 485 849 597 l 849 104 l 926 93 l 926 0 l 549 0 l 549 92 l 617 104 l 617 483 q 608 587 617 550 q 576 640 599 624 q 513 657 554 657 q 368 597 449 657 l 368 104 l 444 92 l 444 0 l 60 0 l 60 92 l 136 104 l 136 626 m 1194 892 q 1107 924 1140 892 q 1074 1006 1074 956 q 1110 1101 1074 1064 q 1210 1139 1147 1139 q 1303 1107 1271 1139 q 1336 1025 1336 1075 q 1300 928 1336 965 q 1196 892 1264 892 l 1194 892 m 1010 757 l 1283 790 l 1286 790 l 1328 761 l 1328 14 q 1281 -174 1328 -94 q 1167 -294 1235 -253 q 1038 -337 1100 -336 q 951 -332 968 -337 l 940 -244 q 1010 -228 979 -244 q 1082 -134 1060 -204 q 1104 58 1104 -64 l 1104 624 l 1010 650 l 1010 757 z "},"ñ":{"ha":960,"x_min":54,"x_max":926,"o":"m 136 626 l 54 651 l 54 760 l 307 790 l 311 790 l 347 761 l 347 710 l 346 678 q 469 756 394 724 q 626 788 544 788 q 758 758 710 788 q 827 663 806 728 q 849 485 849 597 l 849 104 l 926 93 l 926 0 l 549 0 l 549 92 l 617 104 l 617 483 q 608 587 617 550 q 576 640 599 624 q 513 657 554 657 q 368 597 449 657 l 368 104 l 444 92 l 444 0 l 60 0 l 60 92 l 136 104 l 136 626 m 181 976 q 249 1097 196 1051 q 369 1142 303 1142 q 439 1126 410 1142 q 504 1082 468 1111 q 547 1051 531 1061 q 583 1042 564 1042 q 631 1058 615 1042 q 653 1091 646 1074 q 664 1114 661 1108 l 753 1063 q 697 943 744 990 q 579 896 649 896 q 510 912 539 896 q 446 957 481 928 q 400 990 418 979 q 361 1000 382 1000 q 316 985 332 1000 q 288 953 300 971 q 268 925 276 935 l 181 976 z "},"o":{"ha":892,"x_min":63,"x_max":828,"o":"m 63 382 q 115 608 63 515 q 258 746 168 700 q 454 792 347 792 q 728 687 629 792 q 828 394 828 582 q 775 165 828 257 q 633 29 722 74 q 435 -15 544 -15 q 162 90 261 -15 q 63 382 63 194 m 449 82 q 548 153 515 82 q 581 378 581 225 q 549 617 581 540 q 444 694 518 694 q 308 399 308 694 q 342 160 308 238 q 449 82 375 82 z "},"ó":{"ha":892,"x_min":63,"x_max":828,"o":"m 63 382 q 115 608 63 515 q 258 746 168 700 q 454 792 347 792 q 728 687 629 792 q 828 394 828 582 q 775 165 828 257 q 633 29 722 74 q 435 -15 544 -15 q 162 90 261 -15 q 63 382 63 194 m 449 82 q 548 153 515 82 q 581 378 581 225 q 549 617 581 540 q 444 694 518 694 q 308 399 308 694 q 342 160 308 238 q 449 82 375 82 m 307 953 l 549 1250 l 682 1131 q 549 990 646 1069 q 388 885 451 910 l 307 953 z "},"ŏ":{"ha":892,"x_min":63,"x_max":828,"o":"m 63 382 q 115 608 63 515 q 258 746 168 700 q 454 792 347 792 q 728 687 629 792 q 828 394 828 582 q 775 165 828 257 q 633 29 722 74 q 435 -15 544 -15 q 162 90 261 -15 q 63 382 63 194 m 449 82 q 548 153 515 82 q 581 378 581 225 q 549 617 581 540 q 444 694 518 694 q 308 399 308 694 q 342 160 308 238 q 449 82 375 82 m 454 892 q 320 921 378 892 q 231 1001 263 950 q 199 1117 199 1053 q 201 1182 199 1168 l 306 1182 q 307 1153 306 1163 q 347 1075 311 1106 q 454 1044 382 1044 q 560 1074 525 1044 q 600 1151 596 1104 q 601 1182 603 1174 l 703 1182 l 704 1118 q 673 1001 704 1053 q 585 921 642 950 q 454 892 528 892 z "},"ǒ":{"ha":892,"x_min":63,"x_max":828,"o":"m 63 382 q 115 608 63 515 q 258 746 168 700 q 454 792 347 792 q 728 687 629 792 q 828 394 828 582 q 775 165 828 257 q 633 29 722 74 q 435 -15 544 -15 q 162 90 261 -15 q 63 382 63 194 m 449 82 q 548 153 515 82 q 581 378 581 225 q 549 617 581 540 q 444 694 518 694 q 308 399 308 694 q 342 160 308 238 q 449 82 375 82 m 450 1036 l 654 1215 l 728 1153 l 514 881 l 386 881 l 175 1153 l 249 1214 l 450 1036 z "},"ô":{"ha":892,"x_min":63,"x_max":828,"o":"m 63 382 q 115 608 63 515 q 258 746 168 700 q 454 792 347 792 q 728 687 629 792 q 828 394 828 582 q 775 165 828 257 q 633 29 722 74 q 435 -15 544 -15 q 162 90 261 -15 q 63 382 63 194 m 449 82 q 548 153 515 82 q 581 378 581 225 q 549 617 581 540 q 444 694 518 694 q 308 399 308 694 q 342 160 308 238 q 449 82 375 82 m 514 1201 l 728 931 l 651 868 l 451 1042 l 247 867 l 174 929 l 386 1201 l 514 1201 z "},"ố":{"ha":892,"x_min":63,"x_max":901,"o":"m 63 382 q 115 608 63 515 q 258 746 168 700 q 454 792 347 792 q 728 687 629 792 q 828 394 828 582 q 775 165 828 257 q 633 29 722 74 q 435 -15 544 -15 q 162 90 261 -15 q 63 382 63 194 m 449 82 q 548 153 515 82 q 581 378 581 225 q 549 617 581 540 q 444 694 518 694 q 308 399 308 694 q 342 160 308 238 q 449 82 375 82 m 614 1149 l 792 1364 l 901 1271 q 799 1166 871 1228 q 679 1086 728 1104 l 614 1149 m 508 1140 l 704 925 l 629 874 l 451 1010 l 268 874 l 201 922 l 396 1140 l 508 1140 z "},"ộ":{"ha":892,"x_min":63,"x_max":828,"o":"m 63 382 q 115 608 63 515 q 258 746 168 700 q 454 792 347 792 q 728 687 629 792 q 828 394 828 582 q 775 165 828 257 q 633 29 722 74 q 435 -15 544 -15 q 162 90 261 -15 q 63 382 63 194 m 449 82 q 548 153 515 82 q 581 378 581 225 q 549 617 581 540 q 444 694 518 694 q 308 399 308 694 q 342 160 308 238 q 449 82 375 82 m 436 -311 q 356 -281 388 -311 q 324 -204 324 -250 q 358 -114 324 -150 q 450 -78 392 -78 q 537 -108 506 -78 q 568 -185 568 -139 q 534 -276 568 -240 q 438 -311 500 -311 l 436 -311 m 514 1201 l 728 931 l 651 868 l 451 1042 l 247 867 l 174 929 l 386 1201 l 514 1201 z "},"ồ":{"ha":892,"x_min":63,"x_max":828,"o":"m 63 382 q 115 608 63 515 q 258 746 168 700 q 454 792 347 792 q 728 687 629 792 q 828 394 828 582 q 775 165 828 257 q 633 29 722 74 q 435 -15 544 -15 q 162 90 261 -15 q 63 382 63 194 m 449 82 q 548 153 515 82 q 581 378 581 225 q 549 617 581 540 q 444 694 518 694 q 308 399 308 694 q 342 160 308 238 q 449 82 375 82 m 747 1099 q 635 1169 700 1115 q 535 1272 571 1224 l 643 1365 l 813 1160 l 747 1099 m 508 1140 l 704 925 l 629 874 l 451 1010 l 268 874 l 201 922 l 396 1140 l 508 1140 z "},"ổ":{"ha":892,"x_min":63,"x_max":828,"o":"m 63 382 q 115 608 63 515 q 258 746 168 700 q 454 792 347 792 q 728 687 629 792 q 828 394 828 582 q 775 165 828 257 q 633 29 722 74 q 435 -15 544 -15 q 162 90 261 -15 q 63 382 63 194 m 449 82 q 548 153 515 82 q 581 378 581 225 q 549 617 581 540 q 444 694 518 694 q 308 399 308 694 q 342 160 308 238 q 449 82 375 82 m 656 1046 q 634 1082 647 1056 q 621 1122 621 1108 q 632 1153 621 1140 q 663 1182 643 1167 q 689 1205 679 1194 q 699 1229 699 1215 q 683 1260 699 1250 q 626 1271 667 1271 q 594 1267 611 1271 q 568 1260 576 1263 l 569 1358 q 599 1363 571 1361 q 646 1365 626 1365 q 776 1335 726 1365 q 826 1242 826 1304 q 808 1181 826 1207 q 750 1129 789 1156 q 728 1088 728 1115 q 733 1054 728 1076 l 656 1046 m 508 1140 l 704 925 l 629 874 l 451 1010 l 268 874 l 201 922 l 396 1140 l 508 1140 z "},"ỗ":{"ha":892,"x_min":63,"x_max":828,"o":"m 63 382 q 115 608 63 515 q 258 746 168 700 q 454 792 347 792 q 728 687 629 792 q 828 394 828 582 q 775 165 828 257 q 633 29 722 74 q 435 -15 544 -15 q 162 90 261 -15 q 63 382 63 194 m 449 82 q 548 153 515 82 q 581 378 581 225 q 549 617 581 540 q 444 694 518 694 q 308 399 308 694 q 342 160 308 238 q 449 82 375 82 m 246 1236 q 299 1326 261 1290 q 393 1363 338 1363 q 443 1352 422 1363 q 489 1322 464 1342 q 524 1299 511 1307 q 556 1292 538 1292 q 592 1303 579 1292 q 617 1336 604 1314 l 676 1306 q 623 1214 658 1249 q 533 1179 588 1179 q 485 1189 506 1179 q 438 1218 464 1199 q 401 1242 417 1235 q 368 1250 386 1250 q 332 1240 344 1250 q 304 1207 319 1229 l 246 1236 m 508 1140 l 704 925 l 629 874 l 451 1010 l 268 874 l 201 922 l 396 1140 l 508 1140 z "},"ö":{"ha":892,"x_min":63,"x_max":828,"o":"m 63 382 q 115 608 63 515 q 258 746 168 700 q 454 792 347 792 q 728 687 629 792 q 828 394 828 582 q 775 165 828 257 q 633 29 722 74 q 435 -15 544 -15 q 162 90 261 -15 q 63 382 63 194 m 449 82 q 548 153 515 82 q 581 378 581 225 q 549 617 581 540 q 444 694 518 694 q 308 399 308 694 q 342 160 308 238 q 449 82 375 82 m 271 893 q 195 925 222 893 q 168 1003 168 957 q 197 1097 168 1061 q 285 1132 226 1132 q 365 1101 339 1132 q 392 1024 392 1071 q 271 893 392 893 m 617 893 q 540 926 568 893 q 513 1003 513 960 q 542 1097 513 1061 q 629 1132 571 1132 q 710 1101 683 1132 q 738 1024 738 1071 q 617 893 738 893 z "},"ọ":{"ha":892,"x_min":63,"x_max":828,"o":"m 63 382 q 115 608 63 515 q 258 746 168 700 q 454 792 347 792 q 728 687 629 792 q 828 394 828 582 q 775 165 828 257 q 633 29 722 74 q 435 -15 544 -15 q 162 90 261 -15 q 63 382 63 194 m 449 82 q 548 153 515 82 q 581 378 581 225 q 549 617 581 540 q 444 694 518 694 q 308 399 308 694 q 342 160 308 238 q 449 82 375 82 m 436 -311 q 356 -281 388 -311 q 324 -204 324 -250 q 358 -114 324 -150 q 450 -78 392 -78 q 537 -108 506 -78 q 568 -185 568 -139 q 534 -276 568 -240 q 438 -311 500 -311 l 436 -311 z "},"ò":{"ha":892,"x_min":63,"x_max":828,"o":"m 63 382 q 115 608 63 515 q 258 746 168 700 q 454 792 347 792 q 728 687 629 792 q 828 394 828 582 q 775 165 828 257 q 633 29 722 74 q 435 -15 544 -15 q 162 90 261 -15 q 63 382 63 194 m 449 82 q 548 153 515 82 q 581 378 581 225 q 549 617 581 540 q 444 694 518 694 q 308 399 308 694 q 342 160 308 238 q 449 82 375 82 m 490 883 q 391 941 451 897 q 276 1037 331 985 q 199 1129 221 1089 l 331 1249 l 572 951 l 492 883 l 490 883 z "},"ỏ":{"ha":892,"x_min":63,"x_max":828,"o":"m 63 382 q 115 608 63 515 q 258 746 168 700 q 454 792 347 792 q 728 687 629 792 q 828 394 828 582 q 775 165 828 257 q 633 29 722 74 q 435 -15 544 -15 q 162 90 261 -15 q 63 382 63 194 m 449 82 q 548 153 515 82 q 581 378 581 225 q 549 617 581 540 q 444 694 518 694 q 308 399 308 694 q 342 160 308 238 q 449 82 375 82 m 417 851 q 398 881 407 863 q 389 918 389 900 q 396 940 389 931 q 415 960 403 949 q 441 987 432 974 q 450 1021 450 1000 q 433 1070 450 1051 q 376 1089 415 1089 q 340 1085 360 1089 q 310 1072 321 1081 l 306 1193 q 355 1208 326 1203 q 407 1214 383 1214 q 548 1172 497 1214 q 599 1051 599 1131 q 582 993 599 1017 q 547 953 565 969 q 521 931 528 936 q 508 908 513 922 q 503 876 503 893 q 506 851 503 860 l 417 851 z "},"ơ":{"ha":851,"x_min":43,"x_max":904,"o":"m 43 382 q 96 608 43 515 q 238 746 149 700 q 435 792 328 792 q 594 763 526 792 q 683 799 649 768 q 733 869 718 829 q 749 940 749 908 q 743 976 749 960 l 901 976 q 904 947 904 960 q 851 768 904 833 q 711 686 797 703 q 808 394 808 582 q 756 165 808 257 q 614 29 703 74 q 415 -15 525 -15 q 142 90 242 -15 q 43 382 43 194 m 289 399 q 322 160 289 238 q 429 82 356 82 q 528 153 496 82 q 561 378 561 225 q 530 617 561 540 q 425 694 499 694 q 289 399 289 694 z "},"ớ":{"ha":851,"x_min":43,"x_max":904,"o":"m 43 382 q 96 608 43 515 q 238 746 149 700 q 435 792 328 792 q 594 763 526 792 q 683 799 649 768 q 733 869 718 829 q 749 940 749 908 q 743 976 749 960 l 901 976 q 904 947 904 960 q 851 768 904 833 q 711 686 797 703 q 808 394 808 582 q 756 165 808 257 q 614 29 703 74 q 415 -15 525 -15 q 142 90 242 -15 q 43 382 43 194 m 289 399 q 322 160 289 238 q 429 82 356 82 q 528 153 496 82 q 561 378 561 225 q 530 617 561 540 q 425 694 499 694 q 289 399 289 694 m 290 953 l 532 1250 l 665 1131 q 532 990 629 1069 q 371 885 435 910 l 290 953 z "},"ợ":{"ha":851,"x_min":43,"x_max":904,"o":"m 43 382 q 96 608 43 515 q 238 746 149 700 q 435 792 328 792 q 594 763 526 792 q 683 799 649 768 q 733 869 718 829 q 749 940 749 908 q 743 976 749 960 l 901 976 q 904 947 904 960 q 851 768 904 833 q 711 686 797 703 q 808 394 808 582 q 756 165 808 257 q 614 29 703 74 q 415 -15 525 -15 q 142 90 242 -15 q 43 382 43 194 m 289 399 q 322 160 289 238 q 429 82 356 82 q 528 153 496 82 q 561 378 561 225 q 530 617 561 540 q 425 694 499 694 q 289 399 289 694 m 417 -311 q 336 -281 368 -311 q 304 -204 304 -250 q 338 -114 304 -150 q 431 -78 372 -78 q 517 -108 486 -78 q 549 -185 549 -139 q 515 -276 549 -240 q 418 -311 481 -311 l 417 -311 z "},"ờ":{"ha":851,"x_min":43,"x_max":904,"o":"m 43 382 q 96 608 43 515 q 238 746 149 700 q 435 792 328 792 q 594 763 526 792 q 683 799 649 768 q 733 869 718 829 q 749 940 749 908 q 743 976 749 960 l 901 976 q 904 947 904 960 q 851 768 904 833 q 711 686 797 703 q 808 394 808 582 q 756 165 808 257 q 614 29 703 74 q 415 -15 525 -15 q 142 90 242 -15 q 43 382 43 194 m 289 399 q 322 160 289 238 q 429 82 356 82 q 528 153 496 82 q 561 378 561 225 q 530 617 561 540 q 425 694 499 694 q 289 399 289 694 m 474 883 q 374 941 435 897 q 259 1037 314 985 q 182 1129 204 1089 l 314 1249 l 556 951 l 475 883 l 474 883 z "},"ở":{"ha":851,"x_min":43,"x_max":904,"o":"m 43 382 q 96 608 43 515 q 238 746 149 700 q 435 792 328 792 q 594 763 526 792 q 683 799 649 768 q 733 869 718 829 q 749 940 749 908 q 743 976 749 960 l 901 976 q 904 947 904 960 q 851 768 904 833 q 711 686 797 703 q 808 394 808 582 q 756 165 808 257 q 614 29 703 74 q 415 -15 525 -15 q 142 90 242 -15 q 43 382 43 194 m 289 399 q 322 160 289 238 q 429 82 356 82 q 528 153 496 82 q 561 378 561 225 q 530 617 561 540 q 425 694 499 694 q 289 399 289 694 m 400 851 q 381 881 390 863 q 372 918 372 900 q 379 940 372 931 q 399 960 386 949 q 424 987 415 974 q 433 1021 433 1000 q 416 1070 433 1051 q 360 1089 399 1089 q 324 1085 343 1089 q 293 1072 304 1081 l 289 1193 q 338 1208 310 1203 q 390 1214 367 1214 q 531 1172 481 1214 q 582 1051 582 1131 q 565 993 582 1017 q 530 953 549 969 q 504 931 511 936 q 491 908 496 922 q 486 876 486 893 q 489 851 486 860 l 400 851 z "}}}
